<?xml version="1.0" standalone="no"?>
<!DOCTYPE svg PUBLIC "-//W3C//DTD SVG 20010904//EN"
 "http://www.w3.org/TR/2001/REC-SVG-20010904/DTD/svg10.dtd">
<svg version="1.0" xmlns="http://www.w3.org/2000/svg"
 width="300.000000pt" height="169.000000pt" viewBox="0 0 300.000000 169.000000"
 preserveAspectRatio="xMidYMid meet">
<metadata>
Created by potrace 1.10, written by Peter Selinger 2001-2011
</metadata>
<g transform="translate(0.000000,169.000000) scale(0.100000,-0.100000)"
fill="#ead21e" stroke="none">
<path d="M1410 1621 c-31 -59 -34 -251 -5 -317 8 -19 22 -49 30 -68 8 -19 15
-54 15 -78 0 -58 15 -108 46 -153 l25 -37 -40 -43 c-87 -94 -128 -225 -117
-370 11 -143 38 -340 49 -353 21 -26 83 -49 177 -66 52 -10 140 -33 194 -52
55 -19 116 -34 135 -34 20 0 50 -4 67 -9 18 -5 37 -5 45 0 11 7 9 9 -8 9 -25
0 -65 46 -61 69 4 20 48 21 58 1 4 -8 13 -27 19 -43 9 -23 16 -27 48 -26 21 0
32 3 26 6 -7 2 -13 9 -13 15 0 6 -11 24 -25 40 -14 16 -23 34 -19 39 7 12 61
8 61 -6 -1 -27 17 -75 28 -75 23 0 24 13 5 49 -36 67 -90 114 -105 91 -3 -5 1
-10 9 -10 8 0 18 -5 22 -12 4 -6 3 -8 -3 -5 -5 4 -19 -2 -29 -12 -11 -10 -28
-17 -39 -15 -10 2 -27 -2 -37 -7 -11 -6 -18 -6 -18 0 0 5 5 11 12 13 9 3 9 6
0 12 -7 4 -12 2 -12 -4 0 -6 -5 -8 -11 -4 -8 4 -8 0 0 -15 10 -18 9 -21 -8
-21 -11 0 -23 4 -26 10 -4 6 1 7 12 3 13 -4 15 -3 7 6 -12 13 -47 4 -38 -10 4
-7 -11 -12 -36 -11 -12 0 -29 -27 -20 -33 6 -3 10 -1 10 5 0 6 5 8 11 4 7 -4
7 -10 1 -16 -6 -6 -22 -2 -43 10 -19 10 -39 17 -46 15 -6 -2 -15 1 -19 8 -5 8
-3 10 7 4 8 -5 11 -4 6 1 -5 5 -25 9 -45 10 -74 2 -82 4 -82 19 0 8 -5 15 -11
15 -5 0 -8 4 -4 9 3 5 1 12 -5 16 -5 3 -10 11 -10 17 0 6 7 5 18 -4 9 -9 22
-14 28 -11 13 4 7 43 -6 43 -5 0 -6 -10 -2 -22 l5 -23 -23 20 c-16 14 -24 16
-27 7 -3 -6 -10 -9 -16 -5 -7 4 0 -9 15 -29 22 -29 24 -36 10 -33 -9 2 -17 4
-17 5 0 1 -16 3 -35 5 -56 7 -57 7 -53 29 4 19 3 20 -7 3 -11 -17 -12 -17 -29
2 -10 11 -22 17 -26 13 -5 -4 -5 -2 -1 5 3 6 2 14 -4 18 -5 3 -10 14 -10 23 0
15 2 15 10 2 5 -8 10 -10 10 -5 0 6 -5 16 -11 22 -16 16 -39 126 -28 139 5 6
6 14 2 18 -4 4 -8 33 -9 66 -1 32 -5 63 -9 70 -4 7 -1 16 6 21 20 12 27 11 32
-6 3 -11 4 -10 3 2 -1 10 -9 17 -19 17 -12 -1 -17 6 -17 25 1 25 1 25 15 7 8
-11 15 -15 15 -9 0 7 -7 18 -15 27 -19 18 -20 37 -1 30 8 -3 17 0 22 7 4 7 3
10 -3 6 -10 -7 -23 13 -23 34 0 17 34 5 47 -16 9 -14 12 -16 13 -5 0 13 1 13
11 0 7 -10 9 -11 7 -2 -2 8 -7 12 -11 10 -5 -2 -13 5 -18 15 -6 9 -14 15 -19
12 -15 -9 -23 16 -10 28 10 9 11 9 6 0 -4 -8 0 -11 14 -8 11 2 24 -3 30 -13 7
-13 9 -14 10 -3 0 11 4 10 16 -5 15 -18 15 -18 5 3 -15 31 8 44 27 15 8 -12
21 -22 29 -22 11 0 14 -7 10 -22 -6 -21 -5 -22 8 -5 13 18 13 18 19 -1 4 -11
14 -23 22 -26 8 -3 12 -2 9 4 -10 17 6 34 17 19 7 -11 8 -9 4 5 -5 14 -2 17 9
12 12 -4 13 -2 7 12 -5 9 -7 24 -5 32 4 13 3 13 -6 0 -5 -8 -8 -17 -6 -21 3
-3 -4 -14 -14 -23 -17 -15 -19 -15 -36 4 -10 11 -27 20 -37 20 -11 0 -16 4
-13 10 3 5 -10 17 -29 27 -30 14 -34 19 -23 32 8 12 6 11 -9 -2 -11 -9 -24
-14 -29 -10 -4 5 -5 2 -1 -5 4 -7 11 -10 16 -7 4 3 10 -2 14 -10 3 -8 1 -17
-4 -20 -6 -4 -10 -1 -10 5 0 7 -6 10 -14 7 -7 -3 -19 0 -25 6 -14 14 -15 30
-1 22 6 -3 10 3 10 14 0 11 5 23 10 26 6 4 9 3 8 -2 -2 -4 0 -9 5 -10 16 -6
19 -2 7 12 -10 12 -8 20 9 41 12 15 21 22 21 17 0 -5 -6 -15 -12 -22 -11 -11
-10 -12 2 -5 8 5 18 9 22 9 15 0 17 13 3 25 -11 9 -12 17 -4 31 5 11 15 17 20
13 6 -3 3 -12 -8 -20 -17 -14 -17 -14 2 -12 11 2 19 -2 18 -9 -2 -8 4 -10 14
-6 10 4 14 2 10 -4 -5 -7 1 -9 15 -5 21 5 22 4 8 -14 -11 -15 -11 -16 0 -6 8
6 20 12 28 12 12 0 12 -3 1 -17 -13 -16 -12 -17 4 -4 22 17 34 7 17 -14 -15
-18 1 -20 18 -3 25 25 14 45 -28 51 -39 5 -76 25 -65 35 2 3 11 -1 20 -8 8 -7
24 -10 35 -7 11 3 18 1 14 -4 -13 -22 30 -7 48 17 14 16 27 24 39 21 11 -3 19
0 19 7 0 22 -39 15 -60 -11 -25 -31 -39 -24 -16 9 9 12 16 19 16 14 0 -5 6 -3
14 4 8 6 12 18 9 26 -3 8 0 14 6 14 16 0 44 -48 38 -65 -4 -8 -2 -17 3 -20 5
-3 10 3 12 12 3 10 5 0 5 -23 0 -23 -5 -41 -11 -42 -6 0 -26 -2 -44 -3 -18 -1
-31 -3 -30 -3 2 -1 12 -8 22 -16 13 -10 17 -10 12 -2 -4 7 -2 12 7 12 23 0 28
-12 10 -25 -11 -8 -12 -14 -5 -19 6 -4 16 4 23 16 32 62 49 69 129 53 8 -2 21
-4 28 -4 6 -1 12 -11 13 -23 0 -13 3 -17 6 -10 4 10 8 10 19 1 10 -8 14 -8 14
-1 0 6 7 9 15 6 8 -4 15 -1 15 6 0 9 3 10 14 1 11 -9 15 -7 19 8 2 11 0 25 -7
32 -8 9 -8 10 2 4 7 -4 18 -17 23 -29 8 -20 9 -20 6 4 -1 14 -6 29 -12 33 -5
5 1 5 15 1 14 -3 22 -3 18 1 -4 4 10 24 32 45 22 21 36 40 33 44 -4 3 -1 6 5
6 6 0 9 7 6 15 -4 9 0 15 9 15 9 0 18 12 21 28 9 41 10 164 1 191 -5 16 -4 21
4 17 6 -4 9 -2 6 6 -3 8 6 25 20 38 25 23 36 16 13 -9 -11 -10 -8 -10 14 0 15
6 25 15 23 20 -3 4 0 11 6 15 8 5 9 3 4 -6 -5 -9 -3 -11 6 -6 8 3 22 9 32 12
10 4 16 12 14 18 -2 6 4 20 14 30 19 19 19 19 19 0 0 -11 -5 -25 -12 -32 -7
-7 -8 -12 -2 -12 5 0 16 6 23 13 10 10 12 9 9 -3 -2 -8 -12 -22 -23 -32 -15
-14 -16 -17 -3 -12 17 6 19 -10 5 -33 -4 -6 -1 -14 5 -17 9 -3 8 -8 -6 -17
-15 -9 -16 -13 -5 -20 11 -8 10 -12 -6 -25 -11 -8 -19 -21 -17 -28 1 -8 -5
-17 -15 -20 -15 -6 -15 -8 -3 -17 12 -7 11 -10 -8 -15 -14 -4 -21 -12 -18 -20
3 -7 -4 -16 -16 -20 -14 -4 -17 -8 -8 -14 8 -5 2 -10 -16 -14 -22 -6 -25 -9
-13 -17 10 -6 6 -9 -16 -9 -23 0 -27 -3 -15 -10 9 -6 10 -10 3 -10 -6 0 -15 5
-19 11 -9 15 -46 -49 -41 -70 3 -10 5 -8 6 7 0 13 6 20 11 17 6 -3 10 -1 10 5
0 6 4 9 9 6 5 -4 12 0 14 6 4 8 6 7 6 -4 1 -9 -4 -20 -10 -23 -6 -4 -8 -13 -5
-20 3 -8 -2 -19 -10 -26 -13 -10 -17 -10 -25 2 -7 11 -9 11 -9 -3 0 -10 5 -18
10 -18 6 0 10 -7 10 -16 0 -9 -5 -12 -12 -8 -8 5 -9 0 -5 -15 4 -18 2 -21 -10
-17 -10 4 -13 2 -10 -8 3 -7 -1 -23 -9 -35 -13 -18 -13 -31 -4 -74 6 -30 8
-60 5 -69 -3 -8 1 -20 9 -27 11 -9 13 -18 7 -30 -8 -13 -5 -17 12 -18 15 -2
17 1 9 6 -7 4 -12 12 -11 17 3 20 -1 45 -8 41 -5 -3 -8 29 -8 72 0 69 3 81 33
127 17 28 32 56 32 63 0 7 4 9 10 6 6 -4 7 1 3 11 -4 11 -2 15 4 11 10 -6 24
20 38 73 4 14 20 39 35 55 33 35 73 105 66 113 -3 3 1 10 9 16 9 7 19 40 24
86 19 146 1 164 -160 164 -59 0 -106 3 -104 6 7 12 -38 48 -90 72 -41 19 -65
23 -135 22 -47 -1 -104 -8 -128 -15 -43 -14 -43 -14 -160 43 -125 61 -165 70
-182 39z m98 -14 c6 3 12 0 12 -7 0 -6 -4 -8 -10 -5 -5 3 -10 1 -10 -4 0 -14
13 -14 26 -1 12 12 26 2 42 -30 11 -24 12 -24 6 -2 -6 23 -5 23 21 10 14 -8
32 -25 39 -39 10 -19 18 -23 45 -21 27 3 33 1 28 -12 -4 -9 -2 -16 3 -16 6 0
10 8 10 17 0 9 3 13 7 10 3 -4 13 -1 21 6 13 10 15 9 9 -8 -7 -20 -7 -20 8 -1
14 18 20 15 16 -7 -1 -5 3 -6 9 -2 6 3 8 11 5 16 -4 5 -1 9 5 9 6 0 8 5 4 12
-4 7 -3 8 5 4 6 -4 9 -11 7 -15 -3 -3 4 -7 14 -7 15 0 17 3 7 15 -10 12 -9 13
7 4 10 -6 27 -8 38 -5 13 3 17 0 12 -11 -3 -9 -13 -14 -22 -10 -13 4 -14 3 -3
-5 10 -7 10 -11 1 -17 -9 -6 -9 -10 1 -16 20 -12 23 -11 38 14 14 22 14 22 -8
3 -25 -23 -28 -10 -3 21 22 28 48 30 95 9 25 -11 35 -21 30 -29 -5 -9 -3 -9 9
0 18 16 32 5 17 -13 -9 -10 -7 -15 5 -20 9 -3 16 -10 16 -15 0 -5 -11 -4 -25
3 -13 6 -22 15 -19 19 3 5 0 9 -5 9 -16 0 -13 -20 4 -26 8 -3 17 -14 20 -25 4
-11 9 -17 13 -15 4 2 13 -2 20 -10 11 -12 10 -15 -2 -20 -14 -5 -14 -8 -1 -21
9 -8 13 -19 10 -24 -4 -5 -1 -9 4 -9 14 0 14 6 1 31 -7 13 -7 19 0 19 5 0 10
-7 10 -16 0 -8 4 -13 9 -9 5 3 13 0 17 -6 4 -8 3 -9 -4 -5 -14 8 -15 4 -6 -18
3 -9 10 -16 16 -16 5 0 6 5 3 10 -3 6 -1 10 4 10 6 0 11 -5 11 -12 0 -6 3 -8
6 -5 4 4 -14 31 -40 61 -51 60 -56 71 -26 63 11 -3 18 -1 14 4 -3 5 0 9 6 9 7
0 14 -9 17 -21 4 -15 8 -17 14 -8 5 8 3 17 -4 21 -7 4 12 8 41 8 30 0 52 -4
52 -11 0 -5 -4 -7 -10 -4 -6 3 -7 -1 -4 -9 7 -19 24 -11 24 11 0 9 6 13 14 10
7 -3 19 0 26 6 10 9 10 6 0 -13 -12 -24 -12 -24 6 -9 10 9 25 14 31 12 20 -7
-4 -43 -30 -44 -21 0 -21 -1 -2 -10 18 -8 17 -9 -4 -5 -15 3 -38 -3 -58 -15
-34 -21 -68 -73 -59 -88 3 -5 -3 -11 -14 -14 -11 -3 -20 -1 -20 5 0 5 -4 6
-10 3 -6 -4 -7 1 -3 11 5 12 3 15 -6 9 -10 -6 -11 -2 -6 16 6 19 5 21 -5 12
-16 -15 -40 5 -32 27 5 13 4 13 -13 0 -17 -14 -18 -13 -12 3 7 19 -9 24 -16 5
-3 -8 -6 -6 -6 4 -1 12 -6 15 -18 11 -16 -6 -16 -3 2 18 l20 24 -25 -22 c-25
-22 -80 -27 -80 -8 0 6 -4 3 -10 -5 -5 -8 -11 -12 -15 -9 -3 3 8 21 25 40 16
19 30 38 30 44 0 5 -14 -8 -31 -29 -21 -25 -34 -34 -39 -26 -5 9 -9 9 -14 1
-4 -6 -2 -11 3 -11 6 0 11 -7 11 -16 0 -14 -3 -14 -15 -4 -8 7 -15 9 -15 4 0
-5 -5 -2 -10 6 -7 12 -11 8 -16 -18 -4 -20 -10 -29 -14 -22 -5 8 -9 7 -14 -5
-4 -11 -13 -15 -28 -11 -13 3 -17 3 -10 0 6 -3 12 -15 12 -25 0 -11 -4 -18 -9
-15 -5 3 -11 -3 -14 -14 -3 -13 -10 -18 -21 -14 -9 3 -13 10 -10 16 3 5 -2 25
-11 44 -10 22 -14 47 -11 67 6 31 6 31 -5 7 l-12 -25 -10 28 c-7 16 -16 26
-24 23 -7 -3 -13 -1 -13 5 0 6 -4 7 -10 4 -5 -3 -10 0 -10 7 0 9 -3 9 -10 -2
-7 -11 -10 -11 -10 -2 0 7 -4 10 -10 7 -5 -3 -10 -1 -10 5 0 7 7 10 15 6 8 -3
15 -1 15 5 0 6 5 7 12 3 6 -4 8 -3 5 3 -4 6 4 13 18 15 13 3 26 0 28 -6 2 -6
9 0 16 13 11 19 11 22 -1 15 -7 -5 -26 -9 -42 -10 -15 -1 -32 -7 -37 -15 -5
-8 -9 -10 -9 -5 0 5 -17 -7 -37 -27 l-37 -37 -24 22 c-13 13 -27 32 -31 42 -7
19 -8 19 -13 -2 -3 -12 -3 -20 1 -19 3 1 18 -9 33 -22 26 -23 26 -23 8 -54
-10 -18 -21 -47 -25 -65 l-7 -33 -19 25 c-10 13 -21 35 -23 47 -3 13 -5 24 -6
24 -1 0 -3 10 -6 23 -3 17 0 21 8 16 7 -4 6 1 -3 12 -17 21 -16 87 1 92 6 2 7
9 3 15 -13 21 -10 48 4 43 7 -3 13 -1 13 4 0 6 -4 10 -10 10 -5 0 -7 7 -3 16
3 8 12 13 21 9 12 -4 13 -3 2 10 -17 20 -1 19 22 -2 20 -18 25 -5 6 17 -8 9
-5 8 7 -1 11 -9 26 -14 33 -12z m152 -88 c0 -6 -4 -7 -10 -4 -5 3 -10 11 -10
16 0 6 5 7 10 4 6 -3 10 -11 10 -16z m430 -59 c0 -13 -11 -13 -30 0 -12 8 -11
10 8 10 12 0 22 -4 22 -10z m-443 -92 c37 -35 57 -112 57 -224 1 -93 -1 -103
-27 -142 -16 -25 -38 -44 -54 -48 -40 -10 -91 22 -127 81 -25 41 -31 63 -34
122 -9 177 94 296 185 211z m372 -38 c21 -10 51 -34 66 -52 18 -22 37 -33 54
-33 23 0 26 -4 27 -39 1 -23 -1 -33 -6 -25 -5 7 -6 17 -4 21 3 4 0 8 -7 8 -8
0 -8 4 -1 13 8 10 6 13 -9 13 -15 0 -17 -5 -11 -21 4 -11 7 -54 7 -96 0 -68
-3 -79 -28 -113 -48 -62 -112 -96 -181 -96 -85 0 -138 28 -167 87 -19 39 -21
56 -17 127 6 94 31 152 78 186 61 43 139 51 199 20z m-286 -130 c-7 -28 -13
-25 -13 6 0 14 4 23 9 20 5 -3 7 -15 4 -26z m247 -311 c0 -11 -37 -12 -43 -1
-3 4 6 8 19 8 13 1 24 -2 24 -7z m-76 -785 c10 -26 7 -44 -8 -44 -8 0 -17 9
-21 20 -11 34 16 57 29 24z m46 -10 c13 -34 13 -39 -5 -24 -8 7 -15 19 -15 27
0 8 -4 11 -10 8 -5 -3 -10 -1 -10 4 0 22 31 10 40 -15z m134 -33 c-7 -7 -34
28 -34 43 1 6 10 0 21 -13 11 -13 17 -27 13 -30z"/>
<path d="M1481 1545 c9 -11 28 -42 42 -70 15 -27 26 -44 27 -37 0 18 -47 97
-68 113 -16 13 -16 12 -1 -6z"/>
<path d="M1590 1556 c0 -2 8 -10 18 -17 15 -13 16 -12 3 4 -13 16 -21 21 -21
13z"/>
<path d="M1934 1488 l-19 -23 23 19 c21 18 27 26 19 26 -2 0 -12 -10 -23 -22z"/>
<path d="M1975 1500 c-7 -11 2 -30 15 -30 4 0 11 7 14 16 6 15 4 15 -11 3 -15
-12 -16 -12 -10 4 7 18 2 23 -8 7z"/>
<path d="M1470 1490 c0 -5 5 -10 11 -10 5 0 7 5 4 10 -3 6 -8 10 -11 10 -2 0
-4 -4 -4 -10z"/>
<path d="M1800 1481 c-12 -24 -13 -34 -1 -27 9 6 22 46 15 46 -2 0 -8 -9 -14
-19z"/>
<path d="M1760 1469 c0 -5 5 -7 10 -4 6 3 10 8 10 11 0 2 -4 4 -10 4 -5 0 -10
-5 -10 -11z"/>
<path d="M1945 1470 c-3 -5 -1 -10 4 -10 6 0 11 5 11 10 0 6 -2 10 -4 10 -3 0
-8 -4 -11 -10z"/>
<path d="M1490 1456 c0 -8 4 -17 9 -20 5 -4 7 3 4 14 -6 23 -13 26 -13 6z"/>
<path d="M1697 1463 c-4 -3 -7 -11 -7 -17 0 -6 5 -5 12 2 6 6 9 14 7 17 -3 3
-9 2 -12 -2z"/>
<path d="M1405 1450 c3 -5 8 -10 11 -10 2 0 4 5 4 10 0 6 -5 10 -11 10 -5 0
-7 -4 -4 -10z"/>
<path d="M1717 1440 c-19 -22 -22 -35 -7 -25 10 6 34 45 28 45 -2 0 -11 -9
-21 -20z"/>
<path d="M1832 1430 c-13 -16 -19 -30 -14 -30 4 0 16 14 25 30 10 17 16 30 14
30 -2 0 -13 -13 -25 -30z"/>
<path d="M1727 1400 c-19 -40 -23 -58 -16 -74 9 -20 9 -20 5 2 -2 12 7 43 20
68 14 26 23 49 20 51 -2 3 -16 -19 -29 -47z"/>
<path d="M1655 1430 c3 -5 8 -10 11 -10 2 0 4 5 4 10 0 6 -5 10 -11 10 -5 0
-7 -4 -4 -10z"/>
<path d="M1770 1429 c0 -5 5 -7 10 -4 6 3 10 8 10 11 0 2 -4 4 -10 4 -5 0 -10
-5 -10 -11z"/>
<path d="M1955 1420 c-3 -5 -1 -10 4 -10 6 0 11 5 11 10 0 6 -2 10 -4 10 -3 0
-8 -4 -11 -10z"/>
<path d="M2177 1423 c-10 -9 -9 -23 2 -23 5 0 11 7 15 15 5 15 -5 20 -17 8z"/>
<path d="M1756 1393 c-6 -14 -5 -15 5 -6 7 7 10 15 7 18 -3 3 -9 -2 -12 -12z"/>
<path d="M1980 1399 c0 -5 5 -7 10 -4 6 3 10 8 10 11 0 2 -4 4 -10 4 -5 0 -10
-5 -10 -11z"/>
<path d="M2032 1390 c0 -14 2 -19 5 -12 2 6 2 18 0 25 -3 6 -5 1 -5 -13z"/>
<path d="M1781 1384 c0 -11 3 -14 6 -6 3 7 2 16 -1 19 -3 4 -6 -2 -5 -13z"/>
<path d="M1805 1379 c-4 -6 -5 -12 -2 -15 2 -3 7 2 10 11 7 17 1 20 -8 4z"/>
<path d="M1955 1380 c-3 -5 -1 -10 4 -10 6 0 11 5 11 10 0 6 -2 10 -4 10 -3 0
-8 -4 -11 -10z"/>
<path d="M1737 1363 c-4 -3 -7 -11 -7 -17 0 -6 5 -5 12 2 6 6 9 14 7 17 -3 3
-9 2 -12 -2z"/>
<path d="M1731 1314 c0 -11 3 -14 6 -6 3 7 2 16 -1 19 -3 4 -6 -2 -5 -13z"/>
<path d="M1731 1274 c0 -11 3 -14 6 -6 3 7 2 16 -1 19 -3 4 -6 -2 -5 -13z"/>
<path d="M1533 1320 c-12 -5 -27 -18 -33 -30 -11 -20 -10 -21 9 -10 12 6 21
14 21 18 0 4 14 7 31 7 39 0 85 -49 95 -100 9 -50 -3 -119 -27 -149 -15 -19
-30 -26 -55 -26 -19 0 -34 3 -32 8 2 4 -9 19 -24 34 -40 38 -35 13 6 -28 39
-39 50 -41 93 -14 35 21 53 67 53 138 0 96 -74 177 -137 152z"/>
<path d="M1524 1272 c-59 -39 -35 -202 31 -202 37 0 60 42 59 108 0 47 -4 58
-28 78 -28 25 -43 29 -62 16z m50 -57 c0 -17 1 -22 3 -12 8 31 20 9 17 -29 -2
-21 -9 -41 -16 -46 -11 -6 -10 -8 0 -8 7 0 10 -5 7 -11 -4 -6 -13 -8 -21 -5
-8 3 -14 0 -14 -7 -1 -7 -10 -1 -20 12 -38 44 -21 139 24 137 17 -1 21 -7 20
-31z"/>
<path d="M1526 1215 c-3 -8 -1 -15 4 -15 6 0 10 7 10 15 0 8 -2 15 -4 15 -2 0
-6 -7 -10 -15z"/>
<path d="M1642 1160 c0 -19 2 -27 5 -17 2 9 2 25 0 35 -3 9 -5 1 -5 -18z"/>
<path d="M1872 1263 c-95 -47 -120 -169 -51 -248 36 -41 83 -56 135 -45 52 12
85 39 114 93 23 43 24 49 12 94 -28 101 -122 150 -210 106z m139 -14 c35 -18
59 -70 59 -125 0 -45 -5 -57 -38 -94 -34 -39 -43 -43 -92 -47 -72 -5 -111 18
-135 81 -29 75 -4 142 69 188 33 20 96 19 137 -3z"/>
<path d="M1920 1229 c-39 -16 -59 -39 -70 -79 -26 -96 62 -162 146 -111 101
62 32 234 -76 190z m56 -18 c-3 -5 4 -11 16 -14 17 -5 19 -9 9 -21 -9 -11 -9
-16 0 -22 8 -4 9 -3 5 4 -4 7 -2 12 3 12 12 0 15 -20 12 -58 -2 -27 -48 -71
-74 -72 -19 0 -58 19 -69 35 -14 19 -9 75 7 75 9 0 15 9 15 25 0 14 5 26 10
26 6 1 14 2 19 3 5 0 13 4 17 9 10 10 36 9 30 -2z"/>
<path d="M732 1481 c-51 -18 -122 -73 -122 -96 0 -13 75 -105 102 -124 19 -13
20 -12 14 7 -8 23 11 146 26 177 6 11 20 28 32 37 27 22 14 22 -52 -1z m-14
-67 c-2 -20 -7 -24 -23 -20 -20 5 -20 5 0 -10 18 -14 18 -15 2 -32 -17 -16
-19 -16 -37 8 -13 16 -15 26 -8 29 7 2 22 15 35 27 30 30 33 30 31 -2z"/>
<path d="M848 1463 c-24 -27 -50 -132 -46 -187 3 -47 5 -50 42 -63 22 -7 47
-20 56 -28 19 -17 30 -19 30 -5 0 13 94 153 114 169 14 11 10 17 -26 48 -40
33 -128 83 -146 83 -5 0 -16 -8 -24 -17z m97 -56 c49 -25 69 -52 55 -76 -6
-12 -14 -19 -19 -17 -4 3 -13 -10 -19 -28 -7 -18 -21 -41 -31 -50 -17 -16 -21
-16 -57 1 -49 23 -54 29 -43 65 4 16 5 36 2 44 -3 9 1 14 12 14 16 0 16 2 2
23 -12 19 -12 24 0 35 8 8 20 11 28 8 8 -3 17 0 21 6 4 6 9 7 13 0 3 -5 20
-16 36 -25z"/>
<path d="M1060 1343 c0 -7 18 -31 41 -55 45 -47 37 -24 -10 32 -17 19 -31 30
-31 23z"/>
<path d="M2296 1333 c-6 -14 -5 -15 5 -6 7 7 10 15 7 18 -3 3 -9 -2 -12 -12z"/>
<path d="M2260 1290 c-14 -11 -35 -20 -47 -20 -13 0 -23 -4 -23 -10 0 -5 2
-10 5 -10 16 0 72 29 84 43 18 22 12 21 -19 -3z"/>
<path d="M1075 1194 c-44 -25 -91 -48 -106 -51 -25 -5 -26 -7 -18 -41 8 -34 5
-79 -8 -124 -4 -16 3 -18 56 -18 56 0 166 22 180 36 11 11 3 169 -10 206 l-14
37 -80 -45z m75 -17 c0 -4 -5 -17 -10 -27 -9 -16 -8 -18 5 -13 14 5 15 0 11
-31 -3 -20 -8 -51 -11 -70 -5 -32 -8 -34 -58 -42 -105 -16 -102 -18 -102 56
l1 65 39 22 c22 12 51 28 65 36 27 15 60 18 60 4z"/>
<path d="M2198 1200 c3 -25 9 -40 17 -40 8 0 16 -8 19 -17 3 -10 3 0 0 22 -11
74 -42 106 -36 35z"/>
<path d="M1163 958 c-14 -18 -25 -68 -15 -68 9 0 34 71 28 77 -2 2 -8 -2 -13
-9z"/>
<path d="M2151 944 c0 -11 3 -14 6 -6 3 7 2 16 -1 19 -3 4 -6 -2 -5 -13z"/>
<path d="M931 914 c0 -11 3 -14 6 -6 3 7 2 16 -1 19 -3 4 -6 -2 -5 -13z"/>
<path d="M2091 914 c0 -11 3 -14 6 -6 3 7 2 16 -1 19 -3 4 -6 -2 -5 -13z"/>
<path d="M1693 905 c0 -7 6 -12 13 -12 7 0 11 4 8 8 -2 4 2 9 8 12 7 3 4 5 -8
4 -11 -1 -21 -6 -21 -12z"/>
<path d="M1786 846 c-14 -25 -35 -47 -45 -51 -11 -3 -19 -14 -18 -25 1 -10 5
-16 9 -14 5 3 6 9 4 12 -2 4 6 12 19 18 20 10 22 9 17 -4 -4 -10 -1 -13 7 -8
7 5 10 14 8 21 -3 6 3 25 13 40 17 26 18 26 30 9 10 -16 11 -17 6 -1 -3 9 -2
17 3 17 18 0 20 -15 5 -39 l-15 -26 20 24 c12 13 21 18 21 12 0 -7 5 -9 10 -6
14 9 12 25 -2 23 -7 -2 -13 4 -13 12 0 15 -19 28 -42 29 -6 1 -23 -19 -37 -43z"/>
<path d="M1110 868 c-19 -6 -69 -8 -110 -5 l-76 5 7 -77 c4 -42 14 -93 23
-113 15 -36 19 -38 60 -38 23 0 65 7 92 15 27 8 50 15 52 15 1 0 2 -7 2 -15 0
-8 4 -15 8 -15 5 0 1 24 -10 53 -14 40 -17 67 -12 120 3 37 4 67 3 66 -2 0
-20 -5 -39 -11z m-15 -70 c-5 -26 -4 -38 3 -34 6 3 12 -11 14 -35 4 -49 -9
-59 -76 -59 -42 0 -45 2 -56 35 -6 19 -10 41 -8 47 3 7 -2 19 -10 27 -9 9 -10
17 -4 19 5 1 8 11 5 20 -4 16 5 18 67 19 l71 1 -6 -40z"/>
<path d="M1522 860 c-15 -25 -4 -27 14 -2 9 11 13 13 14 4 0 -7 5 -10 11 -6 8
4 7 9 -2 15 -20 12 -23 11 -37 -11z"/>
<path d="M1880 873 c0 -3 7 -11 15 -19 13 -14 15 -13 15 4 0 10 -7 19 -15 19
-8 0 -15 -2 -15 -4z"/>
<path d="M2080 870 c0 -5 5 -10 11 -10 5 0 7 5 4 10 -3 6 -8 10 -11 10 -2 0
-4 -4 -4 -10z"/>
<path d="M2061 854 c0 -11 3 -14 6 -6 3 7 2 16 -1 19 -3 4 -6 -2 -5 -13z"/>
<path d="M1575 849 c-4 -6 -5 -12 -2 -15 2 -3 7 2 10 11 7 17 1 20 -8 4z"/>
<path d="M2153 825 c-16 -67 -16 -170 1 -204 17 -31 12 -65 -8 -54 -6 3 -2 -4
9 -17 l20 -24 -26 16 c-26 17 -59 9 -59 -15 0 -7 -25 -40 -56 -74 -31 -35 -50
-63 -44 -63 14 0 69 55 86 85 10 19 12 18 27 -10 9 -17 31 -46 49 -65 40 -42
48 -25 23 51 -17 50 -14 72 6 52 13 -13 28 -82 29 -133 0 -19 9 -45 19 -58 20
-23 38 -31 24 -9 -4 6 -8 17 -9 24 -5 29 -23 110 -30 128 -4 11 -4 17 0 13 4
-3 14 -24 21 -45 8 -21 14 -30 15 -21 0 23 -36 105 -60 135 -28 35 -25 54 3
21 l22 -28 -3 43 c-2 23 -9 47 -14 52 -8 7 -9 5 -5 -7 4 -12 2 -15 -8 -11 -8
3 -12 9 -9 15 3 5 -2 16 -12 24 -18 15 -18 15 -1 10 10 -3 16 -2 12 3 -3 5 0
11 7 13 7 3 2 13 -12 26 -22 20 -22 22 -4 23 10 0 13 3 7 6 -7 2 -13 14 -13
26 1 21 1 21 11 4 6 -11 12 -24 14 -30 1 -7 5 -20 10 -29 4 -10 5 -24 2 -32
-4 -10 1 -13 16 -10 12 2 16 2 10 -2 -7 -3 -13 -10 -13 -15 0 -6 4 -8 9 -4 5
3 13 0 17 -6 4 -8 3 -9 -4 -5 -7 4 -12 1 -12 -8 0 -9 5 -16 11 -16 8 0 10 -16
7 -49 -4 -37 0 -54 13 -72 l19 -24 0 30 c0 17 -4 47 -9 68 -5 20 -5 37 -1 37
13 0 20 -31 23 -89 1 -29 6 -49 12 -47 6 2 9 8 8 14 -2 6 -5 37 -7 68 -4 45
-13 69 -42 111 -21 30 -49 91 -64 136 l-26 82 -11 -40z m17 -145 c0 -5 -2 -10
-4 -10 -3 0 -8 5 -11 10 -3 6 -1 10 4 10 6 0 11 -4 11 -10z m-23 -170 c2 -23
2 -23 -7 -5 -8 15 -9 7 -4 -30 4 -34 2 -47 -5 -40 -12 12 -31 92 -23 100 13
13 37 -2 39 -25z m21 -85 c0 -16 -2 -15 -8 5 -11 34 -11 60 0 35 5 -11 8 -29
8 -40z"/>
<path d="M1971 834 c0 -11 3 -14 6 -6 3 7 2 16 -1 19 -3 4 -6 -2 -5 -13z"/>
<path d="M2001 834 c0 -11 3 -14 6 -6 3 7 2 16 -1 19 -3 4 -6 -2 -5 -13z"/>
<path d="M2081 834 c0 -11 3 -14 6 -6 3 7 2 16 -1 19 -3 4 -6 -2 -5 -13z"/>
<path d="M1519 820 l-24 -20 27 13 c16 6 28 15 28 20 0 11 -6 9 -31 -13z"/>
<path d="M1595 830 c-3 -5 -1 -10 4 -10 6 0 11 5 11 10 0 6 -2 10 -4 10 -3 0
-8 -4 -11 -10z"/>
<path d="M1667 833 c-14 -14 -6 -20 21 -16 26 4 26 4 8 -11 -21 -17 -29 -43
-16 -51 4 -3 14 3 21 12 8 10 9 14 2 10 -6 -4 -14 -3 -18 3 -3 5 1 10 9 10 24
0 31 22 11 37 -21 15 -29 16 -38 6z"/>
<path d="M1921 824 c0 -11 3 -14 6 -6 3 7 2 16 -1 19 -3 4 -6 -2 -5 -13z"/>
<path d="M1941 824 c0 -11 3 -14 6 -6 3 7 2 16 -1 19 -3 4 -6 -2 -5 -13z"/>
<path d="M1620 815 c-7 -8 -9 -15 -6 -15 4 0 14 7 22 15 9 8 11 15 6 15 -5 0
-15 -7 -22 -15z"/>
<path d="M1807 823 c-4 -3 -7 -11 -7 -17 0 -6 5 -5 12 2 6 6 9 14 7 17 -3 3
-9 2 -12 -2z"/>
<path d="M1903 809 c0 -14 -11 -46 -26 -72 -15 -26 -24 -47 -19 -47 5 0 17 18
27 40 12 27 22 37 28 31 7 -7 6 -15 -2 -24 -6 -8 -8 -22 -5 -31 6 -15 8 -15
21 1 16 19 16 18 -3 -34 -6 -15 -4 -14 10 2 17 20 17 20 13 -3 -5 -19 -3 -21
9 -11 17 14 18 5 2 -24 -11 -21 -10 -21 7 -7 17 14 18 13 12 -2 -8 -23 2 -50
16 -41 7 4 8 0 4 -11 -10 -24 1 -40 18 -26 9 8 14 5 18 -12 8 -30 -2 -43 -17
-22 -10 13 -15 14 -21 4 -6 -9 -4 -11 4 -6 14 9 12 -25 -3 -35 -9 -7 -37 18
-54 47 -10 18 -11 17 -9 -3 1 -13 5 -23 10 -23 5 0 7 -7 3 -15 -3 -8 -2 -14 2
-14 29 5 42 -25 15 -35 -7 -3 -13 -13 -13 -22 0 -16 -1 -16 -18 -1 -23 21 -35
12 -19 -14 15 -24 2 -36 -20 -18 -14 10 -16 10 -6 0 6 -7 9 -20 6 -28 -5 -11
-11 -8 -30 14 -20 22 -21 23 -9 3 19 -28 21 -60 5 -60 -6 0 -8 8 -5 18 5 14 4
14 -9 -2 -17 -22 -20 -40 -6 -31 6 3 15 -3 20 -14 7 -13 8 -21 1 -24 -6 -3 -5
-4 2 -3 7 2 12 10 10 19 -4 25 14 53 77 121 88 95 114 133 106 153 -5 10 -7
25 -6 33 2 13 1 13 -8 0 -10 -13 -11 -13 -11 0 -1 9 -6 6 -16 -10 -8 -14 -13
-17 -10 -7 6 20 -3 49 -13 42 -4 -2 -8 9 -8 25 0 16 4 27 9 24 4 -3 5 2 2 10
-3 8 -12 17 -20 20 -8 3 -11 12 -8 21 4 10 2 15 -7 13 -9 -2 -13 5 -12 19 2
13 -2 22 -8 20 -6 -1 -13 5 -14 13 -2 8 -8 26 -13 40 l-11 25 2 -26z m19 -91
c-7 -7 -12 -8 -12 -2 0 14 12 26 19 19 2 -3 -1 -11 -7 -17z"/>
<path d="M2051 804 c0 -11 3 -14 6 -6 3 7 2 16 -1 19 -3 4 -6 -2 -5 -13z"/>
<path d="M1576 793 c-6 -14 -5 -15 5 -6 7 7 10 15 7 18 -3 3 -9 -2 -12 -12z"/>
<path d="M1855 799 c-4 -6 -4 -13 -1 -16 3 -4 6 0 7 8 1 8 5 3 9 -11 l8 -25 1
28 c1 27 -12 36 -24 16z"/>
<path d="M1971 794 c0 -11 3 -14 6 -6 3 7 2 16 -1 19 -3 4 -6 -2 -5 -13z"/>
<path d="M1991 794 c0 -11 3 -14 6 -6 3 7 2 16 -1 19 -3 4 -6 -2 -5 -13z"/>
<path d="M2071 794 c0 -11 3 -14 6 -6 3 7 2 16 -1 19 -3 4 -6 -2 -5 -13z"/>
<path d="M1800 765 c0 -8 2 -15 4 -15 2 0 6 7 10 15 3 8 1 15 -4 15 -6 0 -10
-7 -10 -15z"/>
<path d="M2051 764 c0 -11 3 -14 6 -6 3 7 2 16 -1 19 -3 4 -6 -2 -5 -13z"/>
<path d="M1827 763 c-4 -3 -7 -13 -7 -22 1 -13 3 -13 11 2 11 19 8 33 -4 20z"/>
<path d="M1960 765 c0 -5 5 -17 10 -25 5 -8 10 -10 10 -5 0 6 -5 17 -10 25 -5
8 -10 11 -10 5z"/>
<path d="M2020 761 c0 -6 4 -13 10 -16 6 -3 7 1 4 9 -7 18 -14 21 -14 7z"/>
<path d="M1611 744 c0 -11 3 -14 6 -6 3 7 2 16 -1 19 -3 4 -6 -2 -5 -13z"/>
<path d="M1750 745 c-7 -9 -8 -15 -2 -15 5 0 12 7 16 15 3 8 4 15 2 15 -2 0
-9 -7 -16 -15z"/>
<path d="M1990 751 c0 -5 5 -13 10 -16 6 -3 10 -2 10 4 0 5 -4 13 -10 16 -5 3
-10 2 -10 -4z"/>
<path d="M2070 751 c0 -5 5 -13 10 -16 6 -3 10 -2 10 4 0 5 -4 13 -10 16 -5 3
-10 2 -10 -4z"/>
<path d="M1674 713 c-15 -20 -23 -33 -16 -29 13 8 56 66 49 66 -3 0 -17 -17
-33 -37z"/>
<path d="M1847 743 c-4 -3 -7 -13 -7 -22 1 -13 3 -13 11 2 11 19 8 33 -4 20z"/>
<path d="M1716 733 c-10 -10 -7 -25 3 -19 5 4 11 1 13 -6 3 -7 7 -8 10 -3 7
12 -17 37 -26 28z"/>
<path d="M1775 729 c-4 -6 -5 -12 -2 -15 2 -3 7 2 10 11 7 17 1 20 -8 4z"/>
<path d="M2030 715 c0 -17 -2 -17 -10 -5 -8 13 -10 13 -10 -2 0 -11 7 -16 20
-15 22 1 24 5 10 27 -8 12 -10 12 -10 -5z"/>
<path d="M2061 714 c0 -11 3 -14 6 -6 3 7 2 16 -1 19 -3 4 -6 -2 -5 -13z"/>
<path d="M1795 709 c-4 -6 -5 -12 -2 -15 2 -3 7 2 10 11 7 17 1 20 -8 4z"/>
<path d="M1976 703 c-6 -14 -5 -15 5 -6 7 7 10 15 7 18 -3 3 -9 -2 -12 -12z"/>
<path d="M2083 687 c-1 -30 -1 -31 9 -9 7 14 8 26 2 32 -5 5 -10 -4 -11 -23z"/>
<path d="M1486 693 c-6 -14 -5 -15 5 -6 7 7 10 15 7 18 -3 3 -9 -2 -12 -12z"/>
<path d="M1507 686 c-4 -9 -3 -15 2 -11 5 3 11 0 13 -7 3 -7 7 -5 11 6 4 9 3
15 -2 11 -5 -3 -11 0 -13 7 -3 7 -7 5 -11 -6z"/>
<path d="M1575 690 c-3 -5 -1 -10 4 -10 6 0 11 5 11 10 0 6 -2 10 -4 10 -3 0
-8 -4 -11 -10z"/>
<path d="M1681 683 c-7 -8 -11 -16 -8 -19 2 -2 10 2 17 11 17 20 9 27 -9 8z"/>
<path d="M1745 689 c-4 -6 -5 -12 -2 -15 2 -3 7 2 10 11 7 17 1 20 -8 4z"/>
<path d="M1817 693 c-4 -3 -7 -11 -7 -17 0 -6 5 -5 12 2 6 6 9 14 7 17 -3 3
-9 2 -12 -2z"/>
<path d="M1876 685 c-3 -8 -1 -15 3 -15 5 0 11 7 15 15 3 8 1 15 -3 15 -5 0
-11 -7 -15 -15z"/>
<path d="M1702 670 c-17 -28 -15 -37 4 -14 13 16 15 16 10 2 -18 -54 -18 -54
-5 -34 14 22 21 66 11 66 -4 0 -13 -9 -20 -20z"/>
<path d="M1761 669 c-7 -12 -10 -23 -8 -26 3 -3 11 5 17 17 15 28 8 35 -9 9z"/>
<path d="M1454 662 c1 -17 19 -17 24 0 3 10 1 10 -6 -1 -9 -12 -11 -12 -14 0
-3 9 -5 10 -4 1z"/>
<path d="M1545 669 c-4 -6 -5 -12 -2 -15 2 -3 7 2 10 11 7 17 1 20 -8 4z"/>
<path d="M1837 673 c-4 -3 -7 -11 -7 -17 0 -6 5 -5 12 2 6 6 9 14 7 17 -3 3
-9 2 -12 -2z"/>
<path d="M1896 663 c-6 -14 -5 -15 5 -6 7 7 10 15 7 18 -3 3 -9 -2 -12 -12z"/>
<path d="M2030 671 c0 -5 5 -13 10 -16 6 -3 10 -2 10 4 0 5 -4 13 -10 16 -5 3
-10 2 -10 -4z"/>
<path d="M1616 657 c-11 -8 -16 -20 -13 -28 4 -11 6 -11 6 2 1 9 11 21 24 27
12 6 17 11 11 11 -5 1 -18 -5 -28 -12z"/>
<path d="M1781 649 c-7 -12 -10 -23 -8 -26 3 -3 11 5 17 17 15 28 8 35 -9 9z"/>
<path d="M1487 646 c-4 -10 -3 -15 3 -11 6 3 10 0 10 -7 0 -9 3 -9 10 2 8 12
10 12 10 -5 0 -16 2 -17 10 -5 9 15 -7 33 -21 24 -4 -2 -9 1 -11 8 -3 7 -7 5
-11 -6z"/>
<path d="M1561 655 c0 -5 6 -21 14 -35 8 -14 14 -20 14 -15 0 6 -6 21 -14 35
-8 14 -14 21 -14 15z"/>
<path d="M1850 645 c-7 -9 -10 -18 -7 -21 3 -3 10 4 17 15 13 25 8 27 -10 6z"/>
<path d="M1653 637 c4 -10 2 -17 -5 -17 -6 0 -9 -3 -5 -6 3 -3 12 -2 20 3 13
7 13 10 -1 23 -14 13 -15 12 -9 -3z"/>
<path d="M1807 643 c-4 -6 -1 -13 5 -16 10 -3 11 -9 1 -26 -18 -29 -16 -39 2
-15 9 12 14 14 15 6 0 -8 5 -10 12 -6 8 5 9 2 5 -9 -3 -10 -2 -17 3 -17 6 0
10 6 10 13 0 15 -19 46 -20 32 -1 -5 -7 3 -14 20 -7 18 -15 25 -19 18z"/>
<path d="M1907 636 c-4 -9 2 -17 14 -21 14 -5 18 -12 14 -23 -4 -12 -3 -14 5
-6 13 13 2 46 -13 37 -6 -4 -8 0 -4 10 3 10 2 17 -2 17 -5 0 -11 -7 -14 -14z"/>
<path d="M2020 630 c0 -6 -6 -8 -12 -4 -7 4 -9 3 -5 -1 10 -12 37 -15 37 -5 0
5 -4 12 -10 15 -5 3 -10 1 -10 -5z"/>
<path d="M2070 635 c0 -5 5 -17 10 -25 5 -8 10 -10 10 -5 0 6 -5 17 -10 25 -5
8 -10 11 -10 5z"/>
<path d="M1125 568 c-36 -35 -65 -69 -65 -75 0 -14 79 -73 138 -102 40 -21 42
-21 42 -2 0 23 36 106 61 143 l19 26 -35 12 c-20 6 -49 23 -65 37 l-30 24 -65
-63z m55 11 c0 -5 5 -7 10 -4 6 3 10 1 10 -4 0 -6 3 -10 8 -10 23 4 34 -3 28
-17 -3 -8 -2 -13 3 -10 5 3 14 -1 20 -8 10 -11 9 -16 -4 -23 -9 -5 -17 -19
-18 -31 -1 -12 -5 -22 -9 -22 -4 0 -8 -7 -8 -15 0 -21 -17 -19 -48 5 -15 12
-37 29 -50 38 -28 21 -23 40 17 66 16 11 27 26 24 33 -3 7 0 13 6 13 6 0 11
-5 11 -11z"/>
<path d="M1447 618 c-3 -10 0 -19 8 -22 15 -5 31 11 21 21 -3 4 -6 0 -7 -8 0
-8 -3 -6 -8 5 -6 17 -8 17 -14 4z"/>
<path d="M1545 620 c-3 -5 -2 -17 3 -26 8 -15 10 -15 15 0 5 12 3 15 -5 10 -8
-5 -9 -2 -5 9 7 19 2 23 -8 7z"/>
<path d="M1746 613 c-6 -14 -5 -15 5 -6 7 7 10 15 7 18 -3 3 -9 -2 -12 -12z"/>
<path d="M1867 623 c-4 -3 -7 -11 -7 -17 0 -6 5 -5 12 2 6 6 9 14 7 17 -3 3
-9 2 -12 -2z"/>
<path d="M983 608 c12 -34 60 -103 64 -91 3 7 -8 29 -23 50 -38 51 -48 62 -41
41z"/>
<path d="M1787 613 c-4 -3 -7 -11 -7 -17 0 -6 5 -5 12 2 6 6 9 14 7 17 -3 3
-9 2 -12 -2z"/>
<path d="M1486 593 c-6 -14 -5 -15 5 -6 7 7 10 15 7 18 -3 3 -9 -2 -12 -12z"/>
<path d="M1600 596 c-9 -11 -9 -19 0 -33 10 -16 10 -16 5 4 -4 15 0 25 12 32
10 6 13 11 7 11 -6 0 -17 -7 -24 -14z"/>
<path d="M1660 600 c-12 -8 -12 -10 -1 -10 11 0 10 -5 -4 -20 -10 -11 -13 -20
-7 -20 7 0 12 5 12 10 0 6 5 10 11 10 5 0 7 -4 4 -10 -3 -5 -1 -10 4 -10 13 0
14 10 1 30 -6 9 -5 17 3 22 7 4 8 8 2 8 -5 0 -17 -5 -25 -10z"/>
<path d="M1706 595 c-11 -8 -17 -17 -14 -20 2 -3 13 4 23 15 21 23 18 25 -9 5z"/>
<path d="M1885 600 c-3 -5 -1 -10 4 -10 6 0 11 5 11 10 0 6 -2 10 -4 10 -3 0
-8 -4 -11 -10z"/>
<path d="M1506 583 c-6 -14 -5 -15 5 -6 7 7 10 15 7 18 -3 3 -9 -2 -12 -12z"/>
<path d="M1443 577 c1 -10 6 -17 11 -17 5 1 13 -4 18 -12 8 -11 9 -11 6 0 -2
8 -8 13 -13 12 -5 -1 -13 7 -17 17 -7 17 -8 17 -5 0z"/>
<path d="M1558 570 c-26 -24 -22 -35 4 -10 12 11 20 22 17 24 -2 2 -12 -4 -21
-14z"/>
<path d="M1730 579 c0 -5 5 -7 10 -4 6 3 10 8 10 11 0 2 -4 4 -10 4 -5 0 -10
-5 -10 -11z"/>
<path d="M1905 579 c-4 -6 -5 -12 -2 -15 2 -3 7 2 10 11 7 17 1 20 -8 4z"/>
<path d="M2060 581 c0 -6 4 -13 10 -16 6 -3 7 1 4 9 -7 18 -14 21 -14 7z"/>
<path d="M2090 575 c0 -8 4 -15 10 -15 5 0 7 7 4 15 -4 8 -8 15 -10 15 -2 0
-4 -7 -4 -15z"/>
<path d="M1775 569 c-4 -6 -4 -13 -1 -16 3 -3 -2 -12 -12 -19 -15 -12 -15 -12
7 -7 21 5 23 3 17 -18 -7 -23 -6 -23 8 -5 11 13 12 22 5 26 -5 4 -11 17 -12
28 -1 25 -3 26 -12 11z"/>
<path d="M1958 560 c3 -8 5 -23 6 -32 1 -25 11 -10 11 17 1 13 -2 22 -6 19 -4
-2 -9 -1 -12 3 -2 5 -2 1 1 -7z"/>
<path d="M1747 563 c-4 -3 -7 -11 -7 -17 0 -6 5 -5 12 2 6 6 9 14 7 17 -3 3
-9 2 -12 -2z"/>
<path d="M1815 559 c-4 -6 -5 -12 -2 -15 2 -3 7 2 10 11 7 17 1 20 -8 4z"/>
<path d="M1867 558 c-2 -7 7 -23 20 -36 13 -12 21 -27 17 -34 -5 -7 -3 -8 6
-3 10 6 12 4 6 -11 -5 -14 -4 -16 4 -8 14 14 -18 87 -33 77 -6 -4 -8 0 -4 10
3 10 2 17 -2 17 -5 0 -11 -6 -14 -12z"/>
<path d="M1916 553 c-6 -14 -5 -15 5 -6 7 7 10 15 7 18 -3 3 -9 -2 -12 -12z"/>
<path d="M1575 550 c-3 -5 -4 -14 -1 -19 3 -5 -1 -22 -9 -37 -12 -24 -15 -26
-16 -9 0 11 -3 15 -5 9 -3 -6 -1 -21 4 -34 l9 -24 7 28 c4 16 14 35 22 44 12
11 12 17 3 22 -6 4 -8 13 -5 19 4 6 5 11 2 11 -3 0 -8 -4 -11 -10z"/>
<path d="M1692 540 c-7 -11 -9 -20 -4 -20 4 0 13 9 20 20 7 11 9 20 4 20 -4 0
-13 -9 -20 -20z"/>
<path d="M1430 540 c0 -8 5 -22 10 -30 9 -13 10 -13 10 0 0 8 -5 22 -10 30 -9
13 -10 13 -10 0z"/>
<path d="M1615 540 c-3 -5 -1 -10 4 -10 6 0 11 5 11 10 0 6 -2 10 -4 10 -3 0
-8 -4 -11 -10z"/>
<path d="M1826 533 c-6 -14 -5 -15 5 -6 7 7 10 15 7 18 -3 3 -9 -2 -12 -12z"/>
<path d="M1514 522 c1 -17 19 -17 24 0 3 10 1 10 -6 -1 -9 -12 -11 -12 -14 0
-3 9 -5 10 -4 1z"/>
<path d="M1718 534 c-4 -3 -1 -13 7 -21 17 -16 20 -37 5 -28 -5 3 -10 1 -10
-4 0 -14 6 -14 31 -1 10 6 19 16 19 23 0 8 -3 8 -9 -2 -7 -11 -12 -8 -23 13
-8 15 -17 24 -20 20z"/>
<path d="M2071 524 c0 -11 3 -14 6 -6 3 7 2 16 -1 19 -3 4 -6 -2 -5 -13z"/>
<path d="M1845 519 c-4 -6 -5 -12 -2 -15 2 -3 7 2 10 11 7 17 1 20 -8 4z"/>
<path d="M1625 509 c-4 -6 -5 -12 -2 -15 2 -3 7 2 10 11 7 17 1 20 -8 4z"/>
<path d="M1481 494 c0 -11 3 -14 6 -6 3 7 2 16 -1 19 -3 4 -6 -2 -5 -13z"/>
<path d="M1601 500 c0 -8 4 -24 9 -35 5 -13 9 -14 9 -5 0 8 -4 24 -9 35 -5 13
-9 14 -9 5z"/>
<path d="M1665 500 c-3 -5 -1 -10 4 -10 6 0 11 5 11 10 0 6 -2 10 -4 10 -3 0
-8 -4 -11 -10z"/>
<path d="M1862 486 c2 -20 5 -23 16 -13 10 7 10 13 3 15 -6 2 -9 8 -5 13 3 5
0 9 -5 9 -6 0 -10 -11 -9 -24z"/>
<path d="M1636 483 c-6 -14 -5 -15 5 -6 7 7 10 15 7 18 -3 3 -9 -2 -12 -12z"/>
<path d="M1501 483 c-2 -19 10 -43 19 -38 4 3 11 -7 14 -21 4 -15 9 -24 12
-22 7 8 -17 68 -26 63 -5 -3 -11 3 -13 12 -3 10 -5 13 -6 6z"/>
<path d="M1580 474 c0 -10 5 -26 10 -34 8 -11 9 -7 4 15 -8 37 -14 45 -14 19z"/>
<path d="M1440 461 c-8 -15 -8 -26 0 -39 10 -15 10 -15 8 3 -1 11 1 26 6 33 4
7 6 16 3 19 -3 2 -10 -5 -17 -16z"/>
<path d="M1657 466 c-10 -25 -9 -28 5 -20 8 5 9 2 5 -9 -3 -10 -3 -17 2 -17 4
0 8 -14 9 -31 1 -34 12 -55 12 -23 0 11 6 26 13 33 8 9 8 12 0 7 -7 -4 -16 9
-25 36 -11 32 -16 38 -21 24z"/>
<path d="M1687 473 c-3 -5 0 -19 7 -31 11 -21 14 -22 26 -7 7 8 10 18 6 22 -3
3 -6 1 -6 -5 0 -7 -5 -12 -11 -12 -6 0 -9 7 -6 15 6 15 -8 31 -16 18z"/>
<path d="M1771 475 c0 -5 3 -16 8 -23 7 -11 9 -10 14 3 4 9 3 14 -2 10 -5 -3
-12 1 -14 7 -3 7 -6 9 -6 3z"/>
<path d="M1816 471 c-4 -6 -2 -11 4 -11 6 0 8 -4 5 -10 -3 -5 -1 -10 5 -10 6
0 9 -4 6 -9 -3 -5 1 -11 9 -15 8 -3 17 0 21 6 5 7 2 8 -6 3 -10 -6 -12 -4 -6
11 4 10 4 15 0 11 -5 -4 -13 2 -20 14 -7 14 -14 18 -18 10z"/>
<path d="M1468 460 c-3 -8 0 -21 7 -27 10 -10 14 -9 19 3 3 8 2 12 -3 9 -5 -3
-11 3 -13 12 -3 15 -5 15 -10 3z"/>
<path d="M1740 451 c0 -6 5 -13 10 -16 6 -3 10 1 10 9 0 9 -4 16 -10 16 -5 0
-10 -4 -10 -9z"/>
<path d="M1925 450 c-8 -13 15 -24 27 -12 6 6 4 11 -6 15 -8 3 -18 2 -21 -3z"/>
<path d="M1617 432 c-19 -20 -23 -37 -7 -27 10 6 33 45 27 45 -2 0 -11 -8 -20
-18z"/>
<path d="M1800 445 c0 -5 5 -17 10 -25 5 -8 10 -10 10 -5 0 6 -5 17 -10 25 -5
8 -10 11 -10 5z"/>
<path d="M1566 431 c-4 -6 -2 -11 3 -11 6 0 11 -8 12 -17 0 -10 3 -13 5 -6 8
18 -11 49 -20 34z"/>
<path d="M1501 414 c0 -11 3 -14 6 -6 3 7 2 16 -1 19 -3 4 -6 -2 -5 -13z"/>
<path d="M1640 423 c0 -18 20 -66 25 -61 3 3 -1 20 -9 39 -9 19 -15 29 -16 22z"/>
<path d="M1774 419 c-3 -6 -2 -15 3 -20 5 -5 9 -1 9 11 0 23 -2 24 -12 9z"/>
<path d="M1461 404 c0 -11 3 -14 6 -6 3 7 2 16 -1 19 -3 4 -6 -2 -5 -13z"/>
<path d="M1405 400 c3 -5 8 -10 11 -10 2 0 4 5 4 10 0 6 -5 10 -11 10 -5 0 -7
-4 -4 -10z"/>
<path d="M1482 400 c0 -8 3 -24 7 -34 7 -18 8 -18 14 -3 3 9 2 17 -3 17 -5 0
-11 8 -13 18 -3 11 -5 12 -5 2z"/>
<path d="M1824 395 c-4 -8 -10 -13 -14 -10 -13 8 -20 -9 -9 -25 7 -13 9 -13 9
0 0 13 1 13 11 0 9 -13 10 -13 6 0 -2 8 0 23 5 33 5 9 6 17 3 17 -3 0 -8 -7
-11 -15z"/>
<path d="M1305 390 c-4 -6 -13 -9 -21 -6 -7 3 -16 1 -19 -4 -4 -6 15 -10 44
-10 28 0 51 4 51 10 0 5 -7 7 -16 3 -9 -3 -20 0 -24 7 -6 9 -9 9 -15 0z"/>
<path d="M1410 368 c0 -9 5 -20 10 -23 13 -8 13 5 0 25 -8 13 -10 13 -10 -2z"/>
<path d="M1562 355 c-6 -14 -7 -25 -2 -25 9 0 25 39 18 46 -3 2 -10 -7 -16
-21z"/>
<path d="M1701 364 c0 -11 3 -14 6 -6 3 7 2 16 -1 19 -3 4 -6 -2 -5 -13z"/>
<path d="M1733 352 c0 -15 2 -21 4 -14 3 6 9 10 14 6 14 -8 11 6 -5 21 -11 12
-13 10 -13 -13z"/>
<path d="M1969 368 c-9 -7 -26 -32 -38 -56 -27 -53 -58 -85 -73 -76 -7 4 -8 3
-4 -5 5 -7 13 -8 24 -2 12 7 23 5 36 -7 15 -13 17 -13 11 -2 -9 15 -16 40 -11
40 2 0 45 -9 97 -20 107 -22 155 -26 126 -9 -9 5 -24 23 -32 40 -15 28 -15 30
11 39 15 6 29 8 32 5 3 -3 -1 -5 -8 -5 -11 0 -11 -3 -2 -12 7 -7 12 -22 12
-35 0 -20 5 -23 39 -23 48 0 63 18 32 39 -12 9 -34 26 -49 38 l-27 22 24 9
c40 14 8 25 -93 29 -65 3 -96 0 -107 -9z m26 -18 c-4 -6 10 -8 37 -5 24 2 51
2 60 -1 15 -5 15 -7 -4 -26 -14 -14 -17 -23 -9 -31 14 -14 15 -40 1 -32 -5 3
-10 1 -10 -6 0 -7 -8 -9 -22 -5 -13 4 -39 10 -58 13 -38 6 -75 22 -52 23 7 0
10 4 7 10 -4 6 1 7 12 4 17 -5 17 -5 1 9 -10 8 -15 17 -11 20 10 11 25 8 18
-3 -3 -5 -2 -10 4 -10 18 0 23 20 6 26 -13 6 -14 8 -3 15 18 12 31 11 23 -1z
m195 -81 c0 -5 -4 -9 -8 -9 -5 0 -9 7 -9 15 0 8 4 12 9 9 4 -3 8 -9 8 -15z"/>
<path d="M2060 330 c-8 -5 -10 -10 -5 -10 6 0 17 5 25 10 8 5 11 10 5 10 -5 0
-17 -5 -25 -10z"/>
<path d="M2015 321 c-6 -11 13 -26 22 -17 4 3 0 6 -8 6 -11 0 -11 2 1 10 9 6
10 10 3 10 -6 0 -14 -4 -18 -9z"/>
<path d="M1985 291 c-7 -12 12 -24 25 -16 11 7 4 25 -10 25 -5 0 -11 -4 -15
-9z"/>
<path d="M2049 282 c11 -8 9 -11 -10 -15 -22 -5 -22 -5 -1 -4 25 2 32 19 10
25 -10 3 -9 1 1 -6z"/>
<path d="M1771 365 c4 -29 -2 -46 -13 -39 -9 5 -9 2 1 -9 15 -19 1 -23 -17 -5
-7 7 -12 8 -12 3 0 -6 -5 -3 -10 5 -7 12 -9 10 -7 -7 1 -16 5 -19 13 -12 8 7
14 6 19 -1 3 -5 1 -10 -4 -10 -6 0 -11 -4 -11 -9 0 -5 11 -4 25 2 13 7 24 17
24 22 -3 29 1 37 14 26 8 -6 17 -8 20 -4 4 3 7 1 7 -5 0 -7 -7 -12 -15 -12 -8
0 -15 -4 -15 -8 0 -5 7 -9 15 -9 8 0 16 4 17 9 4 25 2 33 -9 33 -7 0 -19 9
-28 20 -8 11 -15 16 -14 10z"/>
<path d="M1593 327 c1 -24 4 -32 9 -23 4 8 4 25 -1 38 -8 20 -9 18 -8 -15z"/>
<path d="M1610 353 c0 -6 4 -14 10 -18 5 -3 7 -13 4 -23 -5 -15 -4 -15 6 1 6
9 15 15 21 12 5 -4 9 -1 9 5 0 7 -7 10 -15 6 -8 -3 -19 2 -24 12 -6 9 -11 12
-11 5z"/>
<path d="M1481 324 c0 -11 3 -14 6 -6 3 7 2 16 -1 19 -3 4 -6 -2 -5 -13z"/>
<path d="M1531 324 c0 -11 3 -14 6 -6 3 7 2 16 -1 19 -3 4 -6 -2 -5 -13z"/>
<path d="M1461 323 c-1 -6 -4 -20 -7 -30 -5 -17 -5 -17 6 0 6 10 9 23 6 30 -3
9 -5 9 -5 0z"/>
<path d="M1420 311 c0 -5 5 -13 10 -16 6 -3 10 -2 10 4 0 5 -4 13 -10 16 -5 3
-10 2 -10 -4z"/>
<path d="M1501 304 c0 -11 3 -14 6 -6 3 7 2 16 -1 19 -3 4 -6 -2 -5 -13z"/>
<path d="M1551 304 c0 -11 3 -14 6 -6 3 7 2 16 -1 19 -3 4 -6 -2 -5 -13z"/>
<path d="M1654 280 c3 -36 10 -44 29 -33 13 7 12 12 -8 35 l-23 27 2 -29z m26
-21 c0 -5 -4 -9 -8 -9 -5 0 -9 7 -9 15 0 8 4 12 9 9 4 -3 8 -9 8 -15z"/>
<path d="M1515 271 c-4 -17 -11 -31 -16 -31 -5 0 -9 -4 -9 -10 0 -5 4 -10 9
-10 11 0 36 69 28 76 -3 3 -8 -8 -12 -25z"/>
<path d="M1570 295 c0 -5 5 -17 10 -25 5 -8 10 -10 10 -5 0 6 -5 17 -10 25 -5
8 -10 11 -10 5z"/>
<path d="M1476 275 c-3 -9 -6 -22 -5 -28 0 -7 5 -1 10 12 5 13 8 26 5 28 -2 2
-6 -3 -10 -12z"/>
<path d="M1605 280 c-3 -5 -1 -10 4 -10 6 0 11 5 11 10 0 6 -2 10 -4 10 -3 0
-8 -4 -11 -10z"/>
<path d="M1797 258 c19 -21 31 -24 14 -4 -9 11 -9 15 1 19 7 3 3 4 -9 4 -21
-1 -21 -2 -6 -19z"/>
<path d="M1760 262 c0 -4 10 -13 23 -21 22 -14 22 -14 3 8 -20 22 -26 25 -26
13z"/>
<path d="M1451 244 c0 -11 3 -14 6 -6 3 7 2 16 -1 19 -3 4 -6 -2 -5 -13z"/>
<path d="M1720 243 c-13 -15 -12 -16 4 -10 10 4 20 7 22 7 2 0 4 5 4 10 0 15
-13 12 -30 -7z"/>
<path d="M1531 243 c-1 -6 -4 -20 -7 -30 -5 -17 -5 -17 6 0 6 10 9 23 6 30 -3
9 -5 9 -5 0z"/>
<path d="M1760 230 c0 -5 5 -10 11 -10 5 0 7 5 4 10 -3 6 -8 10 -11 10 -2 0
-4 -4 -4 -10z"/>
<path d="M1675 220 c-3 -6 1 -7 9 -4 18 7 21 14 7 14 -6 0 -13 -4 -16 -10z"/>
<path d="M1850 197 c34 -37 55 -52 29 -21 -10 13 -10 17 1 24 8 5 18 6 24 3 5
-3 6 -1 2 6 -5 7 -13 8 -24 2 -11 -6 -24 -4 -41 7 -21 14 -20 10 9 -21z"/>
<path d="M1960 221 c0 -5 -13 -14 -30 -21 -17 -7 -27 -17 -23 -23 5 -8 8 -7
11 1 2 7 8 10 13 6 5 -3 9 0 9 6 0 6 4 9 8 6 4 -2 13 4 20 15 7 11 8 19 2 19
-5 0 -10 -4 -10 -9z"/>
<path d="M1983 205 c-15 -33 -4 -38 27 -14 19 14 20 17 6 12 -15 -5 -18 -3
-13 10 10 27 -7 20 -20 -8z"/>
<path d="M1800 210 c0 -5 5 -10 11 -10 5 0 7 5 4 10 -3 6 -8 10 -11 10 -2 0
-4 -4 -4 -10z"/>
<path d="M1540 199 c0 -5 5 -7 10 -4 6 3 10 2 10 -4 0 -5 -6 -11 -12 -14 -7
-2 -1 -4 14 -3 33 1 32 0 12 20 -18 18 -34 21 -34 5z"/>
<path d="M1770 200 c0 -5 5 -10 11 -10 5 0 7 5 4 10 -3 6 -8 10 -11 10 -2 0
-4 -4 -4 -10z"/>
<path d="M1680 180 c0 -6 -4 -9 -8 -6 -4 2 -14 1 -21 -3 -9 -6 -10 -11 -2 -15
6 -4 11 -2 11 4 0 6 4 9 8 6 4 -2 14 -1 21 3 9 6 10 11 2 15 -6 4 -11 2 -11
-4z"/>
<path d="M1812 183 c-13 -5 -7 -23 9 -23 6 0 8 4 5 9 -4 5 0 12 6 14 7 3 9 5
3 5 -5 0 -16 -2 -23 -5z"/>
<path d="M1722 164 c-7 -8 -17 -12 -23 -9 -5 4 -9 1 -9 -4 0 -14 10 -13 39 3
13 7 20 16 15 19 -5 2 -15 -1 -22 -9z"/>
<path d="M1760 150 c0 -5 5 -10 11 -10 5 0 7 5 4 10 -3 6 -8 10 -11 10 -2 0
-4 -4 -4 -10z"/>
</g>
</svg>
