<?xml version="1.0" standalone="no"?>
<!DOCTYPE svg PUBLIC "-//W3C//DTD SVG 20010904//EN"
 "http://www.w3.org/TR/2001/REC-SVG-20010904/DTD/svg10.dtd">
<svg version="1.0" xmlns="http://www.w3.org/2000/svg"
 width="1920.000000pt" height="1080.000000pt" viewBox="0 0 1920.000000 1080.000000"
 preserveAspectRatio="xMidYMid meet">

<g transform="translate(0.000000,1080.000000) scale(0.100000,-0.100000)"
fill="#000000" stroke="none">
<path d="M9220 10455 c0 -8 4 -15 8 -15 4 0 15 -12 24 -27 9 -16 35 -48 57
-73 23 -24 41 -48 41 -53 0 -11 91 -97 103 -97 4 0 7 9 7 20 0 11 -4 20 -8 20
-5 0 -14 11 -20 25 -12 27 -22 40 -59 80 -13 13 -23 28 -23 32 0 5 -9 15 -20
23 -11 8 -20 18 -20 22 0 15 -37 45 -64 52 -19 5 -26 3 -26 -9z"/>
<path d="M9055 10380 c-4 -6 -1 -18 7 -28 7 -9 18 -23 23 -30 6 -7 38 -42 72
-78 62 -65 93 -78 71 -29 -6 13 -15 22 -19 19 -5 -3 -9 2 -9 10 0 14 -120 146
-133 146 -3 0 -9 -5 -12 -10z"/>
<path d="M9500 10345 c0 -8 5 -15 10 -15 6 0 10 -8 10 -18 0 -10 9 -24 20 -32
11 -8 20 -22 20 -32 0 -10 4 -18 9 -18 5 0 12 -8 16 -19 3 -10 19 -33 35 -50
17 -17 30 -35 30 -41 0 -5 5 -10 10 -10 6 0 10 -7 10 -15 0 -8 5 -15 10 -15
18 0 11 55 -10 70 -11 8 -20 20 -20 28 0 7 -6 19 -12 26 -7 7 -22 25 -33 40
-11 16 -26 34 -32 41 -7 8 -13 19 -13 25 0 14 -20 34 -42 43 -12 4 -18 2 -18
-8z"/>
<path d="M9650 10322 c0 -4 9 -8 20 -9 11 -1 20 2 20 8 0 5 -9 9 -20 9 -11 0
-20 -4 -20 -8z"/>
<path d="M9780 10260 c0 -5 15 -10 33 -10 24 0 28 3 17 10 -20 13 -50 13 -50
0z"/>
<path d="M9750 10213 c0 -22 32 -93 42 -93 4 0 8 -9 8 -20 0 -11 5 -20 10 -20
6 0 10 -7 10 -15 0 -8 5 -15 10 -15 6 0 10 -9 10 -20 0 -11 2 -20 4 -20 2 0
11 -3 20 -6 12 -4 16 0 16 16 0 11 -4 18 -10 15 -6 -4 -10 5 -10 19 0 14 -4
26 -10 26 -5 0 -10 9 -10 20 0 11 -4 20 -10 20 -5 0 -10 7 -10 15 0 18 -18 51
-42 77 -22 22 -28 23 -28 1z"/>
<path d="M9860 10215 c0 -9 4 -14 9 -11 5 3 14 -1 21 -9 7 -8 19 -15 26 -15 8
0 19 -9 26 -20 7 -11 24 -20 37 -20 13 0 31 -8 40 -17 9 -10 23 -19 31 -21 8
-2 17 -8 18 -13 2 -5 15 -9 28 -9 13 0 24 -4 24 -10 0 -5 9 -10 20 -10 11 0
20 -4 20 -10 0 -5 18 -14 40 -20 38 -10 52 -31 30 -45 -5 -3 -10 -19 -10 -35
0 -16 5 -32 10 -35 6 -3 10 -15 10 -26 0 -10 5 -19 10 -19 6 0 10 -6 10 -13 0
-7 11 -24 25 -39 14 -15 25 -30 25 -33 -1 -21 2 -25 20 -25 13 0 20 7 20 20 0
11 -4 20 -10 20 -5 0 -10 9 -10 20 0 11 -4 20 -10 20 -5 0 -10 9 -10 20 0 11
-4 20 -8 20 -4 0 -14 16 -21 35 -7 19 -19 35 -27 35 -8 0 -14 5 -14 10 0 6 16
10 35 10 19 0 35 -4 35 -10 0 -5 14 -10 30 -10 17 0 30 -4 30 -10 0 -5 6 -10
14 -10 8 0 17 -9 21 -19 3 -11 19 -22 36 -26 19 -4 61 -38 118 -96 49 -49 85
-89 80 -89 -5 0 -9 -7 -9 -15 0 -8 -4 -15 -9 -15 -5 0 -14 -13 -21 -30 -7 -16
-17 -30 -22 -30 -15 0 -38 -27 -38 -45 0 -9 -4 -13 -10 -10 -5 3 -10 -1 -10
-9 0 -9 -6 -16 -12 -16 -10 0 -10 -2 0 -9 11 -6 10 -10 -5 -16 -10 -5 -21 -8
-24 -7 -3 0 -3 -12 -1 -29 3 -22 0 -29 -12 -29 -9 0 -16 -4 -16 -10 0 -5 -16
-10 -35 -10 -19 0 -35 -4 -35 -10 0 -5 -15 -10 -33 -10 -19 0 -48 -7 -66 -16
-18 -9 -43 -14 -57 -11 -18 3 -24 0 -24 -13 0 -20 -19 -30 -56 -30 -14 0 -22
-4 -19 -10 3 -5 -1 -10 -9 -10 -9 0 -16 -4 -16 -10 0 -5 -5 -10 -10 -10 -6 0
-27 -16 -46 -35 -19 -20 -39 -33 -45 -30 -5 4 -9 -1 -9 -10 0 -9 -4 -13 -10
-10 -5 3 -10 -1 -10 -9 0 -9 -7 -16 -15 -16 -8 0 -15 5 -15 10 0 10 -32 87
-51 122 -5 10 -9 25 -9 33 0 9 -4 13 -10 10 -6 -4 -10 5 -10 20 0 15 -4 24
-10 20 -6 -3 -10 4 -10 17 0 13 -9 30 -20 38 -11 8 -20 22 -20 32 0 10 -7 18
-15 18 -8 0 -14 4 -12 8 4 14 -46 102 -59 102 -15 0 -7 -39 13 -58 16 -16 17
-42 2 -42 -5 0 -8 -4 -5 -9 12 -19 -21 -32 -48 -20 -14 7 -29 10 -32 6 -12
-12 7 -43 37 -61 22 -13 28 -23 23 -34 -11 -27 -5 -66 12 -79 22 -16 10 -49
-24 -68 -15 -8 -21 -14 -14 -15 8 0 12 -18 12 -55 0 -41 4 -57 16 -62 19 -7
41 11 25 21 -6 4 -11 2 -11 -3 0 -6 -5 -11 -11 -11 -12 0 -9 20 13 82 12 36
15 38 45 32 21 -4 33 -2 33 5 0 6 4 11 9 11 12 0 21 -39 10 -45 -4 -3 -5 -13
-2 -21 5 -13 -1 -15 -28 -12 -31 3 -34 1 -36 -27 -1 -16 0 -24 3 -18 4 10 9 9
21 -2 19 -20 13 -59 -11 -63 -28 -6 -44 -24 -38 -45 4 -16 1 -18 -17 -12 -19
6 -21 3 -21 -32 0 -28 -6 -42 -20 -51 -12 -7 -24 -11 -28 -8 -5 3 -14 1 -22
-4 -12 -8 -12 -10 2 -15 10 -4 14 -14 11 -26 -3 -10 0 -19 6 -19 16 0 13 -39
-4 -56 -19 -19 -19 -34 -1 -34 27 0 45 12 39 26 -3 8 0 14 6 14 22 0 10 -27
-29 -70 -25 -27 -40 -37 -40 -27 0 8 7 22 15 30 13 13 13 16 -1 21 -25 9 -41
7 -24 -4 13 -9 13 -10 0 -10 -19 0 -63 -91 -50 -104 13 -13 13 -46 -1 -46 -5
0 -8 3 -6 8 3 4 -1 13 -9 20 -12 11 -14 8 -14 -20 0 -25 -3 -29 -10 -18 -7 11
-10 -5 -10 -52 0 -70 -9 -84 -28 -45 -9 19 -11 14 -10 -31 1 -30 -3 -57 -8
-60 -15 -11 -37 -60 -31 -69 3 -5 0 -21 -8 -35 -7 -15 -13 -37 -14 -50 -1 -46
-13 -98 -22 -92 -5 3 -9 -13 -9 -35 0 -23 5 -41 10 -41 6 0 10 13 10 29 0 17
5 33 10 36 6 3 10 14 10 24 0 9 11 39 23 67 13 27 30 70 38 97 7 26 17 47 21
47 4 0 8 11 8 25 0 14 5 25 10 25 6 0 10 14 10 31 0 17 4 28 10 24 6 -3 10 3
10 14 0 12 5 21 10 21 6 0 10 9 10 20 0 11 5 20 10 20 6 0 10 9 10 20 0 11 4
20 9 20 5 0 14 13 21 29 6 16 34 50 61 75 27 25 49 50 49 56 0 5 7 10 15 10 8
0 15 5 15 10 0 6 5 10 10 10 6 0 22 10 35 23 59 55 115 87 150 87 14 0 25 5
25 10 0 6 14 10 30 10 17 0 30 5 30 10 0 6 45 10 115 10 70 0 115 -4 115 -10
0 -5 20 -10 45 -10 25 0 45 -4 45 -10 0 -5 6 -10 14 -10 33 0 105 -51 183
-129 46 -46 83 -90 83 -97 0 -8 5 -14 10 -14 6 0 10 -8 10 -18 0 -10 9 -24 20
-32 11 -8 20 -22 20 -32 0 -10 5 -18 10 -18 6 0 10 -9 10 -20 0 -11 3 -20 8
-20 13 0 82 -199 82 -240 0 -11 5 -20 10 -20 6 0 10 -13 10 -30 0 -16 5 -30
10 -30 6 0 10 -20 10 -45 0 -25 5 -45 10 -45 6 0 10 -20 10 -45 0 -25 5 -45
10 -45 6 0 10 -28 10 -63 0 -35 4 -67 9 -73 5 -5 11 -36 14 -69 5 -70 35 -310
42 -342 3 -12 5 -120 6 -240 0 -231 -13 -353 -52 -464 -10 -30 -19 -67 -19
-82 0 -15 -4 -27 -10 -27 -5 0 -10 -13 -10 -30 0 -16 -4 -30 -10 -30 -5 0 -10
-9 -10 -20 0 -11 -4 -20 -10 -20 -5 0 -10 -11 -10 -25 0 -14 -4 -25 -10 -25
-5 0 -10 -9 -10 -20 0 -11 -4 -20 -9 -20 -5 0 -12 -8 -16 -19 -5 -16 -16 -31
-55 -78 -5 -7 -10 -15 -10 -18 0 -4 -18 -24 -40 -45 -22 -21 -40 -46 -40 -54
0 -9 -7 -16 -17 -16 -9 0 -13 -3 -10 -6 3 -4 -17 -25 -46 -48 -29 -22 -59 -48
-68 -58 -9 -10 -24 -18 -33 -18 -9 0 -16 -4 -16 -10 0 -5 -12 -10 -26 -10 -14
0 -23 -4 -19 -10 4 -6 -33 -10 -104 -10 -67 0 -111 4 -111 10 0 6 -13 10 -30
10 -16 0 -30 5 -30 10 0 6 -11 10 -25 10 -14 0 -25 5 -25 10 0 6 -9 10 -20 10
-11 0 -20 5 -20 10 0 6 -9 10 -20 10 -11 0 -20 5 -20 10 0 6 -7 10 -17 10 -18
0 -75 40 -115 82 -14 15 -29 28 -33 28 -4 0 -15 8 -24 18 -9 9 -25 22 -36 28
-11 6 -24 20 -30 32 -5 12 -13 22 -17 22 -5 0 -8 5 -8 10 0 6 -11 22 -25 36
-14 14 -25 29 -25 33 0 5 -13 24 -30 42 -16 19 -30 40 -30 47 0 6 -4 12 -10
12 -5 0 -10 9 -10 20 0 11 -4 20 -10 20 -5 0 -10 7 -10 15 0 8 -4 15 -10 15
-5 0 -10 7 -10 15 0 8 -4 15 -10 15 -5 0 -10 9 -10 20 0 11 -4 20 -10 20 -5 0
-10 9 -10 20 0 12 -10 32 -22 45 -40 42 -48 54 -48 70 0 8 -4 15 -10 15 -5 0
-10 10 -10 21 0 18 -2 20 -16 8 -14 -12 -14 -14 0 -25 9 -6 16 -18 16 -26 0
-8 5 -19 12 -26 6 -6 12 -35 13 -64 1 -29 7 -54 14 -56 6 -2 11 -17 11 -33 0
-16 5 -29 10 -29 6 0 10 -9 10 -20 0 -11 5 -20 10 -20 6 0 10 -9 10 -19 0 -11
3 -21 8 -23 7 -3 29 -40 69 -115 9 -18 22 -33 29 -33 7 0 16 -10 20 -22 8 -27
29 -49 38 -41 3 4 6 -3 6 -14 0 -12 7 -24 16 -27 9 -4 14 -9 11 -12 -3 -3 5
-17 18 -30 36 -36 40 -62 15 -89 -13 -13 -25 -24 -29 -23 -19 2 -31 -3 -26
-12 10 -16 29 -11 58 16 27 25 34 25 69 -5 19 -17 24 -41 8 -41 -22 0 -120
-93 -120 -114 0 -9 -3 -15 -7 -14 -15 3 -43 -14 -43 -27 0 -7 -7 -15 -15 -19
-18 -6 -19 3 -5 39 8 21 7 25 -2 21 -7 -3 -21 -9 -30 -12 -10 -4 -18 -10 -18
-15 0 -5 -5 -9 -11 -9 -18 0 -46 -33 -31 -38 6 -2 12 -8 12 -14 0 -6 -6 -6
-15 2 -12 10 -18 9 -31 -5 -12 -11 -14 -19 -6 -27 12 -12 -7 -38 -27 -38 -6 0
-11 -5 -11 -11 0 -5 -4 -7 -10 -4 -5 3 -10 2 -10 -3 0 -5 -12 -15 -27 -23 -44
-22 -53 -35 -53 -74 0 -28 -8 -45 -35 -73 -19 -20 -35 -40 -35 -44 0 -4 -6
-13 -13 -20 -39 -40 -66 -86 -62 -106 5 -28 -19 -52 -53 -52 -19 0 -31 -8 -39
-27 -7 -15 -11 -29 -8 -31 3 -3 5 0 5 6 0 7 7 12 15 12 8 0 15 7 15 15 0 8 5
15 10 15 6 0 10 -7 10 -15 0 -8 -4 -15 -9 -15 -5 0 -14 -14 -22 -31 -15 -36
-53 -81 -62 -73 -6 6 -57 -69 -57 -85 0 -5 -6 -11 -12 -14 -10 -3 -10 -9 -1
-25 8 -13 9 -23 3 -27 -6 -3 -10 -15 -10 -26 0 -10 -4 -19 -10 -19 -5 0 -10
-7 -10 -15 0 -9 -11 -28 -24 -42 -27 -29 -66 -141 -66 -193 0 -19 -7 -43 -15
-53 -7 -11 -11 -25 -9 -32 3 -7 1 -16 -5 -20 -6 -3 -11 -19 -11 -36 0 -16 -4
-29 -10 -29 -6 0 -10 -28 -10 -62 0 -36 -6 -75 -15 -91 -10 -19 -12 -35 -6
-46 7 -12 3 -23 -15 -40 -19 -18 -24 -33 -24 -73 0 -30 4 -47 10 -43 6 3 10
14 10 23 1 15 2 15 11 -1 6 -10 8 -39 4 -67 -3 -27 -3 -55 2 -62 13 -22 10
-106 -4 -101 -7 3 -14 1 -14 -3 -1 -5 -3 -19 -4 -32 -1 -12 -9 -30 -17 -40
-13 -14 -16 -62 -17 -274 -2 -167 1 -264 8 -277 12 -21 18 -103 27 -338 3 -84
10 -153 15 -153 5 0 9 -13 9 -29 0 -16 5 -31 11 -33 9 -3 9 -13 0 -39 -13 -40
-12 -98 2 -116 5 -7 9 -53 10 -103 0 -49 4 -90 8 -90 5 0 9 -28 9 -62 0 -66 8
-69 26 -10 l12 37 3 -60 c3 -68 2 -72 -5 -102 -2 -13 1 -51 9 -85 l13 -63 1
89 c1 72 4 91 18 101 15 12 16 18 5 47 -6 19 -11 61 -11 94 1 32 3 51 6 42 5
-21 22 -24 24 -5 1 6 5 -6 9 -28 4 -22 4 -45 -1 -51 -5 -6 -7 -39 -4 -74 2
-44 -1 -69 -11 -85 -11 -18 -13 -32 -5 -66 6 -24 10 -67 10 -94 0 -28 1 -93 1
-145 1 -52 0 -108 -3 -125 -3 -21 1 -32 12 -36 21 -8 41 0 41 17 0 8 5 14 10
14 13 0 13 -53 0 -66 -5 -5 -10 -51 -11 -101 -1 -51 -6 -90 -10 -87 -5 3 -9
-15 -9 -40 0 -25 5 -46 10 -46 6 0 10 -27 10 -60 0 -33 4 -60 10 -60 6 0 10
-22 10 -48 0 -52 -8 -41 122 -166 21 -20 44 -36 53 -36 8 0 15 -4 15 -10 0 -5
6 -10 14 -10 7 0 26 -12 43 -28 37 -34 68 -52 89 -52 8 0 22 -6 29 -13 33 -29
45 -37 55 -37 5 0 10 -4 10 -10 0 -5 14 -10 30 -10 17 0 30 -4 30 -10 0 -5 24
-10 54 -10 30 0 58 -4 61 -10 3 -5 26 -10 51 -10 24 0 44 -4 44 -9 0 -5 19
-11 43 -15 58 -7 148 -23 172 -30 11 -3 36 -7 55 -10 19 -2 56 -9 83 -15 110
-26 139 -31 167 -31 17 0 30 -4 30 -10 0 -5 25 -10 55 -10 30 0 55 -4 55 -10
0 -6 28 -10 65 -10 37 0 65 -4 65 -10 0 -5 17 -10 37 -10 20 0 50 -4 67 -9 48
-15 103 -28 194 -47 45 -10 82 -21 82 -25 0 -6 26 -12 113 -25 20 -4 37 -10
37 -15 0 -5 14 -9 30 -9 17 0 30 -4 30 -10 0 -5 14 -10 30 -10 17 0 30 -4 30
-10 0 -5 8 -10 17 -10 18 0 72 -16 118 -36 47 -20 118 -45 143 -51 12 -3 22
-9 22 -14 0 -5 11 -9 25 -9 14 0 25 -4 25 -10 0 -5 14 -10 30 -10 17 0 30 -4
30 -10 0 -5 14 -10 30 -10 17 0 30 -4 30 -10 0 -5 13 -10 28 -10 15 0 32 -4
37 -8 6 -5 44 -19 85 -31 41 -13 90 -29 108 -37 18 -8 46 -14 62 -14 16 0 32
-4 35 -10 3 -5 22 -10 41 -10 19 0 34 -4 34 -10 0 -5 16 -10 35 -10 19 0 35 5
35 10 0 6 -9 10 -20 10 -26 0 -70 28 -70 45 0 7 -3 15 -7 17 -11 4 -43 75 -43
93 0 8 -4 15 -10 15 -6 0 -10 30 -10 70 0 71 8 89 54 129 10 9 30 27 43 40 23
22 28 23 62 11 29 -9 41 -21 51 -46 8 -19 17 -34 22 -34 4 0 8 -9 8 -20 0 -24
6 -25 27 -4 9 9 12 19 7 22 -14 11 -35 52 -26 52 4 0 13 -5 20 -12 9 -9 12 -8
12 6 0 23 24 46 48 46 23 0 82 -31 82 -42 0 -5 9 -8 20 -8 13 0 20 7 20 20 0
18 3 19 20 8 13 -9 18 -20 15 -38 -3 -14 -2 -19 1 -12 9 19 24 14 17 -5 -6
-16 -5 -17 12 -3 11 9 16 10 11 3 -5 -9 1 -13 19 -13 28 0 44 25 27 42 -7 7
-7 19 -1 35 10 27 53 73 69 73 5 0 10 5 10 10 0 6 14 10 30 10 19 0 30 5 30
14 0 8 16 16 43 19 53 7 167 -3 167 -15 0 -12 47 -58 59 -58 5 0 12 -6 14 -12
4 -10 6 -10 6 -1 1 6 -3 15 -9 18 -5 3 -10 21 -10 39 0 30 3 34 35 39 34 6 95
-17 95 -35 0 -5 7 -8 16 -8 9 0 25 -10 35 -22 11 -11 22 -18 26 -14 4 4 3 10
-3 14 -15 10 -18 132 -4 132 6 0 22 11 36 25 32 32 69 41 100 24 22 -11 27
-11 34 1 7 10 10 11 10 3 0 -8 13 -13 31 -13 17 0 28 -4 24 -10 -3 -5 -1 -10
4 -10 15 0 14 37 0 46 -8 5 -6 10 5 16 12 7 24 5 40 -6 13 -8 37 -14 54 -14
17 1 47 -9 67 -21 20 -11 43 -21 51 -21 8 0 12 -5 9 -10 -3 -5 3 -10 14 -10
29 0 26 14 -6 31 -51 26 -106 93 -119 145 -10 40 -27 54 -64 54 -30 0 -39 5
-83 46 -12 11 -37 27 -55 35 -25 11 -32 20 -32 41 0 21 -5 28 -20 28 -11 0
-20 5 -20 10 0 6 -9 10 -20 10 -11 0 -20 5 -20 10 0 6 -11 10 -24 10 -20 0
-36 16 -36 37 0 2 114 3 253 1 186 -2 257 0 272 9 11 7 14 13 8 13 -17 0 -73
59 -73 76 0 8 -4 14 -10 14 -5 0 -10 6 -10 14 0 8 -3 16 -7 18 -5 2 -19 23
-32 48 -14 25 -28 47 -31 50 -15 11 -60 102 -60 120 0 11 -4 20 -10 20 -5 0
-10 25 -10 55 0 30 5 55 10 55 6 0 10 6 10 13 0 8 21 24 46 37 37 20 49 22 65
12 10 -7 27 -12 38 -12 11 0 21 -6 24 -12 2 -8 8 -9 13 -4 5 5 4 11 -3 13 -17
6 -16 51 1 69 16 16 76 19 76 4 0 -5 14 -10 30 -10 17 0 30 -5 30 -12 0 -9 4
-8 10 2 6 10 10 11 10 3 0 -7 9 -13 20 -13 11 0 20 -4 20 -10 0 -5 11 -10 25
-10 28 0 32 11 12 32 -27 28 -57 90 -57 119 0 37 24 85 49 99 11 5 39 10 64
10 53 0 58 4 43 35 -7 16 -19 25 -34 25 -13 0 -21 4 -17 9 3 6 -36 12 -92 15
-54 3 -159 11 -233 16 -74 5 -177 12 -227 16 -51 3 -93 10 -93 15 0 13 -177
12 -182 -2 -2 -7 -11 -8 -28 -1 -31 12 -181 32 -243 32 -31 0 -47 -4 -47 -12
0 -9 -3 -9 -8 -2 -4 6 -15 13 -24 17 -17 6 -14 47 3 47 5 0 9 12 9 26 0 14 4
23 10 19 6 -3 10 3 10 14 0 20 9 25 36 22 7 -1 14 5 17 13 4 9 0 12 -13 9 -10
-3 -28 1 -41 8 -17 9 -24 9 -27 0 -2 -6 -9 -8 -14 -5 -6 4 -8 2 -5 -4 4 -5 16
-8 27 -5 11 3 20 0 20 -6 0 -6 -8 -11 -17 -11 -16 0 -16 -2 -3 -11 12 -9 12
-10 -3 -5 -10 3 -25 6 -33 6 -9 0 -12 5 -9 10 3 6 0 10 -7 10 -8 0 -15 -10
-15 -22 -1 -13 -7 -24 -13 -26 -6 -2 -17 -11 -26 -19 -8 -9 -27 -16 -41 -16
-16 0 -21 -2 -13 -7 13 -8 7 -41 -7 -39 -21 4 -33 -2 -33 -16 0 -8 -7 -15 -15
-15 -8 0 -15 -3 -15 -8 0 -4 -10 -13 -21 -21 -18 -11 -23 -11 -30 1 -7 10 -9
8 -9 -7 0 -23 -36 -50 -45 -35 -3 6 -16 10 -28 9 -12 0 -17 -3 -10 -5 18 -8 4
-34 -18 -34 -11 0 -22 -7 -25 -15 -4 -8 -10 -12 -15 -9 -5 3 -9 0 -9 -5 0 -6
-5 -11 -12 -11 -6 0 -2 10 10 23 12 13 22 27 22 32 0 10 -12 -3 178 191 81 84
154 162 162 174 8 13 30 38 48 56 17 18 32 36 32 39 0 4 7 13 15 21 8 9 15 12
15 7 0 -4 11 9 25 30 14 20 30 37 36 37 6 0 7 5 4 10 -3 6 1 10 9 10 9 0 16
-5 16 -11 0 -6 7 -17 15 -25 10 -11 15 -12 15 -3 0 6 8 18 18 26 16 13 15 14
-5 10 -15 -3 -20 -1 -16 9 8 22 51 17 58 -7 9 -26 31 -19 27 9 -3 19 2 22 27
22 24 0 31 4 31 20 0 11 6 20 13 20 9 0 8 3 -2 9 -8 5 -10 14 -6 21 6 9 13 6
27 -11 11 -15 16 -18 12 -7 -7 21 8 23 34 7 13 -8 17 -20 14 -40 -3 -22 0 -29
12 -29 9 0 19 7 22 15 4 8 12 15 20 15 8 0 14 4 14 8 0 5 10 19 23 32 12 14
22 27 21 30 0 3 4 10 8 15 5 6 30 40 56 77 42 58 49 65 65 53 9 -7 17 -17 17
-24 0 -6 5 -11 10 -11 6 0 10 -9 10 -19 0 -11 4 -21 9 -23 5 -1 11 -10 13 -18
2 -8 10 -22 19 -30 8 -8 29 -40 45 -70 16 -30 32 -57 37 -58 4 -2 7 -10 7 -18
0 -8 5 -14 10 -14 6 0 10 -9 10 -20 0 -11 5 -20 10 -20 6 0 10 9 10 20 0 11
-4 20 -10 20 -9 0 -20 34 -39 130 -7 30 -14 66 -18 80 -6 28 -62 89 -59 66 0
-8 -3 -15 -9 -16 -5 0 -10 11 -11 25 0 14 3 25 9 25 5 0 -1 9 -14 21 -13 11
-18 18 -11 14 17 -9 15 20 -3 35 -9 7 -13 20 -10 28 4 12 3 12 -9 3 -12 -10
-14 -9 -9 7 2 11 0 23 -6 26 -14 9 -14 56 0 56 5 0 7 -5 4 -10 -3 -6 1 -13 9
-16 9 -3 16 -15 16 -25 0 -10 5 -19 10 -19 6 0 10 -8 10 -17 0 -10 8 -27 16
-38 14 -19 16 -19 25 -2 10 17 20 127 12 127 -2 0 -8 -10 -12 -22 -9 -23 -9
-23 -16 5 -4 15 -12 27 -17 27 -6 0 -8 15 -6 35 3 27 1 32 -9 23 -10 -8 -13
-6 -13 10 0 27 -27 49 -42 34 -8 -8 -9 -21 -1 -47 6 -19 7 -35 2 -35 -11 0
-30 36 -27 52 2 7 -3 12 -9 10 -14 -2 -17 10 -6 22 11 10 10 40 -1 48 -6 4 -4
13 3 22 10 11 10 20 3 29 -6 6 -14 30 -18 52 -4 22 -12 43 -17 47 -7 4 -6 12
3 23 12 15 12 18 -3 26 -9 6 -17 15 -17 20 0 6 5 7 11 3 8 -5 10 1 7 20 -3 17
-1 26 7 26 16 0 30 -33 16 -38 -6 -2 -11 -8 -11 -13 0 -6 8 -5 20 1 16 8 18 8
14 -4 -8 -21 5 -39 19 -28 22 16 45 -22 41 -67 -2 -22 0 -41 5 -41 5 0 7 10 4
23 -5 17 -3 20 7 10 8 -7 10 -22 6 -38 -6 -23 -8 -24 -22 -10 -8 8 -16 15 -17
15 -7 0 0 -70 7 -77 5 -4 6 3 2 17 -6 19 -5 21 3 10 6 -8 11 -32 11 -52 0 -21
3 -38 8 -38 4 0 7 21 6 47 -2 43 0 45 12 28 11 -14 14 -15 14 -4 0 8 -5 20
-12 27 -6 6 -9 15 -5 19 4 3 13 -2 21 -12 24 -34 44 -12 48 54 1 34 0 61 -4
61 -5 0 -8 12 -8 27 0 25 -1 26 -14 8 -13 -18 -14 -15 -11 28 2 27 -1 45 -6
42 -5 -4 -9 8 -9 25 0 23 -4 31 -14 27 -10 -4 -12 0 -9 14 3 10 0 19 -6 19 -6
0 -11 10 -11 22 0 12 -3 18 -7 15 -8 -9 -34 63 -27 75 3 4 -2 8 -10 8 -9 0
-16 9 -16 20 0 11 -4 20 -10 20 -5 0 -10 9 -10 21 0 11 5 17 10 14 6 -4 8 -11
5 -16 -4 -5 1 -9 9 -9 9 0 15 -3 15 -8 -3 -18 2 -32 12 -32 12 0 9 59 -4 77
-5 7 -4 19 2 30 10 17 10 16 11 -4 0 -12 5 -25 11 -29 6 -3 8 -15 6 -26 -3
-11 0 -21 9 -25 9 -3 14 -20 14 -48 0 -24 5 -47 10 -50 6 -4 8 -11 5 -16 -3
-5 0 -6 8 -3 18 7 30 -47 14 -59 -7 -5 -2 -6 11 -2 16 5 22 2 22 -9 0 -9 7
-16 15 -16 9 0 15 -9 15 -24 0 -14 6 -31 13 -38 6 -7 13 -20 15 -28 2 -8 8
-17 13 -21 5 -3 7 -14 3 -24 -5 -12 -1 -22 10 -31 22 -16 26 -81 6 -95 -12 -8
-12 -12 -2 -16 6 -2 12 -18 12 -34 0 -16 5 -29 10 -29 6 0 10 -7 10 -15 0 -8
5 -15 11 -15 6 0 9 -7 6 -14 -4 -10 -1 -13 9 -9 7 3 14 0 14 -6 0 -15 53 -14
68 1 8 8 12 9 12 1 0 -6 -4 -13 -10 -15 -6 -2 -4 -15 5 -32 8 -15 15 -35 15
-42 0 -8 5 -14 10 -14 6 0 10 -7 10 -16 0 -9 9 -27 20 -41 11 -14 20 -32 20
-40 0 -14 23 -43 34 -43 3 0 6 9 6 19 0 12 9 21 25 25 14 4 25 11 25 16 0 16
52 -9 82 -40 15 -17 28 -37 28 -45 0 -8 5 -15 10 -15 6 0 10 -9 10 -19 0 -22
23 -34 38 -19 8 8 19 2 40 -20 16 -17 32 -28 36 -25 3 3 6 -1 6 -10 0 -11 8
-17 25 -17 14 0 25 -4 25 -10 0 -5 5 -10 10 -10 16 0 11 37 -6 44 -8 3 -13 10
-10 15 8 12 -29 93 -37 84 -7 -6 -11 35 -8 69 1 10 -3 18 -8 18 -6 0 -11 11
-11 25 0 14 -4 25 -10 25 -5 0 -10 7 -10 15 0 8 -4 15 -8 15 -5 0 -14 16 -22
35 -8 19 -18 35 -23 35 -14 0 -57 52 -58 70 -1 8 0 25 1 38 1 12 -3 22 -9 22
-6 0 -11 9 -11 20 0 11 -4 20 -9 20 -5 0 -11 9 -14 21 -3 12 -10 18 -15 15 -6
-3 -8 2 -5 14 4 15 0 20 -16 20 -17 0 -21 6 -21 30 0 17 -5 30 -12 30 -6 0 -9
3 -6 6 4 3 -5 22 -18 41 -13 20 -24 47 -24 60 0 23 2 23 40 -16 22 -22 40 -45
40 -52 0 -6 13 -23 28 -37 16 -15 34 -36 40 -48 11 -22 66 -92 102 -131 11
-12 20 -27 20 -32 0 -5 3 -11 8 -13 4 -1 18 -16 31 -33 l24 -30 -7 170 c-7
193 -4 225 32 260 32 32 48 32 82 -5 15 -16 33 -30 38 -30 6 0 13 -6 15 -12 3
-7 6 -3 6 9 1 12 5 25 11 28 12 7 60 -42 60 -61 0 -8 5 -14 10 -14 6 0 10 -7
10 -15 0 -29 19 -14 22 17 2 21 9 34 20 36 18 3 91 -61 81 -72 -4 -3 1 -6 10
-6 8 0 17 -5 19 -12 3 -8 14 -3 31 14 27 27 36 58 17 58 -5 0 -10 7 -10 15 0
8 -6 15 -12 15 -9 0 -9 3 1 9 12 8 12 14 -3 44 -9 20 -28 45 -41 55 -14 11
-25 23 -25 27 0 3 -6 13 -12 20 -30 33 -38 45 -38 55 0 5 -5 10 -10 10 -6 0
-10 6 -9 13 2 17 -24 77 -33 77 -4 0 -8 4 -8 9 0 17 -45 80 -56 81 -6 0 -18
15 -25 33 -7 17 -21 41 -31 51 -10 11 -18 26 -18 33 0 7 -4 13 -10 13 -5 0
-10 9 -10 20 0 11 -4 20 -10 20 -5 0 -10 9 -10 20 0 11 -4 20 -10 20 -5 0 -10
9 -10 19 0 11 -3 21 -7 23 -5 2 -21 32 -38 68 -16 36 -37 77 -47 92 -10 14
-18 38 -18 52 0 14 -4 26 -10 26 -5 0 -10 16 -10 35 0 19 -4 35 -10 35 -5 0
-10 13 -10 29 0 17 -4 32 -9 35 -5 3 -11 18 -14 33 -3 16 -14 53 -24 83 -33
92 -63 187 -63 200 0 6 -6 18 -14 26 -8 7 -12 23 -9 34 3 11 1 20 -4 20 -5 0
-10 19 -12 43 -1 23 -6 44 -12 45 -5 2 -9 21 -9 43 0 21 -4 39 -10 39 -5 0
-10 8 -10 19 0 10 -7 24 -15 31 -21 18 -49 -20 -66 -88 -7 -29 -16 -55 -21
-58 -4 -3 -8 -16 -8 -30 0 -13 -4 -24 -10 -24 -5 0 -10 -13 -10 -30 0 -16 -4
-30 -10 -30 -6 0 -10 -50 -10 -130 0 -75 -4 -130 -9 -130 -6 0 -12 -57 -14
-127 -3 -71 -12 -204 -21 -298 -9 -93 -19 -203 -22 -243 -6 -76 -10 -86 -16
-40 -2 14 -8 32 -14 39 -5 8 -16 37 -23 64 -6 28 -16 52 -22 53 -5 2 -9 35 -9
73 0 39 -4 69 -10 69 -5 0 -10 23 -10 50 0 28 -4 50 -9 50 -5 0 -11 46 -15
103 -7 129 -19 229 -29 244 -4 6 2 28 13 48 11 19 20 52 20 73 0 28 3 33 10
22 7 -11 10 -4 10 28 0 23 5 42 10 42 6 0 10 9 10 19 0 11 9 22 19 26 13 4 18
13 16 25 -2 12 2 20 10 20 7 0 21 20 32 45 10 25 21 45 26 45 4 0 7 8 7 18 0
9 9 23 19 29 11 7 25 28 32 48 7 19 16 35 21 35 4 0 7 21 6 47 0 27 4 49 11
51 6 2 9 8 5 13 -3 5 0 9 5 9 6 0 11 8 11 18 0 14 2 15 10 2 11 -18 12 -17 44
49 16 34 26 72 26 100 1 40 2 44 14 29 17 -23 26 -23 26 2 0 11 -4 20 -10 20
-5 0 -10 11 -10 25 0 14 5 25 11 25 6 0 9 -9 6 -19 -3 -14 -1 -18 10 -14 11 4
14 15 10 40 -5 28 -2 35 16 43 12 5 18 9 14 9 -4 1 1 10 12 22 18 20 35 93 19
83 -4 -3 -8 5 -7 18 0 13 3 17 6 11 10 -26 34 -12 61 35 6 12 12 29 12 37 0 8
5 15 10 15 6 0 10 14 10 30 0 17 5 30 10 30 6 0 10 9 10 19 0 11 5 23 10 26
14 9 12 62 -2 68 -19 8 10 26 32 20 21 -6 30 21 30 94 0 56 8 86 20 78 10 -6
26 14 33 40 3 12 5 4 6 -17 2 -66 21 -41 21 26 0 36 -4 68 -10 71 -5 3 -10 1
-10 -4 0 -6 -8 -11 -17 -11 -10 0 -29 -9 -43 -20 -14 -11 -33 -20 -43 -20 -10
0 -15 -4 -12 -10 4 -6 -8 -10 -29 -10 -20 0 -36 -4 -36 -10 0 -5 -10 -10 -23
-10 -13 0 -28 -5 -35 -12 -9 -9 -12 -9 -12 0 0 7 -9 12 -20 12 -28 0 -70 43
-70 71 0 12 -3 19 -7 16 -3 -4 -12 5 -19 19 -11 21 -11 33 -1 65 6 21 15 39
19 39 5 0 8 14 8 30 0 17 5 30 10 30 6 0 10 20 10 45 0 25 5 45 10 45 6 0 10
23 10 50 0 28 4 50 9 50 10 0 12 22 30 320 13 202 10 446 -6 475 -6 11 -13 77
-16 146 -4 101 -3 126 8 126 7 0 16 -15 20 -34 4 -23 11 -33 25 -33 20 0 25
-29 36 -250 4 -79 9 -109 15 -95 5 12 7 -39 4 -130 -5 -173 -14 -263 -26 -287
-5 -9 -9 -36 -8 -60 0 -31 2 -38 8 -23 8 19 8 19 16 -4 4 -13 10 -20 14 -15
15 22 32 10 52 -36 12 -28 27 -50 33 -49 36 4 46 -2 46 -31 0 -33 15 -38 46
-15 12 9 15 18 9 22 -15 11 -34 71 -41 128 -4 28 -11 55 -16 62 -12 15 -17
143 -6 149 20 13 47 -41 48 -95 0 -40 6 -64 23 -88 24 -36 37 -42 37 -17 0 9
9 29 21 45 14 20 18 36 13 51 -4 13 -8 55 -9 93 -1 39 -9 96 -18 128 -10 32
-15 63 -11 68 3 5 0 9 -5 9 -6 0 -11 14 -11 31 0 17 -4 28 -10 24 -6 -4 -10
10 -10 34 0 23 -4 41 -10 41 -5 0 -10 4 -10 9 0 6 -13 25 -30 43 -37 40 -41
64 -7 47 18 -9 20 -9 10 2 -7 7 -13 23 -13 36 0 13 -4 23 -9 23 -5 0 -12 25
-16 55 -7 57 -10 60 -62 55 -17 -1 -23 4 -23 19 0 15 6 21 23 21 12 0 46 8 73
18 37 13 48 21 40 28 -7 6 -22 9 -35 7 -28 -4 -51 13 -51 38 0 21 -48 95 -60
92 -4 -1 -7 9 -7 24 0 14 -7 30 -14 35 -11 7 -11 11 -1 15 6 2 12 16 12 29 0
14 4 22 10 19 6 -3 10 -2 10 4 0 10 55 41 74 41 7 0 18 9 26 20 8 11 22 20 32
20 10 0 18 5 18 10 0 6 9 10 20 10 11 0 20 5 20 10 0 6 6 10 14 10 7 0 19 7
26 15 13 15 130 75 147 75 6 0 13 3 15 8 4 9 57 41 81 49 9 3 17 9 17 14 0 5
9 9 20 9 11 0 20 5 20 10 0 6 4 10 10 10 17 0 100 64 100 77 0 7 -5 13 -11 13
-5 0 -7 5 -4 10 4 6 10 8 15 5 4 -3 11 2 14 11 5 12 15 14 46 10 35 -5 40 -3
40 14 0 34 -22 68 -51 80 -39 17 -225 18 -240 3 -7 -7 -26 -13 -42 -13 -16 0
-26 -4 -22 -10 4 -6 -8 -10 -29 -10 -20 0 -36 -4 -36 -10 0 -5 -10 -10 -22
-10 -19 0 -20 -2 -8 -10 12 -8 9 -10 -13 -10 -16 0 -26 -4 -22 -10 3 -5 -3
-10 -15 -10 -12 0 -18 -4 -15 -10 3 -5 -1 -10 -10 -10 -9 0 -27 -10 -40 -22
-40 -38 -53 -48 -80 -60 -14 -6 -25 -15 -25 -20 0 -4 -7 -8 -15 -8 -8 0 -15
-4 -15 -10 0 -5 -7 -10 -16 -10 -9 0 -29 -13 -44 -30 -15 -16 -32 -30 -37 -30
-4 0 -17 -12 -28 -27 -33 -45 -75 -87 -81 -80 -3 3 -2 12 2 19 5 7 9 19 10 26
2 8 10 22 20 33 10 11 12 19 6 19 -7 0 -12 -4 -12 -10 0 -26 -26 -6 -37 27
-13 44 -9 55 11 27 14 -18 15 -18 21 -1 4 9 2 24 -4 31 -8 10 -9 16 -1 21 11
7 4 25 -11 25 -5 0 -9 -9 -9 -20 0 -11 -4 -20 -10 -20 -5 0 -10 6 -10 14 0 8
5 18 10 21 25 15 8 33 -35 37 -54 4 -62 -9 -35 -57 17 -30 18 -37 5 -41 -8 -3
-19 -2 -26 2 -20 12 -69 14 -69 3 0 -6 4 -8 9 -5 12 8 51 -28 51 -48 0 -9 4
-16 10 -16 11 0 34 -43 44 -82 7 -30 -6 -37 -28 -15 -18 18 -19 29 -4 38 10 7
10 9 1 9 -7 0 -13 6 -13 13 0 14 -41 57 -54 57 -4 0 5 -21 20 -46 17 -29 22
-44 13 -40 -8 3 -22 9 -31 12 -10 4 -18 13 -18 20 0 8 -4 14 -10 14 -5 0 -10
7 -10 15 0 8 -12 23 -27 32 -24 16 -52 43 -90 88 -7 8 -13 19 -13 25 0 6 -4 8
-10 5 -5 -3 -10 -1 -10 5 0 6 -15 26 -32 44 -39 40 -63 71 -86 109 -9 15 -20
27 -24 27 -17 0 -88 84 -88 104 0 12 -7 31 -15 42 -19 25 -19 69 0 88 8 8 15
24 15 35 0 13 8 22 23 25 99 21 227 29 227 16 0 -13 37 -13 45 0 3 5 12 7 20
4 8 -4 36 -1 62 5 27 6 80 13 118 15 140 9 220 19 228 30 5 8 10 6 17 -4 7
-12 12 -12 22 -2 8 8 43 12 99 12 53 0 89 4 91 11 2 6 35 10 83 10 52 0 82 4
87 12 13 20 9 27 -17 27 -14 0 -25 -4 -25 -10 0 -6 -27 -10 -60 -10 -33 0 -60
4 -60 10 0 16 -32 12 -44 -6 -14 -18 -126 -36 -126 -20 0 6 -4 17 -9 25 -8 12
-12 12 -25 -2 -9 -8 -16 -19 -16 -24 0 -5 -25 -8 -55 -9 -39 0 -55 4 -55 13 0
20 -34 15 -50 -7 -11 -16 -26 -20 -68 -20 -49 0 -54 2 -49 20 6 25 -10 26 -32
2 -9 -11 -32 -21 -52 -25 -28 -4 -40 -1 -53 15 -18 20 -18 20 -45 -6 -15 -14
-31 -23 -35 -19 -4 5 -31 8 -59 8 -49 0 -52 1 -49 25 2 19 0 22 -10 12 -6 -6
-23 -12 -36 -12 -13 0 -20 -4 -17 -10 10 -16 -11 -12 -25 5 -10 11 -9 18 4 30
39 39 3 48 -42 10 -26 -22 -31 -23 -42 -10 -9 11 -9 19 -2 28 6 7 10 26 9 42
-2 22 -9 31 -27 36 -25 7 -25 7 3 8 16 1 38 -4 49 -10 28 -15 47 4 25 25 -9 9
-23 16 -32 16 -12 0 -15 6 -10 20 5 17 2 20 -25 20 -18 0 -29 4 -25 10 3 6 2
10 -4 10 -20 0 -61 48 -61 71 0 17 -3 20 -9 11 -7 -11 -9 -11 -14 2 -5 12 -14
14 -39 9 -18 -3 -39 -11 -46 -16 -10 -8 -16 -7 -22 2 -4 8 -13 10 -19 7 -6 -4
-16 -4 -22 -1 -20 13 22 45 58 45 20 0 32 4 28 10 -3 6 -15 10 -26 10 -11 0
-17 5 -14 10 3 6 -3 10 -15 10 -17 0 -20 -4 -15 -20 5 -16 2 -20 -17 -20 -24
0 -48 16 -48 32 0 4 7 8 15 8 16 0 21 15 7 24 -12 7 -37 -18 -37 -38 0 -11 -5
-21 -11 -23 -7 -2 -11 8 -10 27 1 23 6 30 21 30 19 1 18 2 -4 21 -17 14 -34
19 -58 16 -31 -5 -32 -3 -26 21 4 16 2 23 -5 18 -6 -3 -13 -2 -17 4 -10 17
-71 11 -88 -8 -19 -21 -23 -52 -6 -52 5 0 7 -5 4 -10 -4 -7 -12 -7 -24 0 -10
5 -21 6 -25 3 -3 -3 -6 1 -6 10 0 9 -7 17 -15 17 -8 0 -19 8 -24 19 -8 13 -18
17 -38 13 -36 -7 -74 -32 -67 -43 7 -12 51 -11 59 1 3 6 15 10 26 10 21 0 21
0 1 -27 -18 -24 -27 -28 -81 -29 -67 -2 -79 11 -38 39 l22 16 -27 -2 c-16 -1
-28 -5 -28 -10 0 -4 -4 -5 -10 -2 -5 3 -10 1 -10 -4 0 -6 5 -11 10 -11 6 0 10
-11 10 -24 0 -20 -5 -24 -25 -22 -13 2 -31 8 -38 14 -7 6 -23 9 -35 5 -13 -3
-23 -1 -23 6 -1 6 -3 16 -4 21 -1 6 -3 18 -5 28 -1 10 -3 12 -7 5 -2 -7 -13
-13 -24 -13 -19 0 -35 38 -26 62 3 8 6 5 6 -6 1 -20 1 -20 16 0 8 10 14 13 13
5 -2 -7 7 -15 20 -17 12 -2 22 1 22 6 0 6 11 10 25 10 14 0 26 5 26 10 1 6 2
15 3 20 0 6 8 15 16 20 22 14 -25 13 -51 0 -16 -9 -19 -7 -19 10 0 23 -37 28
-71 9 -13 -6 -25 -7 -32 -1 -17 13 -106 22 -113 11 -3 -5 -12 -9 -21 -9 -13 0
-12 4 5 19 22 19 29 41 13 41 -19 0 -79 -30 -83 -42 -4 -10 -8 -10 -21 1 -9 7
-24 11 -32 7 -24 -9 -75 5 -75 20 0 8 8 14 17 14 14 0 14 3 5 12 -9 9 -15 10
-20 2 -14 -21 -68 -32 -113 -23 -60 11 -61 11 -87 -11 -20 -17 -21 -22 -10
-41 10 -17 10 -23 0 -26 -6 -3 -9 -10 -6 -16 3 -7 -4 -1 -16 13 -12 14 -19 19
-15 13 4 -9 -4 -13 -29 -13 l-36 0 30 31 c16 18 30 36 30 40 0 12 -33 -3 -68
-31 -35 -27 -40 -40 -18 -40 8 0 17 -4 20 -8 3 -5 -18 -9 -46 -9 -28 -1 -54
-5 -57 -10 -11 -15 -53 -34 -59 -27 -4 4 -1 9 6 11 23 9 12 23 -18 23 -16 0
-30 -4 -30 -10 0 -5 -7 -10 -15 -10 -8 0 -15 -4 -15 -10 0 -5 -11 -10 -25 -10
-20 0 -27 6 -31 30 -5 21 -12 30 -25 30 -11 0 -19 -4 -19 -10 0 -5 -5 -10 -11
-10 -14 0 -39 -26 -39 -40 0 -7 8 -10 20 -7 11 3 20 1 20 -3 0 -5 -18 -11 -39
-15 -22 -4 -45 -13 -52 -21 -15 -18 -29 -18 -29 1 0 21 -39 13 -59 -11 -9 -10
-25 -18 -37 -16 -11 2 -27 -4 -34 -14 -12 -14 -12 -18 5 -30 16 -12 16 -14 2
-14 -9 0 -20 7 -25 16 -7 13 -11 14 -17 4 -4 -7 -2 -16 6 -21 7 -4 10 -11 6
-15 -4 -4 -13 0 -20 10 -15 21 -49 12 -40 -11 4 -11 2 -14 -5 -9 -7 4 -15 1
-18 -8 -3 -8 -12 -17 -19 -20 -9 -3 -12 0 -8 10 8 21 -20 17 -45 -6 -12 -11
-26 -20 -32 -20 -6 0 -8 -4 -5 -10 3 -5 1 -10 -4 -10 -6 0 -11 11 -11 25 0 35
-21 31 -57 -10 -32 -36 -73 -47 -73 -20 0 21 -13 19 -30 -5 -16 -23 -30 -26
-30 -7 0 7 9 18 20 25 11 7 20 18 20 25 0 27 -32 12 -84 -40 -53 -52 -86 -67
-86 -39 0 8 9 21 21 29 14 11 17 16 7 19 -10 4 -9 8 4 21 9 9 21 17 26 17 5 0
15 6 21 13 6 8 23 12 39 9 18 -2 35 2 45 12 8 9 21 16 27 16 6 0 8 5 5 10 -3
6 5 10 19 10 14 0 28 -4 31 -10 3 -5 0 -10 -8 -10 -16 0 -32 -29 -21 -39 4 -3
9 0 11 7 3 6 13 12 24 12 21 0 69 42 69 60 0 6 5 8 10 5 6 -3 10 1 10 10 0 9
9 25 20 37 22 24 18 38 -12 38 -20 0 -58 34 -58 52 0 4 -15 8 -34 8 -22 0 -40
7 -48 18 -13 18 -76 49 -90 44 -5 -1 -8 1 -8 6 0 4 -20 16 -45 27 -25 11 -45
23 -45 28 0 4 -21 7 -47 7 -44 0 -46 1 -27 16 13 11 15 17 6 20 -6 3 -10 10
-6 15 4 7 -80 15 -109 10 -5 -1 -5 8 -2 20 5 14 4 19 -4 15 -6 -4 -9 -2 -5 7
3 10 -17 18 -78 32 -48 11 -90 27 -99 37 -12 13 -31 18 -68 18 -39 0 -51 3
-51 16 0 8 5 12 10 9 6 -3 10 -1 10 4 0 10 -29 16 -52 12 -5 0 -8 3 -8 7 0 5
-19 15 -42 22 -24 7 -45 16 -48 20 -3 4 -17 10 -32 14 -22 5 -28 3 -28 -9z
m457 -191 c-3 -3 -12 -4 -19 -1 -8 3 -5 6 6 6 11 1 17 -2 13 -5z m1847 -269
c-4 -8 -12 -15 -20 -15 -20 0 -17 18 4 23 9 3 18 5 19 6 1 0 0 -6 -3 -14z
m-794 -7 c0 -4 -9 -8 -20 -8 -11 0 -20 4 -20 9 0 6 9 9 20 8 11 -1 20 -5 20
-9z m474 -30 c-8 -12 -34 11 -34 28 0 11 4 10 19 -3 11 -9 18 -20 15 -25z
m486 -14 c0 -7 -13 -22 -30 -34 -16 -12 -30 -26 -30 -31 0 -5 14 -9 30 -9 17
0 30 -4 30 -10 0 -5 -7 -10 -16 -10 -25 0 -54 19 -54 36 0 10 -6 14 -14 11 -8
-3 -16 2 -19 14 -3 10 -1 17 4 13 5 -3 9 3 9 13 0 10 12 25 28 34 24 14 29 14
45 1 9 -8 17 -21 17 -28z m-694 24 c4 -7 3 -8 -4 -4 -7 4 -12 2 -12 -4 0 -6
-7 -19 -17 -28 -12 -13 -15 -13 -10 -2 4 8 10 23 13 33 7 20 20 22 30 5z m158
-9 c-3 -6 -17 -9 -30 -6 -20 3 -22 2 -13 -9 11 -13 9 -15 -8 -13 -3 0 -10 -6
-15 -15 -5 -8 -15 -13 -23 -10 -8 4 -15 1 -15 -4 0 -6 -9 -10 -20 -9 -11 1
-20 4 -20 7 0 3 9 12 20 20 11 8 20 20 20 28 0 7 4 11 9 7 5 -3 12 -1 16 5 3
5 24 10 46 10 27 0 38 -4 33 -11z m1069 -16 c-7 -2 -21 -2 -30 0 -10 3 -4 5
12 5 17 0 24 -2 18 -5z m-1478 -13 c3 -5 1 -10 -4 -10 -6 0 -11 5 -11 10 0 6
2 10 4 10 3 0 8 -4 11 -10z m405 0 c0 -5 -4 -10 -10 -10 -5 0 -10 5 -10 10 0
6 5 10 10 10 6 0 10 -4 10 -10z m1028 -43 c-11 -21 -11 -21 -18 -2 -9 25 -4
36 15 29 12 -5 12 -10 3 -27z m-833 13 c-3 -5 -12 -7 -20 -3 -21 7 -19 13 6
13 11 0 18 -4 14 -10z m401 -16 c-3 -9 2 -14 14 -14 11 0 20 -4 20 -10 0 -5
-5 -10 -11 -10 -5 0 -7 -6 -3 -12 6 -10 5 -10 -7 -1 -15 12 -19 13 -45 13 -8
0 -12 5 -9 10 3 6 1 10 -4 10 -6 0 -11 5 -11 10 0 6 12 10 26 10 16 0 23 4 18
12 -5 7 -3 8 5 4 7 -5 10 -14 7 -22z m-1581 -4 c-3 -5 -10 -10 -16 -10 -5 0
-9 5 -9 10 0 6 7 10 16 10 8 0 12 -4 9 -10z m1994 -12 c11 -15 10 -17 -7 -15
-13 1 -18 7 -14 19 2 11 5 17 6 16 1 -2 7 -11 15 -20z m-549 -8 c0 -5 -9 -10
-20 -10 -11 0 -20 5 -20 10 0 6 9 10 20 10 11 0 20 -4 20 -10z m230 6 c0 -11
-19 -15 -25 -6 -3 5 1 10 9 10 9 0 16 -2 16 -4z m-1473 -38 c-3 -8 -6 -5 -6 6
-1 11 2 17 5 13 3 -3 4 -12 1 -19z m1548 12 c3 -5 1 -10 -4 -10 -6 0 -11 5
-11 10 0 6 2 10 4 10 3 0 8 -4 11 -10z m-1355 -20 c0 -5 -2 -10 -4 -10 -3 0
-8 5 -11 10 -3 6 -1 10 4 10 6 0 11 -4 11 -10z m1504 -2 c-7 -11 -34 -10 -34
1 0 6 9 9 19 8 11 0 17 -5 15 -9z m-1139 -38 c-3 -5 -11 -10 -16 -10 -6 0 -7
5 -4 10 3 6 11 10 16 10 6 0 7 -4 4 -10z m1635 -30 c0 -5 -4 -10 -10 -10 -5 0
-10 5 -10 10 0 6 5 10 10 10 6 0 10 -4 10 -10z m-3431 -146 c-7 -8 -6 -14 1
-19 6 -3 8 -11 5 -16 -4 -5 -13 -2 -22 7 -13 13 -14 19 -3 40 10 17 16 21 21
12 4 -7 3 -18 -2 -24z m3516 -36 c-3 -8 -12 -15 -20 -15 -12 0 -11 4 3 17 20
20 25 19 17 -2z m-3484 -21 c-1 -12 -15 -9 -19 4 -3 6 1 10 8 8 6 -3 11 -8 11
-12z m337 -29 c-5 -14 -48 -31 -48 -18 0 6 7 10 15 10 8 0 15 5 15 10 0 6 5
10 11 10 6 0 9 -5 7 -12z m-294 -193 c-4 -8 -8 -15 -10 -15 -2 0 -4 7 -4 15 0
8 4 15 10 15 5 0 7 -7 4 -15z m-74 -77 c0 -27 -45 -86 -56 -75 -5 4 -4 11 1
15 6 4 19 24 30 45 23 43 25 45 25 15z m-68 -100 c-7 -7 -12 -22 -12 -35 0
-24 -23 -32 -36 -11 -4 7 -3 8 4 4 8 -5 12 2 12 19 0 14 4 24 9 20 5 -3 12 -1
16 5 3 5 9 10 13 10 3 0 1 -5 -6 -12z m5033 -98 c-3 -5 -1 -10 4 -10 6 0 11 4
11 8 0 4 9 8 20 9 11 1 20 -2 20 -8 0 -5 -5 -9 -11 -9 -5 0 -8 -4 -5 -8 3 -5
-15 -9 -39 -9 -37 0 -45 4 -45 19 0 13 7 18 26 18 14 0 23 -4 19 -10z m-3785
-41 c0 -8 5 -8 15 1 13 10 15 9 15 -9 0 -11 -4 -21 -9 -21 -5 0 -16 -3 -24 -6
-15 -5 -31 21 -21 37 7 13 24 11 24 -2z m2023 -6 c-4 -10 -13 -29 -21 -43 -13
-23 -13 -23 -9 -2 3 15 0 22 -9 22 -16 0 -16 2 -8 24 3 9 17 16 30 16 18 0 22
-4 17 -17z m-203 -13 c0 -5 -2 -10 -4 -10 -3 0 -8 5 -11 10 -3 6 -1 10 4 10 6
0 11 -4 11 -10z m-1080 -23 c0 -7 -9 -30 -20 -51 -10 -22 -17 -43 -14 -47 3
-5 -2 -9 -11 -9 -12 0 -15 -5 -11 -16 4 -12 2 -15 -9 -10 -10 3 -17 -3 -21
-19 -3 -13 -12 -26 -19 -29 -10 -4 -12 3 -8 30 5 29 3 34 -14 34 -20 0 -43
-36 -43 -66 0 -8 -4 -22 -9 -32 -14 -26 -24 -56 -22 -65 1 -5 -11 -7 -25 -5
-35 4 -39 36 -14 115 17 56 19 58 50 55 21 -3 30 0 26 7 -4 6 -3 11 3 11 6 0
13 11 17 24 3 13 11 23 17 23 7 -1 31 4 54 11 32 9 44 19 49 37 6 25 24 25 24
2z m1155 12 c11 -16 1 -19 -13 -3 -7 8 -8 14 -3 14 5 0 13 -5 16 -11z m216
-20 c8 -15 6 -19 -6 -19 -9 0 -13 -4 -10 -10 8 -13 -1 -13 -42 2 -42 15 -45
45 -5 50 36 5 51 -1 63 -23z m-1291 11 c0 -5 -8 -10 -17 -10 -15 0 -16 2 -3
10 19 12 20 12 20 0z m1158 -28 c2 -7 -2 -10 -12 -6 -9 3 -16 11 -16 16 0 13
23 5 28 -10z m-1728 -12 c0 -5 -5 -10 -11 -10 -5 0 -7 5 -4 10 3 6 8 10 11 10
2 0 4 -4 4 -10z m49 1 c9 -6 10 -10 2 -16 -16 -9 -44 2 -36 15 8 12 16 12 34
1z m1578 -13 c-3 -8 -6 -5 -6 6 -1 11 2 17 5 13 3 -3 4 -12 1 -19z m313 12
c10 -6 11 -12 5 -19 -14 -13 -44 -18 -42 -6 1 6 6 9 11 7 5 -2 6 4 3 13 -7 17
1 19 23 5z m-3560 -47 c-1 -24 -2 -26 -11 -10 -5 9 -7 22 -4 27 10 17 15 11
15 -17z m3385 7 c3 -6 -1 -7 -9 -4 -18 7 -21 14 -7 14 6 0 13 -4 16 -10z m-90
-10 c3 -5 -1 -10 -10 -10 -9 0 -13 5 -10 10 3 6 8 10 10 10 2 0 7 -4 10 -10z
m345 0 c0 -5 -7 -10 -16 -10 -8 0 -12 5 -9 10 3 6 10 10 16 10 5 0 9 -4 9 -10z
m-552 -21 c2 -5 21 -9 43 -9 21 0 39 -4 39 -10 0 -5 14 -10 30 -10 17 0 30 -4
30 -10 0 -5 7 -10 15 -10 8 0 36 -12 62 -28 26 -15 65 -36 86 -47 20 -11 37
-23 37 -28 0 -4 5 -5 10 -2 6 3 10 -1 10 -9 0 -9 9 -16 20 -16 11 0 20 -4 20
-10 0 -5 7 -10 15 -10 8 0 15 -3 15 -8 0 -4 18 -18 40 -32 22 -14 40 -27 40
-30 0 -12 68 -80 79 -80 7 0 9 -4 6 -10 -3 -5 -1 -10 5 -10 11 0 120 -105 120
-115 0 -5 8 -15 66 -78 11 -12 27 -37 35 -55 7 -17 17 -32 21 -32 5 0 8 -9 8
-20 0 -11 5 -20 10 -20 6 0 10 -9 10 -20 0 -11 5 -20 10 -20 6 0 10 -9 10 -20
0 -11 5 -20 10 -20 6 0 10 -11 10 -25 0 -14 5 -25 10 -25 6 0 10 -7 10 -16 0
-8 7 -22 15 -30 8 -9 15 -24 15 -35 0 -10 5 -19 10 -19 6 0 10 -8 10 -18 0
-10 3 -22 7 -26 14 -13 33 -82 33 -118 0 -21 5 -38 10 -38 6 0 10 -24 10 -54
0 -30 5 -58 10 -61 6 -4 10 -78 10 -191 0 -116 -4 -184 -10 -184 -6 0 -10 -29
-10 -66 0 -41 -4 -63 -10 -59 -6 4 -10 -12 -10 -39 0 -25 -4 -46 -10 -46 -5 0
-10 -18 -10 -40 0 -22 -4 -40 -10 -40 -5 0 -10 -9 -10 -19 0 -11 -4 -23 -10
-26 -5 -3 -10 -15 -10 -25 0 -10 -6 -25 -13 -32 -7 -7 -20 -27 -27 -45 -8 -17
-18 -29 -22 -27 -4 3 -8 -4 -8 -15 0 -12 -4 -21 -10 -21 -5 0 -10 -7 -10 -15
0 -8 -4 -15 -9 -15 -5 0 -14 -13 -21 -30 -7 -16 -16 -30 -21 -30 -4 0 -11 -10
-14 -21 -9 -27 -258 -279 -277 -279 -7 0 -20 -9 -28 -20 -8 -11 -22 -20 -32
-20 -10 0 -18 -4 -18 -10 0 -5 -7 -10 -15 -10 -8 0 -15 -7 -15 -17 0 -9 -3
-14 -6 -10 -4 3 -21 -4 -38 -17 -17 -13 -46 -29 -63 -37 -18 -8 -33 -16 -33
-20 0 -3 -16 -11 -35 -19 -19 -8 -35 -17 -35 -22 0 -4 -9 -8 -20 -8 -11 0 -20
-4 -20 -10 0 -5 -9 -10 -20 -10 -11 0 -20 -4 -20 -9 0 -10 -101 -49 -163 -64
-151 -34 -559 -39 -632 -7 -20 9 -44 14 -125 30 -68 13 -130 33 -130 42 0 4
-9 8 -20 8 -11 0 -20 5 -20 10 0 6 -12 10 -26 10 -14 0 -23 4 -19 10 3 6 -3
10 -14 10 -11 0 -23 5 -26 10 -3 6 -13 10 -21 10 -9 0 -22 6 -29 13 -32 28
-45 37 -45 32 0 -5 -24 14 -68 53 -14 12 -22 22 -18 22 4 0 -27 34 -69 75 -41
41 -75 82 -75 90 0 8 -4 15 -10 15 -5 0 -10 9 -10 20 0 11 -4 20 -10 20 -5 0
-10 7 -10 15 0 8 -4 15 -10 15 -5 0 -10 9 -10 20 0 11 -4 20 -8 20 -14 0 -32
48 -32 82 0 19 -8 38 -22 49 -14 13 -16 19 -7 19 9 0 10 3 3 8 -12 7 -47 103
-60 162 -10 48 -5 507 7 537 5 13 9 46 9 73 0 27 4 59 10 72 10 24 30 169 37
276 3 34 9 62 14 62 5 0 9 18 9 40 0 22 5 40 10 40 6 0 10 11 10 25 0 14 5 25
10 25 6 0 10 9 10 20 0 11 5 20 10 20 6 0 10 9 10 20 0 11 5 20 10 20 6 0 10
9 10 20 0 11 5 20 10 20 6 0 10 6 10 13 0 7 11 29 25 49 14 20 25 44 25 53 0
9 5 13 10 10 6 -3 10 3 10 15 0 12 5 18 10 15 6 -4 10 5 10 19 0 14 5 26 10
26 6 0 10 5 10 11 0 6 6 16 13 23 6 7 21 25 32 39 11 15 26 27 33 27 7 0 10 5
7 10 -3 6 -1 10 5 10 6 0 26 15 45 33 68 63 81 74 113 88 18 7 32 17 32 21 0
5 10 8 22 8 12 0 18 3 15 6 -4 4 37 29 91 57 53 27 101 53 106 58 6 5 20 9 33
9 13 0 23 5 23 10 0 6 16 10 35 10 19 0 35 5 35 10 0 6 18 10 41 10 24 0 38 4
34 10 -4 6 23 10 74 10 46 0 81 4 81 10 0 18 381 17 388 -1z m499 -45 c-3 -3
-12 -4 -19 -1 -8 3 -5 6 6 6 11 1 17 -2 13 -5z m-1817 -33 c0 -11 -9 -23 -21
-26 -15 -5 -19 -13 -15 -28 4 -17 -1 -25 -21 -34 -33 -16 -43 -16 -43 -3 0 6
7 10 16 10 13 0 14 3 5 13 -13 16 -5 28 15 20 9 -3 14 2 14 15 0 12 10 28 22
36 28 20 28 20 28 -3z m1687 13 c-3 -3 -12 -4 -19 -1 -8 3 -5 6 6 6 11 1 17
-2 13 -5z m-2078 -46 c0 -18 -3 -27 -6 -19 -5 11 -7 11 -14 0 -7 -11 -9 -9 -9
7 0 17 16 44 27 44 2 0 3 -15 2 -32z m248 -14 c-3 -3 -12 -4 -19 -1 -8 3 -5 6
6 6 11 1 17 -2 13 -5z m-117 -30 c0 -8 -4 -13 -9 -9 -5 3 -13 1 -16 -5 -5 -8
-11 -7 -21 1 -20 17 -17 27 9 31 28 5 37 1 37 -18z m100 -4 c13 -9 13 -11 0
-20 -22 -15 -30 -12 -30 10 0 22 8 25 30 10z m-136 -64 c-3 -9 -14 -16 -23
-15 -9 0 -11 3 -5 5 6 3 9 17 6 32 -5 25 -4 26 11 10 9 -9 14 -24 11 -32z
m340 32 c5 -10 7 -10 12 0 3 6 12 12 19 12 8 0 17 -6 21 -12 4 -7 4 -10 0 -6
-10 8 -56 -31 -56 -48 0 -14 -28 -27 -41 -18 -8 5 -5 33 7 72 2 6 10 12 18 12
8 0 17 -6 20 -12z m196 2 c0 -5 -5 -10 -11 -10 -5 0 -7 5 -4 10 3 6 8 10 11
10 2 0 4 -4 4 -10z m2330 -40 c0 -36 -4 -37 -35 -6 -25 25 -20 34 18 35 12 1
17 -7 17 -29z m-2606 -79 c-9 -17 -17 -31 -20 -31 -2 0 -4 23 -4 52 l0 52 20
-21 c18 -20 18 -24 4 -52z m-349 40 c3 -5 1 -12 -5 -16 -5 -3 -10 1 -10 9 0
18 6 21 15 7z m65 -7 c0 -21 -18 -54 -30 -54 -6 0 -10 9 -10 20 0 11 5 20 10
20 6 0 10 7 10 15 0 8 5 15 10 15 6 0 10 -7 10 -16z m131 -25 c-30 -25 -51
-25 -23 0 12 10 22 24 22 32 0 10 2 11 13 0 10 -10 7 -16 -12 -32z m79 -3 c0
-25 -4 -48 -10 -51 -6 -3 -10 4 -10 17 -1 21 -2 22 -14 6 -12 -16 -36 -25 -36
-14 0 18 15 36 31 36 14 0 19 7 19 25 0 14 5 25 10 25 6 0 10 -20 10 -44z
m2145 -24 c-3 -3 -11 0 -18 7 -9 10 -8 11 6 5 10 -3 15 -9 12 -12z m-2225 -52
c0 -5 -4 -10 -10 -10 -5 0 -10 5 -10 10 0 6 5 10 10 10 6 0 10 -4 10 -10z
m2797 -132 c-2 -13 -4 -5 -4 17 -1 22 1 32 4 23 2 -10 2 -28 0 -40z m-2810
-370 c-3 -8 -6 -5 -6 6 -1 11 2 17 5 13 3 -3 4 -12 1 -19z m-15 -82 c-9 -18
-11 -16 -11 19 0 33 1 37 10 21 8 -12 8 -25 1 -40z m-135 -203 c-3 -10 -5 -4
-5 12 0 17 2 24 5 18 2 -7 2 -21 0 -30z m0 -85 c-3 -8 -6 -5 -6 6 -1 11 2 17
5 13 3 -3 4 -12 1 -19z m3093 -147 c0 -6 -4 -13 -10 -16 -5 -3 -10 1 -10 9 0
9 5 16 10 16 6 0 10 -4 10 -9z m-3023 -43 c-3 -7 -5 -2 -5 12 0 14 2 19 5 13
2 -7 2 -19 0 -25z m3093 -68 c-8 -5 -17 -7 -19 -4 -3 3 1 9 9 14 8 5 17 7 19
4 3 -3 -1 -9 -9 -14z m-350 -550 c0 -5 -2 -10 -4 -10 -3 0 -8 5 -11 10 -3 6
-1 10 4 10 6 0 11 -4 11 -10z m-2807 -432 c12 -6 34 -24 49 -40 14 -15 29 -28
33 -28 4 0 31 -24 61 -52 29 -29 62 -60 73 -68 11 -9 21 -22 23 -30 2 -8 7
-18 12 -22 5 -3 3 -20 -7 -39 -8 -18 -13 -37 -11 -41 8 -12 34 -10 34 3 0 22
29 -12 35 -42 4 -16 13 -29 22 -29 8 0 17 -9 20 -20 3 -11 9 -20 14 -20 5 0 9
-11 9 -24 0 -42 14 -36 39 14 20 41 22 52 12 64 -7 9 -18 13 -25 9 -6 -3 -5 0
3 8 10 11 15 11 18 2 3 -7 18 -13 34 -13 16 0 29 -4 29 -10 0 -5 9 -10 20 -10
11 0 20 -4 20 -10 0 -5 9 -10 20 -10 11 0 20 -5 20 -11 0 -5 -4 -7 -10 -4 -5
3 -10 -3 -10 -14 0 -11 -4 -23 -10 -26 -5 -3 -10 -17 -10 -31 0 -13 -4 -24 -8
-24 -5 0 -13 -10 -19 -22 -40 -83 -54 -123 -50 -140 3 -10 1 -21 -4 -24 -5 -3
-9 -14 -9 -25 0 -10 -4 -19 -10 -19 -5 0 -10 -7 -10 -15 0 -8 -4 -15 -10 -15
-5 0 -10 -7 -10 -15 0 -8 -3 -15 -8 -15 -4 0 -14 -14 -21 -32 -16 -34 -31 -53
-98 -121 -75 -75 -92 -87 -118 -87 -14 0 -25 -4 -25 -10 0 -5 -11 -10 -25 -10
-14 0 -25 -4 -25 -10 0 -5 -13 -10 -29 -10 -17 0 -32 -4 -36 -10 -3 -6 -15 -6
-30 0 -16 6 -27 6 -31 -1 -4 -7 -10 -6 -19 1 -10 8 -14 7 -18 -2 -3 -7 -6 -3
-6 10 -1 15 5 22 17 22 10 0 24 9 32 20 8 11 18 20 23 20 12 0 37 27 37 39 0
6 5 11 10 11 17 0 11 48 -7 59 -10 6 -14 11 -10 11 12 0 -20 30 -32 30 -6 0
-11 5 -11 10 0 6 -7 10 -15 10 -8 0 -15 -4 -15 -10 0 -5 -10 -10 -22 -11 -13
0 -17 -3 -10 -6 10 -4 9 -8 -5 -19 -17 -13 -17 -13 5 -14 12 0 22 -2 22 -4 0
-2 3 -11 6 -19 3 -10 -3 -20 -15 -27 -17 -9 -25 -7 -43 10 -12 11 -26 20 -30
20 -5 0 -7 4 -3 9 3 5 1 12 -4 15 -5 4 -5 21 0 43 12 52 4 70 -29 69 -23 -1
-27 -6 -28 -31 -1 -16 -4 -37 -7 -45 -19 -54 -25 -81 -20 -99 4 -16 1 -19 -16
-14 -17 4 -21 13 -21 44 0 21 5 41 10 44 6 3 10 16 10 27 0 12 7 29 16 39 12
13 13 22 5 37 -9 17 -18 19 -53 15 -56 -7 -72 -23 -70 -70 1 -21 -3 -45 -8
-53 -6 -10 -10 -11 -10 -2 0 6 -6 12 -13 12 -9 0 -13 19 -15 58 -2 45 3 70 25
117 16 33 31 62 36 63 4 2 7 12 7 22 0 10 5 22 10 25 6 3 10 26 10 51 0 24 5
44 10 44 6 0 10 21 10 48 0 34 3 43 10 32 8 -12 10 -11 10 8 0 12 -5 22 -11
22 -5 0 -7 5 -4 10 4 6 -14 10 -47 10 -30 0 -58 4 -63 9 -6 5 -32 11 -60 14
-67 6 -135 25 -165 45 -14 9 -34 15 -44 13 -23 -3 -96 28 -96 42 0 5 -9 7 -20
4 -11 -3 -27 1 -34 9 -8 8 -21 14 -28 14 -8 0 -20 9 -28 20 -8 11 -22 20 -32
20 -10 0 -35 16 -55 35 -20 19 -41 35 -45 35 -4 0 -8 10 -8 23 0 12 4 17 8 12
4 -6 28 -21 53 -33 25 -13 58 -34 72 -48 14 -13 33 -24 42 -24 8 0 15 -4 15
-10 0 -5 9 -10 20 -10 11 0 20 -4 20 -10 0 -5 9 -10 20 -10 11 0 20 -3 20 -8
0 -8 42 -27 83 -36 15 -4 27 -11 27 -16 0 -6 15 -10 34 -10 19 0 37 -4 40 -9
8 -13 67 -22 174 -28 l92 -4 0 45 c0 25 5 46 10 46 6 0 10 7 10 16 0 8 7 22
15 30 8 9 15 23 15 32 0 22 103 132 124 132 9 0 16 5 16 10 0 6 7 10 15 10 8
0 15 4 15 8 0 4 15 13 33 19 17 5 33 11 35 12 2 0 13 -4 25 -11z m-1483 -268
c0 -5 -5 -10 -11 -10 -5 0 -7 5 -4 10 3 6 8 10 11 10 2 0 4 -4 4 -10z m1827
-46 c-3 -3 -12 -4 -19 -1 -8 3 -5 6 6 6 11 1 17 -2 13 -5z m43 -24 c0 -5 -4
-10 -10 -10 -5 0 -10 5 -10 10 0 6 5 10 10 10 6 0 10 -4 10 -10z m525 0 c-27
-12 -35 -12 -35 0 0 6 12 10 28 9 24 0 25 -1 7 -9z m95 -20 c0 -5 -2 -10 -4
-10 -3 0 -8 5 -11 10 -3 6 -1 10 4 10 6 0 11 -4 11 -10z m60 1 c0 -15 -16 -22
-34 -15 -25 9 -19 24 9 24 14 0 25 -4 25 -9z m-2680 -61 c0 -5 -2 -10 -4 -10
-3 0 -8 5 -11 10 -3 6 -1 10 4 10 6 0 11 -4 11 -10z m4347 -222 c-3 -7 -5 -2
-5 12 0 14 2 19 5 13 2 -7 2 -19 0 -25z m-17 -36 c0 -13 -28 -47 -34 -42 -10
10 6 50 20 50 8 0 14 -4 14 -8z m-4650 -237 c0 -8 -2 -15 -4 -15 -2 0 -6 7
-10 15 -3 8 -1 15 4 15 6 0 10 -7 10 -15z m3677 -387 c-3 -8 -6 -5 -6 6 -1 11
2 17 5 13 3 -3 4 -12 1 -19z m104 -111 c-8 -8 -11 -5 -11 9 0 27 14 41 18 19
2 -9 -1 -22 -7 -28z m-163 -12 c-3 -3 -9 2 -12 12 -6 14 -5 15 5 6 7 -7 10
-15 7 -18z m99 -27 c-3 -8 -6 -5 -6 6 -1 11 2 17 5 13 3 -3 4 -12 1 -19z m50
-45 c0 -9 -4 -10 -14 -2 -7 6 -13 12 -13 14 0 1 6 2 13 2 8 0 14 -6 14 -14z
m163 -14 c0 -12 -8 -23 -20 -26 -11 -3 -17 -9 -14 -14 3 -5 3 -9 0 -9 -14 0
-14 20 0 34 12 12 12 16 2 17 -10 0 10 13 30 18 1 1 2 -8 2 -20z m-75 -19 c-3
-5 -11 -10 -16 -10 -6 0 -7 5 -4 10 3 6 11 10 16 10 6 0 7 -4 4 -10z m-76 -37
c-1 -37 -1 -37 -8 -8 -7 28 -5 45 5 45 2 0 3 -17 3 -37z m168 -30 c-3 -10 -5
-4 -5 12 0 17 2 24 5 18 2 -7 2 -21 0 -30z m320 -15 c-3 -8 -6 -5 -6 6 -1 11
2 17 5 13 3 -3 4 -12 1 -19z m-464 -28 c3 -11 1 -20 -4 -20 -5 0 -9 9 -9 20 0
11 2 20 4 20 2 0 6 -9 9 -20z m-1578 -90 c3 -6 -1 -7 -9 -4 -18 7 -21 14 -7
14 6 0 13 -4 16 -10z m-1279 -14 c8 -8 14 -21 14 -28 0 -11 26 -36 62 -59 14
-9 -9 -49 -27 -49 -8 0 -15 -5 -15 -11 0 -6 -6 -9 -14 -6 -14 6 -36 -10 -36
-26 0 -5 8 -3 17 4 13 11 13 8 -3 -16 -19 -29 -19 -29 -22 -6 -2 13 5 32 17
45 22 24 29 52 9 40 -8 -5 -9 0 -6 14 4 15 2 22 -8 22 -8 0 -14 5 -14 11 0 5
-4 7 -10 4 -6 -4 -10 7 -10 24 0 17 -4 31 -10 31 -5 0 -10 5 -10 10 0 15 49
12 66 -4z m3268 -19 c6 -24 5 -26 -7 -16 -8 8 -12 22 -9 32 6 22 7 20 16 -16z
m36 -97 c0 -5 -4 -10 -10 -10 -5 0 -10 5 -10 10 0 6 5 10 10 10 6 0 10 -4 10
-10z m732 -38 c-18 -5 -31 9 -14 15 6 3 12 12 13 21 1 10 4 6 8 -8 5 -18 3
-26 -7 -28z m-3932 5 c0 -7 10 -24 22 -37 15 -16 18 -25 10 -28 -7 -2 -12 -8
-12 -13 0 -14 -40 -50 -49 -44 -5 3 -7 -4 -4 -15 3 -11 1 -20 -5 -20 -6 0 -12
-6 -15 -12 -2 -7 -3 -5 -2 5 2 9 0 17 -4 17 -4 0 -8 7 -8 15 0 8 4 15 9 15 4
0 6 14 3 30 -3 17 0 40 6 52 23 43 49 62 49 35z m2930 -31 c0 -3 -4 -8 -10
-11 -5 -3 -10 -1 -10 4 0 6 5 11 10 11 6 0 10 -2 10 -4z m420 -42 c0 -14 -4
-23 -9 -19 -11 6 -10 45 1 45 4 0 8 -12 8 -26z m207 -6 c-3 -7 -5 -2 -5 12 0
14 2 19 5 13 2 -7 2 -19 0 -25z m433 -8 c0 -5 -2 -10 -4 -10 -3 0 -8 5 -11 10
-3 6 -1 10 4 10 6 0 11 -4 11 -10z m-3930 -26 c0 -14 4 -23 9 -20 5 3 11 -4
14 -15 3 -12 10 -18 16 -15 15 9 26 -41 13 -57 -8 -9 -6 -16 9 -25 11 -7 24
-10 30 -6 7 4 8 -9 4 -36 -4 -27 -3 -40 4 -36 11 7 51 -45 51 -68 0 -9 5 -16
11 -16 6 0 9 -9 6 -20 -3 -13 0 -20 9 -20 9 0 14 -11 14 -31 0 -17 4 -28 10
-24 6 4 10 -5 10 -20 0 -18 4 -24 13 -19 7 5 7 1 -3 -12 -8 -10 -11 -16 -6
-12 5 4 18 -5 30 -20 11 -15 25 -33 31 -40 5 -7 18 -22 28 -33 9 -10 13 -19 7
-19 -5 0 -3 -21 5 -47 17 -57 17 -56 7 -49 -15 9 0 -58 16 -77 14 -16 14 -19
2 -27 -8 -5 -11 -12 -7 -16 8 -8 46 35 47 54 0 6 -4 12 -9 12 -17 0 -20 29 -5
45 14 13 11 19 -7 17 -4 -1 -5 8 -2 18 6 23 23 27 23 6 0 -7 15 -24 34 -37 22
-15 32 -28 28 -38 -7 -22 -69 -81 -76 -74 -5 6 -10 -39 -7 -59 0 -5 -5 -8 -12
-8 -9 0 -9 -2 1 -9 10 -6 4 -10 -19 -15 -18 -3 -37 -2 -42 3 -6 6 -1 8 14 5
19 -5 21 -3 9 5 -12 8 -12 15 -1 46 7 20 10 39 7 42 -3 4 -6 1 -6 -5 0 -7 -9
-12 -20 -12 -11 0 -20 -4 -20 -10 0 -5 -8 -10 -17 -9 -11 0 -13 3 -5 6 14 6
16 33 2 33 -14 0 -12 27 3 33 9 4 8 8 -3 16 -12 8 -16 6 -22 -12 -5 -19 -6
-18 -7 8 0 17 10 54 24 83 28 61 29 62 15 62 -15 0 -50 -33 -50 -47 0 -7 -7
-13 -15 -13 -9 0 -12 -6 -9 -15 4 -8 1 -15 -6 -15 -8 0 -10 9 -6 26 6 21 4 25
-8 21 -11 -4 -13 0 -10 19 3 17 0 24 -11 24 -8 0 -15 5 -15 10 0 6 5 10 10 10
6 0 10 14 10 30 0 17 5 30 10 30 6 0 10 7 10 15 0 18 -46 21 -53 3 -3 -8 -6
-6 -6 4 -1 11 -6 15 -16 11 -9 -3 -15 -2 -14 3 1 5 -1 21 -5 36 -6 20 -1 42
18 82 14 30 26 57 26 60 0 15 -24 4 -42 -19 -22 -28 -38 -32 -38 -9 0 8 -4 12
-10 9 -6 -4 -10 5 -10 19 0 14 -4 26 -10 26 -5 0 -10 12 -10 26 0 14 4 23 10
19 6 -4 10 8 10 29 0 19 3 36 8 39 4 2 0 2 -8 -1 -46 -14 -60 -14 -60 1 0 9
-10 23 -22 31 l-21 15 24 48 c39 78 59 93 59 47z m40 6 c0 -5 -2 -10 -4 -10
-3 0 -8 5 -11 10 -3 6 -1 10 4 10 6 0 11 -4 11 -10z m1360 -10 c0 -5 -4 -10
-10 -10 -5 0 -10 5 -10 10 0 6 5 10 10 10 6 0 10 -4 10 -10z m1910 -10 c0 -11
-8 -24 -17 -27 -10 -4 -21 -11 -25 -17 -5 -8 -8 -7 -8 1 0 10 36 57 48 62 1 1
2 -8 2 -19z m207 -12 c-3 -8 -6 -5 -6 6 -1 11 2 17 5 13 3 -3 4 -12 1 -19z
m-572 -18 c3 -5 -1 -10 -10 -10 -9 0 -13 5 -10 10 3 6 8 10 10 10 2 0 7 -4 10
-10z m-3125 -10 c0 -5 -2 -10 -4 -10 -3 0 -8 5 -11 10 -3 6 -1 10 4 10 6 0 11
-4 11 -10z m3260 -20 c0 -5 -2 -10 -4 -10 -3 0 -8 5 -11 10 -3 6 -1 10 4 10 6
0 11 -4 11 -10z m478 -17 c15 -32 16 -63 2 -63 -5 0 -10 11 -10 25 0 14 -4 25
-10 25 -5 0 -10 9 -10 20 0 28 13 25 28 -7z m-271 -15 c-3 -7 -5 -2 -5 12 0
14 2 19 5 13 2 -7 2 -19 0 -25z m53 -1 c0 -20 0 -20 -14 -2 -8 11 -12 23 -9
28 8 13 23 -3 23 -26z m644 1 c3 -13 2 -26 -3 -31 -10 -10 -24 9 -28 36 -4 25
24 21 31 -5z m-984 -13 c0 -8 -4 -15 -10 -15 -5 0 -10 7 -10 15 0 8 5 15 10
15 6 0 10 -7 10 -15z m100 -14 c0 -11 -4 -23 -10 -26 -6 -4 -10 5 -10 19 0 14
5 26 10 26 6 0 10 -9 10 -19z m207 -28 c-3 -10 -5 -4 -5 12 0 17 2 24 5 18 2
-7 2 -21 0 -30z m279 -20 c-11 -11 -19 6 -11 24 8 17 8 17 12 0 3 -10 2 -21
-1 -24z m-466 -14 c0 -10 -4 -19 -10 -19 -5 0 -10 12 -10 26 0 14 4 23 10 19
6 -3 10 -15 10 -26z m214 -10 c-2 -4 0 -10 6 -14 13 -8 3 -25 -13 -25 -7 0 -6
4 3 10 10 6 11 10 3 10 -7 0 -13 12 -13 28 0 20 3 23 9 12 6 -8 8 -17 5 -21z
m276 -9 c0 -11 -4 -20 -9 -20 -7 0 -8 17 -2 38 4 10 11 -2 11 -18z m-583 -12
c-3 -8 -6 -5 -6 6 -1 11 2 17 5 13 3 -3 4 -12 1 -19z m-42 -38 c8 0 16 -4 19
-9 8 -12 -27 -8 -36 4 -4 6 -7 17 -7 25 1 11 3 10 6 -2 2 -10 11 -18 18 -18z
m155 20 c0 -5 -5 -10 -11 -10 -5 0 -7 5 -4 10 3 6 8 10 11 10 2 0 4 -4 4 -10z
m487 -37 c-3 -10 -5 -4 -5 12 0 17 2 24 5 18 2 -7 2 -21 0 -30z m-470 -55 c-3
-8 -6 -5 -6 6 -1 11 2 17 5 13 3 -3 4 -12 1 -19z m85 -40 c-8 -8 -9 -4 -5 13
4 13 8 18 11 10 2 -7 -1 -18 -6 -23z m-235 -75 c-3 -10 -5 -4 -5 12 0 17 2 24
5 18 2 -7 2 -21 0 -30z m-2907 -53 c0 -11 -4 -20 -9 -20 -5 0 -7 9 -4 20 3 11
7 20 9 20 2 0 4 -9 4 -20z m1790 -30 c0 -5 -5 -10 -11 -10 -5 0 -7 5 -4 10 3
6 8 10 11 10 2 0 4 -4 4 -10z m1210 -10 c0 -5 -8 -10 -17 -10 -15 0 -16 2 -3
10 19 12 20 12 20 0z m-1443 -26 c-3 -3 -12 -4 -19 -1 -8 3 -5 6 6 6 11 1 17
-2 13 -5z m544 -37 c-10 -9 -11 -8 -5 6 3 10 9 15 12 12 3 -3 0 -11 -7 -18z
m1256 1 c-3 -8 -6 -5 -6 6 -1 11 2 17 5 13 3 -3 4 -12 1 -19z m-3607 -28 c0
-16 5 -30 10 -30 6 0 10 -20 10 -44 0 -26 5 -46 13 -49 6 -3 1 -6 -13 -6 -15
-1 -31 -6 -38 -13 -6 -6 -15 -8 -19 -3 -5 4 -2 10 5 12 19 7 16 93 -4 93 -11
0 -14 6 -8 23 16 52 44 63 44 17z m1613 -30 c-3 -11 -7 -20 -9 -20 -2 0 -4 9
-4 20 0 11 4 20 9 20 5 0 7 -9 4 -20z m1714 -76 c-3 -3 -12 -4 -19 -1 -8 3 -5
6 6 6 11 1 17 -2 13 -5z m-2676 -39 c7 -19 17 -35 21 -35 4 0 8 -18 8 -41 0
-24 -4 -38 -10 -34 -5 3 -10 0 -10 -8 0 -8 -9 -17 -20 -20 -11 -3 -18 -1 -14
4 8 13 -13 11 -35 -3 -15 -9 -23 -9 -35 2 -9 7 -14 15 -11 18 3 3 -2 16 -10
29 -15 22 -14 24 9 33 13 5 27 14 31 20 3 5 11 8 16 5 5 -4 9 3 9 15 0 20 18
49 32 50 4 0 12 -16 19 -35z m2656 -17 c-3 -7 -5 -2 -5 12 0 14 2 19 5 13 2
-7 2 -19 0 -25z m-2817 -128 c0 -13 -11 -13 -30 0 -12 8 -11 10 8 10 12 0 22
-4 22 -10z m3610 -70 c0 -18 -2 -19 -20 -8 -11 7 -20 16 -20 20 0 5 9 8 20 8
13 0 20 -7 20 -20z m-4695 -10 c3 -5 1 -10 -4 -10 -6 0 -11 5 -11 10 0 6 2 10
4 10 3 0 8 -4 11 -10z m4015 -27 c-1 -24 -2 -26 -11 -10 -5 9 -7 22 -4 27 10
17 15 11 15 -17z m697 -5 c-3 -8 -6 -5 -6 6 -1 11 2 17 5 13 3 -3 4 -12 1 -19z
m-1237 -148 c0 -5 -7 -10 -15 -10 -7 0 -19 -8 -24 -17 -6 -11 -11 -13 -11 -5
0 17 22 41 38 42 6 0 12 -4 12 -10z m-4030 -247 c0 -41 -3 -54 -10 -43 -17 26
-12 100 7 100 2 0 3 -26 3 -57z m70 -38 c0 -8 -4 -15 -10 -15 -5 0 -7 7 -4 15
4 8 8 15 10 15 2 0 4 -7 4 -15z m100 -25 c0 -5 -5 -10 -11 -10 -5 0 -7 5 -4
10 3 6 8 10 11 10 2 0 4 -4 4 -10z m-42 -212 c-2 -33 2 -53 10 -56 8 -2 12
-25 12 -65 0 -47 -3 -58 -12 -49 -22 22 -28 13 -28 -42 0 -30 -4 -58 -10 -61
-6 -4 -10 18 -10 59 0 37 4 66 10 66 6 0 10 38 10 93 0 82 4 107 17 107 2 0 2
-23 1 -52z m3899 -24 c-3 -3 -12 -4 -19 -1 -8 3 -5 6 6 6 11 1 17 -2 13 -5z
m223 -24 c0 -5 -7 -10 -15 -10 -8 0 -15 5 -15 10 0 6 7 10 15 10 8 0 15 -4 15
-10z m-4123 -282 c-3 -7 -5 -2 -5 12 0 14 2 19 5 13 2 -7 2 -19 0 -25z m-4
-45 c-8 -3 -13 -23 -13 -49 0 -28 4 -43 10 -39 6 4 10 -5 10 -19 0 -30 -8 -33
-26 -8 -29 38 -10 163 21 131 7 -8 6 -13 -2 -16z m3637 -482 c0 -6 -17 -7 -37
-4 -52 8 -54 13 -5 13 23 0 42 -4 42 -9z m90 -21 c0 -5 -11 -9 -25 -8 -14 1
-25 6 -25 10 0 4 11 8 25 8 14 0 25 -4 25 -10z m85 -20 c-3 -5 -22 -10 -41
-10 -19 0 -34 5 -34 10 0 6 18 10 41 10 24 0 38 -4 34 -10z m85 -20 c0 -5 12
-10 26 -10 14 0 32 -7 40 -15 9 -8 27 -15 40 -15 14 0 23 -4 20 -8 -7 -11 -66
-3 -66 9 0 5 -13 9 -30 9 -16 0 -30 5 -30 10 0 6 -15 10 -34 10 -19 0 -38 5
-41 10 -4 6 10 10 34 10 23 0 41 -4 41 -10z m190 -66 c0 -2 -14 -4 -31 -4 -16
0 -28 4 -25 9 5 8 56 3 56 -5z m-1799 -71 c10 -11 10 -14 2 -9 -7 4 -13 2 -13
-3 0 -6 5 -11 10 -11 6 0 10 -4 10 -10 0 -5 -7 -10 -15 -10 -11 0 -15 9 -13
30 3 35 2 35 19 13z m29 -37 c0 -15 -7 -27 -19 -31 -13 -4 -17 -12 -14 -30 3
-13 10 -22 17 -19 7 3 18 -7 24 -21 13 -29 5 -33 -14 -7 -10 14 -15 15 -26 4
-11 -11 -10 -12 5 -7 19 8 24 -10 5 -18 -7 -3 1 -6 17 -8 30 -2 30 -2 -5 -8
-28 -5 -40 -2 -59 16 -13 13 -31 23 -40 23 -14 0 -14 2 -1 10 8 5 11 12 7 16
-4 4 -18 -5 -33 -21 l-25 -27 23 -26 23 -25 -30 19 c-27 17 -28 18 -22 1 7
-19 -13 -22 -48 -7 -17 7 -17 9 -2 9 18 1 25 21 7 21 -5 0 -10 5 -10 12 0 9 3
9 12 0 15 -15 32 -16 23 -2 -3 6 -1 10 4 10 6 0 11 5 11 10 0 6 -7 10 -15 10
-8 0 -15 7 -15 15 0 22 4 30 13 27 5 -1 6 2 2 8 -3 6 -10 8 -15 5 -10 -6 -35
23 -26 32 3 3 6 1 6 -5 0 -7 5 -12 11 -12 6 0 8 8 5 18 -5 14 -1 17 22 16 15
-1 35 -3 45 -3 9 -1 17 -6 17 -12 0 -5 -4 -7 -10 -4 -6 3 -7 -1 -4 -10 6 -14
8 -14 20 2 8 11 13 13 14 6 0 -7 -10 -23 -22 -35 l-21 -21 21 5 c22 6 47 -13
35 -26 -4 -4 1 -4 10 0 20 7 17 29 -4 29 -7 0 -15 8 -17 18 -4 19 14 24 21 5
3 -8 6 -5 6 5 1 13 7 17 24 15 15 -2 25 4 32 20 12 28 15 28 15 -2z m60 4 c0
-5 -7 -7 -15 -4 -8 4 -15 8 -15 10 0 2 7 4 15 4 8 0 15 -4 15 -10z m70 0 c0
-13 -11 -13 -30 0 -12 8 -11 10 8 10 12 0 22 -4 22 -10z m330 0 c0 -5 -2 -10
-4 -10 -3 0 -8 5 -11 10 -3 6 -1 10 4 10 6 0 11 -4 11 -10z m-784 -40 c8 0 12
-5 9 -10 -5 -8 -11 -7 -21 1 -8 7 -14 7 -14 1 0 -5 -10 -12 -22 -15 -21 -5
-21 -5 -6 7 14 10 15 15 5 26 -10 10 -9 12 6 7 10 -4 17 -1 18 6 1 7 3 4 6 -5
2 -10 11 -18 19 -18z m424 20 c0 -5 -4 -10 -10 -10 -5 0 -10 5 -10 10 0 6 5
10 10 10 6 0 10 -4 10 -10z m-73 -46 c17 -19 21 -30 14 -37 -7 -7 -15 0 -25
24 -9 19 -15 28 -16 21 0 -7 -5 -10 -10 -7 -10 6 -5 25 7 25 3 0 17 -12 30
-26z m98 8 c-3 -3 -11 0 -18 7 -9 10 -8 11 6 5 10 -3 15 -9 12 -12z m-589 -12
c0 -11 -4 -20 -8 -20 -4 0 -8 9 -8 20 0 11 4 20 8 20 4 0 8 -9 8 -20z m186
-13 c7 4 9 0 5 -10 -3 -9 -1 -18 6 -21 7 -3 -1 -2 -18 1 -27 6 -29 5 -16 -10
7 -10 26 -17 42 -17 26 0 28 -2 17 -19 -12 -19 -48 -25 -48 -8 0 5 -9 5 -20 2
-11 -4 -20 -2 -20 4 0 6 5 11 10 11 6 0 10 5 10 11 0 5 -4 7 -10 4 -6 -3 -7 1
-4 10 5 11 2 14 -10 9 -11 -4 -16 -1 -16 10 0 9 -4 16 -10 16 -5 0 -10 5 -10
10 0 15 50 6 61 -11 7 -11 9 -8 10 11 1 17 3 20 6 7 2 -9 9 -14 15 -10z m695
-19 c-3 -8 -6 -5 -6 6 -1 11 2 17 5 13 3 -3 4 -12 1 -19z m123 18 c0 -3 -4 -8
-10 -11 -5 -3 -10 -1 -10 4 0 6 5 11 10 11 6 0 10 -2 10 -4z m-375 -16 c3 -5
1 -10 -4 -10 -6 0 -11 5 -11 10 0 6 2 10 4 10 3 0 8 -4 11 -10z m-89 -15 c17
-16 14 -18 -10 -9 -9 3 -16 10 -16 15 0 13 9 11 26 -6z m479 5 c-3 -5 -14 -10
-23 -10 -15 0 -15 2 -2 10 20 13 33 13 25 0z m-1084 -23 c-10 -9 -11 -8 -5 6
3 10 9 15 12 12 3 -3 0 -11 -7 -18z m83 7 c3 -8 2 -12 -4 -9 -6 3 -10 10 -10
16 0 14 7 11 14 -7z m566 -28 c-4 -4 -16 -4 -26 2 -16 9 -14 10 8 9 15 -1 23
-6 18 -11z m389 -12 c-9 -11 -9 -14 1 -14 8 0 11 -3 7 -6 -11 -12 -25 6 -20
26 3 11 9 17 15 14 5 -3 4 -12 -3 -20z m-1002 -6 c-3 -8 -6 -5 -6 6 -1 11 2
17 5 13 3 -3 4 -12 1 -19z m538 -28 c-3 -11 0 -20 10 -24 9 -3 15 0 15 9 0 8
5 15 10 15 6 0 10 -7 10 -15 0 -8 7 -15 15 -15 9 0 12 6 9 18 -5 14 -4 14 4 2
15 -20 4 -33 -24 -27 -13 2 -24 0 -24 -5 0 -5 -7 -2 -16 7 -14 13 -19 14 -25
3 -6 -9 -9 -7 -9 10 0 12 6 22 13 23 9 0 9 2 -1 6 -6 2 -10 9 -6 14 9 16 25
-1 19 -21z m-250 10 c3 -5 1 -10 -4 -10 -6 0 -11 5 -11 10 0 6 2 10 4 10 3 0
8 -4 11 -10z m390 0 c-3 -5 -18 -9 -33 -9 l-27 1 30 8 c17 4 31 8 33 9 2 0 0
-3 -3 -9z m-286 -19 c10 -7 7 -9 -12 -8 -14 1 -23 5 -20 10 6 9 15 9 32 -2z
m706 -11 c-3 -5 -12 -10 -18 -10 -7 0 -6 4 3 10 19 12 23 12 15 0z m-695 -14
c0 -3 -4 -8 -10 -11 -5 -3 -10 -1 -10 4 0 6 5 11 10 11 6 0 10 -2 10 -4z m95
-26 c4 -6 -5 -10 -19 -10 -14 0 -26 5 -26 10 0 6 9 10 19 10 11 0 23 -4 26
-10z m499 -26 c4 -10 1 -14 -6 -12 -15 5 -23 28 -10 28 5 0 13 -7 16 -16z
m-304 -16 c0 -11 -12 -10 -30 2 -12 7 -10 9 8 7 12 0 22 -5 22 -9z m27 -120
c-3 -7 -5 -2 -5 12 0 14 2 19 5 13 2 -7 2 -19 0 -25z m281 -47 c11 -6 9 -9 -7
-14 -12 -3 -22 1 -25 9 -6 16 12 18 32 5z m-13 -41 c-3 -5 -14 -10 -23 -10
-15 0 -15 2 -2 10 20 13 33 13 25 0z m704 -26 c2 -2 -5 -4 -16 -4 -12 0 -23 7
-27 15 -5 13 -2 14 17 4 12 -6 24 -13 26 -15z m-672 -340 c-3 -3 -12 -4 -19
-1 -8 3 -5 6 6 6 11 1 17 -2 13 -5z m33 -14 c0 -5 -5 -10 -11 -10 -5 0 -7 5
-4 10 3 6 8 10 11 10 2 0 4 -4 4 -10z"/>
<path d="M12262 9711 c4 -13 18 -16 19 -4 0 4 -5 9 -11 12 -7 2 -11 -2 -8 -8z"/>
<path d="M12235 8150 c-11 -5 -34 -9 -52 -9 -17 -1 -35 -5 -38 -11 -3 -5 -17
-10 -30 -10 -13 0 -27 -4 -30 -10 -3 -5 -17 -10 -31 -10 -13 0 -24 -4 -24 -9
0 -5 -8 -11 -17 -14 -10 -4 -45 -22 -78 -42 -33 -20 -67 -39 -75 -42 -8 -4
-22 -15 -31 -25 -9 -10 -19 -18 -23 -18 -4 0 -24 -16 -44 -35 -20 -19 -40 -35
-44 -35 -5 0 -8 -6 -8 -13 0 -7 -9 -19 -20 -27 -11 -8 -20 -18 -20 -23 0 -4
-9 -18 -20 -30 -44 -47 -70 -82 -70 -94 0 -7 -4 -13 -10 -13 -5 0 -10 -7 -10
-15 0 -8 -4 -15 -10 -15 -5 0 -10 -8 -10 -18 0 -10 -9 -24 -20 -32 -11 -8 -20
-24 -20 -37 0 -12 -4 -25 -10 -28 -5 -3 -10 -17 -10 -31 0 -13 -4 -24 -8 -24
-7 0 -31 -90 -49 -185 -11 -59 -8 -281 4 -350 11 -60 33 -129 46 -141 4 -4 7
-16 7 -26 0 -10 5 -18 10 -18 6 0 10 -9 10 -20 0 -11 5 -20 10 -20 6 0 10 -9
10 -20 0 -11 5 -20 10 -20 6 0 10 -10 10 -23 0 -12 9 -29 20 -37 11 -8 20 -20
20 -28 0 -7 6 -19 13 -27 6 -7 21 -25 32 -41 20 -28 126 -136 161 -164 42 -33
120 -81 141 -86 13 -4 23 -10 23 -15 0 -5 9 -9 20 -9 11 0 20 -4 20 -10 0 -5
14 -10 30 -10 17 0 30 -4 30 -9 0 -20 405 -40 423 -22 6 6 32 11 58 11 26 0
51 5 54 10 3 6 24 10 46 10 24 0 38 4 34 10 -4 6 5 10 19 10 14 0 26 5 26 10
0 6 9 10 20 10 11 0 20 5 20 10 0 6 9 10 20 10 11 0 20 5 20 10 0 6 6 10 13
10 6 0 27 14 46 30 18 17 37 30 42 30 4 0 19 11 33 25 14 14 28 25 31 25 3 0
20 13 38 29 17 16 42 38 55 49 12 11 22 24 22 31 0 6 5 11 10 11 6 0 10 5 10
10 0 6 10 21 23 34 12 13 31 36 42 51 11 16 26 34 33 41 6 7 12 19 12 26 0 8
9 20 20 28 11 8 20 22 20 32 0 10 5 18 10 18 6 0 10 9 10 20 0 11 5 20 10 20
6 0 10 9 10 19 0 11 4 22 9 25 5 3 11 16 14 28 3 13 13 52 22 88 20 76 23 232
5 330 -12 70 -46 194 -61 222 -5 10 -9 27 -9 37 0 11 -4 23 -10 26 -5 3 -10
17 -10 31 0 13 -4 24 -10 24 -5 0 -10 9 -10 20 0 11 -4 20 -10 20 -5 0 -10 7
-10 15 0 16 -25 60 -48 83 -7 8 -25 30 -39 50 -40 54 -117 124 -172 155 -20
12 -38 24 -41 27 -10 12 -103 60 -116 60 -8 0 -14 5 -14 10 0 6 -13 10 -30 10
-16 0 -30 5 -30 10 0 6 -15 10 -34 10 -19 0 -38 5 -41 10 -3 6 -28 10 -55 10
-27 0 -52 5 -55 10 -8 12 -261 12 -290 0z m350 -40 c-4 -6 15 -10 50 -10 35 0
54 -4 50 -10 -4 -6 8 -10 29 -10 20 0 36 -3 36 -7 0 -5 29 -21 65 -37 36 -16
65 -33 65 -37 0 -5 6 -9 14 -9 7 0 27 -13 44 -30 18 -16 34 -30 37 -30 8 0 75
-68 75 -75 0 -3 11 -17 25 -31 14 -14 25 -29 25 -34 0 -5 6 -15 13 -22 6 -7
26 -40 42 -73 17 -33 33 -61 38 -63 4 -2 7 -12 7 -23 0 -10 5 -19 10 -19 6 0
10 -9 10 -20 0 -11 5 -20 10 -20 6 0 10 -13 10 -30 0 -16 5 -30 10 -30 6 0 10
-20 10 -45 0 -25 5 -45 10 -45 6 0 10 -18 10 -39 0 -22 4 -42 9 -45 13 -8 14
-293 2 -298 -6 -1 -11 -22 -12 -45 -2 -24 -7 -43 -11 -43 -4 0 -8 -9 -8 -20 0
-11 -4 -20 -10 -20 -5 0 -10 -11 -10 -25 0 -14 -4 -25 -10 -25 -5 0 -10 -9
-10 -20 0 -11 -4 -20 -10 -20 -5 0 -10 -7 -10 -15 0 -9 -11 -28 -24 -42 -13
-14 -30 -37 -38 -52 -7 -14 -17 -31 -23 -37 -30 -34 -45 -55 -45 -62 0 -4 -30
-34 -66 -67 -36 -33 -86 -79 -110 -102 -24 -24 -48 -43 -54 -43 -6 0 -20 -8
-31 -18 -10 -11 -32 -25 -47 -33 -15 -8 -33 -20 -40 -26 -7 -7 -22 -13 -33
-13 -10 0 -19 -4 -19 -10 0 -5 -13 -10 -29 -10 -17 0 -33 -4 -36 -10 -3 -5
-19 -10 -36 -10 -16 0 -29 -4 -29 -10 0 -6 -28 -10 -65 -10 -37 0 -65 -4 -65
-10 0 -6 -34 -10 -81 -10 -51 0 -78 4 -74 10 4 6 -23 10 -75 10 -52 0 -79 4
-75 10 4 6 -7 10 -24 10 -17 0 -31 5 -31 10 0 6 -13 10 -30 10 -16 0 -30 5
-30 10 0 6 -6 10 -14 10 -19 0 -108 50 -127 72 -9 10 -21 18 -28 18 -6 0 -11
5 -11 10 0 6 -6 10 -13 10 -7 0 -19 9 -27 20 -8 11 -18 20 -23 20 -10 0 -37
25 -37 34 0 4 -13 20 -30 38 -16 17 -30 35 -30 40 0 5 -11 21 -25 36 -14 15
-31 42 -37 60 -7 17 -16 32 -20 32 -4 0 -8 9 -8 20 0 11 -4 20 -10 20 -5 0
-10 12 -10 26 0 14 -4 23 -10 19 -5 -3 -10 3 -10 15 0 11 -4 28 -9 38 -23 45
-32 69 -34 90 0 12 -4 22 -8 22 -19 0 -30 260 -16 355 14 87 49 215 59 215 4
0 8 11 8 25 0 14 5 25 10 25 6 0 10 9 10 20 0 11 5 20 10 20 6 0 10 5 10 11 0
15 55 94 93 133 18 17 33 38 35 46 4 18 137 150 151 150 6 0 11 5 11 10 0 6 6
10 13 10 7 0 19 9 27 20 8 11 17 20 21 20 7 0 116 63 134 77 6 4 21 10 35 11
14 2 27 8 28 13 2 5 19 9 38 9 19 0 34 5 34 10 0 6 75 10 206 10 134 0 203 -3
199 -10z"/>
<path d="M12390 7900 c0 -5 -14 -10 -30 -10 -17 0 -38 -4 -48 -9 -9 -5 -28
-13 -42 -18 -53 -20 -138 -65 -158 -84 -12 -10 -24 -19 -27 -19 -9 0 -75 -69
-100 -104 -11 -16 -25 -33 -31 -40 -5 -6 -17 -26 -25 -43 -7 -18 -17 -33 -21
-33 -5 0 -8 -9 -8 -20 0 -11 -4 -20 -10 -20 -5 0 -10 -9 -10 -20 0 -11 -4 -20
-10 -20 -5 0 -10 -9 -10 -20 0 -11 -4 -20 -10 -20 -5 0 -10 -10 -10 -22 0 -12
-6 -40 -14 -63 -17 -50 -36 -170 -36 -233 0 -54 30 -192 42 -192 4 0 8 -11 8
-24 0 -14 5 -28 10 -31 6 -3 10 -16 10 -28 0 -13 9 -29 20 -37 11 -8 20 -21
20 -28 0 -16 80 -94 123 -120 15 -9 27 -20 27 -24 0 -4 9 -8 20 -8 11 0 20 -4
20 -10 0 -5 11 -10 25 -10 14 0 25 -4 25 -10 0 -5 14 -10 30 -10 17 0 30 -4
30 -9 0 -22 236 -45 324 -31 122 19 136 22 136 31 0 5 11 9 25 9 14 0 25 5 25
10 0 6 9 10 20 10 11 0 20 5 20 10 0 6 7 10 15 10 8 0 15 5 15 10 0 6 4 10 10
10 18 0 110 83 110 99 0 6 7 11 16 11 8 0 12 5 9 10 -3 6 -1 10 6 10 17 0 79
71 79 92 0 10 5 18 10 18 6 0 10 9 10 20 0 11 5 20 10 20 6 0 10 9 10 20 0 11
5 20 10 20 6 0 10 15 10 34 0 19 5 36 12 38 8 3 12 54 12 178 0 124 -4 175
-12 178 -7 2 -12 21 -12 43 0 21 -4 39 -10 39 -5 0 -10 14 -10 30 0 17 -4 30
-10 30 -5 0 -10 8 -10 18 0 10 -9 28 -20 40 -11 12 -20 26 -20 32 0 6 -11 23
-25 38 -14 15 -25 30 -25 35 0 11 -102 109 -136 130 -16 10 -65 36 -108 57
-78 40 -80 40 -193 40 -69 0 -113 -4 -113 -10z"/>
<path d="M10990 6080 c0 -24 6 -25 25 -6 15 15 10 26 -12 26 -7 0 -13 -9 -13
-20z"/>
<path d="M10917 6040 c-6 -23 10 -37 24 -23 10 10 2 43 -11 43 -4 0 -10 -9
-13 -20z"/>
<path d="M10840 6020 c0 -13 7 -20 20 -20 13 0 20 7 20 20 0 13 -7 20 -20 20
-13 0 -20 -7 -20 -20z"/>
<path d="M11030 6000 c0 -11 2 -20 4 -20 2 0 11 -3 20 -6 12 -5 16 0 16 20 0
19 -5 26 -20 26 -13 0 -20 -7 -20 -20z"/>
<path d="M10805 5940 c3 -5 10 -10 16 -10 5 0 9 5 9 10 0 6 -7 10 -16 10 -8 0
-12 -4 -9 -10z"/>
<path d="M11115 5910 c-3 -11 -3 -24 0 -30 9 -15 45 -12 45 4 0 44 -33 63 -45
26z"/>
<path d="M10883 5904 c3 -3 2 -17 -3 -30 -7 -19 -6 -24 5 -24 10 0 15 10 15
30 0 17 -5 30 -12 30 -6 0 -9 -3 -5 -6z"/>
<path d="M10730 5856 c0 -8 5 -18 10 -21 6 -3 10 3 10 14 0 12 -4 21 -10 21
-5 0 -10 -6 -10 -14z"/>
<path d="M10990 5840 c0 -32 1 -33 24 -24 24 9 21 54 -4 54 -16 0 -20 -7 -20
-30z"/>
<path d="M10820 5840 c0 -5 5 -10 11 -10 5 0 7 5 4 10 -3 6 -8 10 -11 10 -2 0
-4 -4 -4 -10z"/>
<path d="M10885 5790 c3 -5 8 -10 11 -10 2 0 4 5 4 10 0 6 -5 10 -11 10 -5 0
-7 -4 -4 -10z"/>
<path d="M10762 5768 c-16 -16 -15 -28 3 -28 8 0 15 9 15 20 0 23 -2 24 -18 8z"/>
<path d="M11112 5761 c-16 -10 -5 -41 14 -41 15 0 20 35 6 44 -4 2 -14 1 -20
-3z"/>
<path d="M10820 5700 c0 -11 5 -20 10 -20 6 0 10 9 10 20 0 11 -4 20 -10 20
-5 0 -10 -9 -10 -20z"/>
<path d="M10934 5703 c-13 -22 -7 -43 11 -43 16 0 29 35 20 50 -9 15 -19 12
-31 -7z"/>
<path d="M11505 5699 c-4 -6 -5 -12 -2 -15 2 -3 7 2 10 11 7 17 1 20 -8 4z"/>
<path d="M11220 5655 c0 -27 9 -32 28 -13 18 18 14 38 -8 38 -15 0 -20 -7 -20
-25z"/>
<path d="M11481 5654 c0 -11 3 -14 6 -6 3 7 2 16 -1 19 -3 4 -6 -2 -5 -13z"/>
<path d="M11056 5633 c-3 -4 -6 -19 -6 -35 0 -21 5 -28 20 -28 15 0 20 7 20
29 0 27 -20 47 -34 34z"/>
<path d="M11317 5623 c-8 -8 -9 -53 -1 -53 11 0 34 29 34 44 0 16 -21 22 -33
9z"/>
<path d="M11462 5610 c0 -14 2 -19 5 -12 2 6 2 18 0 25 -3 6 -5 1 -5 -13z"/>
<path d="M10756 5594 c-9 -22 -8 -24 9 -24 8 0 15 6 15 14 0 22 -17 28 -24 10z"/>
<path d="M10963 5594 c-18 -18 -16 -24 6 -24 11 0 18 6 17 15 -3 22 -10 24
-23 9z"/>
<path d="M10840 5570 c0 -11 5 -20 10 -20 6 0 10 9 10 20 0 11 -4 20 -10 20
-5 0 -10 -9 -10 -20z"/>
<path d="M11441 5564 c0 -11 3 -14 6 -6 3 7 2 16 -1 19 -3 4 -6 -2 -5 -13z"/>
<path d="M11155 5560 c3 -5 1 -10 -6 -10 -8 0 -8 -4 1 -15 18 -22 30 -18 30
10 0 16 -6 25 -16 25 -8 0 -12 -4 -9 -10z"/>
<path d="M10900 5505 c-10 -12 -10 -15 4 -15 9 0 16 7 16 15 0 8 -2 15 -4 15
-2 0 -9 -7 -16 -15z"/>
<path d="M11233 5513 c-7 -2 -13 -16 -13 -29 0 -17 6 -24 20 -24 16 0 20 7 20
30 0 30 -4 33 -27 23z"/>
<path d="M10980 5495 c-16 -19 -9 -49 13 -53 14 -3 17 4 17 32 0 38 -10 45
-30 21z"/>
<path d="M10710 5440 c0 -11 5 -20 10 -20 6 0 10 9 10 20 0 11 -4 20 -10 20
-5 0 -10 -9 -10 -20z"/>
<path d="M10786 5424 c-9 -23 -8 -24 13 -24 14 0 18 5 14 20 -6 24 -19 26 -27
4z"/>
<path d="M11090 5420 c0 -11 7 -20 15 -20 8 0 15 9 15 20 0 11 -7 20 -15 20
-8 0 -15 -9 -15 -20z"/>
<path d="M10650 5384 c0 -8 5 -12 10 -9 6 4 8 11 5 16 -9 14 -15 11 -15 -7z"/>
<path d="M11158 5383 c-6 -23 1 -45 13 -37 12 7 12 54 0 54 -5 0 -11 -8 -13
-17z"/>
<path d="M10920 5360 c0 -11 5 -20 10 -20 6 0 10 9 10 20 0 11 -4 20 -10 20
-5 0 -10 -9 -10 -20z"/>
<path d="M11010 5320 c0 -11 5 -20 10 -20 6 0 10 9 10 20 0 11 -4 20 -10 20
-5 0 -10 -9 -10 -20z"/>
<path d="M11095 5290 c-4 -6 -3 -16 3 -22 6 -6 12 -6 17 2 4 6 3 16 -3 22 -6
6 -12 6 -17 -2z"/>
<path d="M10870 5255 c0 -8 2 -15 4 -15 2 0 6 7 10 15 3 8 1 15 -4 15 -6 0
-10 -7 -10 -15z"/>
<path d="M10585 3260 c-3 -5 1 -10 10 -10 9 0 13 5 10 10 -3 6 -8 10 -10 10
-2 0 -7 -4 -10 -10z"/>
<path d="M10625 3240 c4 -6 11 -8 16 -5 14 9 11 15 -7 15 -8 0 -12 -5 -9 -10z"/>
<path d="M11260 1285 c0 -8 4 -15 8 -15 5 0 9 7 9 15 0 8 -4 15 -9 15 -4 0 -8
-7 -8 -15z"/>
<path d="M11130 1250 c0 -5 7 -10 15 -10 8 0 15 5 15 10 0 6 -7 10 -15 10 -8
0 -15 -4 -15 -10z"/>
<path d="M8950 10100 c0 -20 120 -150 139 -150 6 0 11 -4 11 -10 0 -5 9 -10
20 -10 11 0 20 7 20 15 0 15 -95 115 -110 115 -4 0 -21 14 -38 30 -37 35 -42
36 -42 10z"/>
<path d="M9970 10080 c0 -11 5 -20 10 -20 6 0 10 -9 10 -20 0 -11 5 -20 10
-20 6 0 10 -8 10 -18 0 -10 9 -28 20 -40 11 -12 20 -26 20 -32 0 -13 50 -70
62 -70 4 0 8 11 8 25 0 14 -4 25 -8 25 -9 0 -42 70 -42 88 0 7 -4 12 -10 12
-5 0 -10 9 -10 20 0 11 -4 20 -10 20 -5 0 -10 5 -10 11 0 14 -30 38 -47 39 -7
0 -13 -9 -13 -20z"/>
<path d="M12275 9920 c-3 -5 1 -10 9 -10 9 0 16 5 16 10 0 6 -4 10 -9 10 -6 0
-13 -4 -16 -10z"/>
<path d="M12442 9894 c-33 -14 -36 -39 -4 -30 10 3 37 10 61 16 33 9 41 14 30
21 -19 12 -48 10 -87 -7z"/>
<path d="M9550 9858 c-1 -23 22 -56 42 -61 l23 -6 -21 17 c-12 9 -26 26 -32
37 -6 11 -12 17 -12 13z"/>
<path d="M11483 9846 c-13 -6 -23 -14 -23 -18 0 -15 27 -8 45 12 20 22 13 24
-22 6z"/>
<path d="M12646 9848 c4 -6 3 -8 -4 -5 -13 9 -42 -2 -42 -15 0 -17 55 -4 58
15 2 9 -2 17 -8 17 -6 0 -8 -5 -4 -12z"/>
<path d="M10435 9823 c4 -10 13 -33 19 -50 7 -18 15 -36 19 -39 4 -4 7 -14 7
-21 0 -19 25 -43 44 -43 9 0 16 7 16 15 0 8 -4 15 -10 15 -5 0 -10 11 -10 25
0 14 -4 25 -9 25 -5 0 -11 10 -15 23 -3 13 -14 33 -24 45 -24 27 -47 30 -37 5z"/>
<path d="M12555 9790 c-3 -5 -17 -10 -31 -10 -29 0 -54 -21 -54 -44 0 -19 13
-20 42 -5 23 12 68 55 68 64 0 9 -18 6 -25 -5z"/>
<path d="M12708 9782 c-3 -11 0 -19 8 -19 7 0 11 4 8 9 -3 4 6 8 20 8 14 0 28
5 31 10 4 6 -8 10 -28 10 -25 0 -36 -5 -39 -18z"/>
<path d="M8890 9749 c9 -29 20 -46 57 -86 6 -7 19 -13 28 -13 9 0 13 -4 10
-10 -3 -5 1 -10 9 -10 9 0 16 -4 16 -10 0 -5 10 -10 22 -10 12 0 18 -3 15 -7
-4 -3 5 -12 19 -20 33 -17 34 -17 34 5 0 9 -12 26 -27 37 -14 11 -48 40 -73
65 -104 99 -124 110 -110 59z"/>
<path d="M9610 9745 c11 -20 20 -43 21 -53 0 -14 2 -14 9 3 7 17 9 17 9 3 1
-25 21 -23 21 2 0 11 -6 20 -14 20 -14 0 -32 36 -28 53 1 4 -7 7 -18 7 -20 0
-20 0 0 -35z"/>
<path d="M11390 9770 c0 -5 5 -10 10 -10 6 0 10 5 10 10 0 6 -4 10 -10 10 -5
0 -10 -4 -10 -10z"/>
<path d="M9480 9738 c0 -16 5 -28 10 -28 13 0 13 20 0 40 -8 12 -10 9 -10 -12z"/>
<path d="M11140 9750 c0 -5 5 -10 10 -10 6 0 10 5 10 10 0 6 -4 10 -10 10 -5
0 -10 -4 -10 -10z"/>
<path d="M9676 9678 c-5 -10 -5 -26 0 -35 4 -10 7 -21 6 -25 -1 -4 5 -5 13 -2
16 7 21 34 6 34 -5 0 -11 10 -14 23 -3 19 -4 20 -11 5z"/>
<path d="M10988 9674 c-24 -13 -48 -42 -48 -58 0 -16 32 -2 59 25 47 46 41 62
-11 33z"/>
<path d="M9511 9614 c0 -11 3 -14 6 -6 3 7 2 16 -1 19 -3 4 -6 -2 -5 -13z"/>
<path d="M4942 9532 c-6 -5 -33 -9 -58 -11 -25 -1 -57 -6 -70 -11 -14 -6 -38
-10 -54 -10 -16 0 -32 -4 -35 -10 -3 -5 -21 -10 -40 -10 -19 0 -37 -4 -40 -10
-3 -5 -15 -10 -25 -10 -23 0 -160 -70 -160 -82 0 -5 -4 -7 -9 -3 -5 3 -15 0
-23 -7 -7 -7 -25 -19 -40 -27 -16 -8 -28 -18 -28 -23 0 -4 -7 -8 -15 -8 -8 0
-15 -4 -15 -10 0 -5 -7 -10 -15 -10 -9 0 -26 -10 -39 -22 -12 -13 -45 -41 -71
-63 -55 -45 -130 -120 -190 -190 -22 -25 -50 -57 -62 -70 -13 -13 -23 -33 -23
-45 0 -11 -4 -20 -10 -20 -5 0 -10 -13 -10 -30 0 -16 5 -30 10 -30 6 0 10 -11
10 -25 0 -14 11 -37 24 -50 27 -27 86 -110 86 -120 0 -4 14 -20 30 -35 17 -15
30 -33 30 -39 0 -6 5 -11 10 -11 6 0 10 -4 10 -10 0 -5 8 -18 18 -28 9 -10 28
-33 42 -51 14 -18 40 -48 58 -67 17 -18 32 -36 32 -39 0 -3 10 -17 23 -30 12
-13 40 -45 62 -71 65 -76 113 -124 124 -124 6 0 11 -4 11 -10 0 -5 7 -10 15
-10 8 0 15 -4 15 -10 0 -5 6 -10 13 -10 7 0 19 -9 27 -20 8 -11 22 -20 32 -20
10 0 18 -4 18 -10 0 -5 5 -10 10 -10 6 0 10 23 10 50 0 28 -4 50 -10 50 -6 0
-10 28 -10 65 0 36 4 65 9 65 5 0 12 44 15 98 7 148 30 305 62 427 9 33 18 75
21 93 3 18 9 35 14 38 5 3 9 29 9 59 0 30 5 57 10 60 6 3 10 22 10 41 0 19 5
34 10 34 6 0 10 18 10 40 0 22 5 40 10 40 6 0 10 14 10 31 0 17 7 37 15 46 8
8 13 19 10 24 -4 5 -2 9 4 9 5 0 12 8 16 18 3 9 23 37 45 62 22 24 40 48 40
53 0 11 13 23 78 72 28 21 52 40 52 42 0 7 -106 2 -118 -5z"/>
<path d="M9590 9470 c0 -13 5 -18 15 -14 12 5 13 10 4 20 -15 19 -19 18 -19
-6z"/>
<path d="M10395 9470 c4 -6 -5 -10 -19 -10 -16 0 -26 -6 -26 -15 0 -8 5 -15
11 -15 5 0 7 4 4 10 -3 5 0 8 7 5 7 -3 24 4 38 15 l25 20 -23 0 c-13 0 -20 -4
-17 -10z"/>
<path d="M5515 9449 c-5 -6 -33 -31 -61 -57 -28 -26 -59 -62 -69 -81 -9 -19
-26 -43 -36 -54 -10 -12 -19 -29 -19 -38 0 -10 -4 -21 -10 -24 -5 -3 -10 -17
-10 -31 0 -13 -4 -24 -10 -24 -5 0 -10 -12 -10 -26 0 -14 -4 -23 -10 -19 -6 4
-10 -7 -10 -24 0 -17 -4 -31 -9 -31 -5 0 -11 -17 -15 -37 -20 -134 -25 -162
-34 -193 -5 -19 -18 -55 -27 -80 -22 -56 -34 -123 -41 -220 -3 -41 -10 -79
-15 -85 -5 -5 -9 -37 -9 -72 0 -35 -4 -63 -10 -63 -6 0 -10 -67 -10 -180 0
-113 4 -180 10 -180 6 0 10 -11 10 -25 0 -14 5 -25 10 -25 6 0 10 -7 10 -16 0
-22 20 -40 60 -52 19 -5 51 -15 71 -21 19 -6 48 -11 63 -11 16 0 25 -4 21 -10
-4 -6 8 -10 29 -10 20 0 36 -4 36 -10 0 -5 14 -10 30 -10 17 0 30 -4 30 -10 0
-5 11 -10 25 -10 14 0 25 -4 25 -10 0 -5 6 -10 13 -10 30 0 165 -79 175 -102
2 -5 10 -8 18 -8 8 0 44 -29 80 -64 l65 -64 34 54 c19 30 35 63 35 74 0 11 5
20 10 20 6 0 10 9 10 19 0 11 4 21 8 23 5 2 25 28 46 58 50 75 69 101 84 116
6 7 12 17 12 23 0 6 5 11 10 11 6 0 10 5 10 10 0 6 10 21 23 34 12 13 29 33
37 46 8 12 23 33 33 45 9 13 17 28 17 34 0 6 5 11 10 11 6 0 10 8 10 18 0 10
9 24 20 32 11 8 20 22 20 32 0 10 5 18 10 18 6 0 10 6 10 14 0 16 37 83 56
103 6 6 17 25 24 42 7 17 16 31 21 31 5 0 9 6 9 13 0 7 9 19 20 27 11 8 20 21
20 30 0 9 9 22 20 30 11 8 20 19 20 25 0 5 25 38 55 72 30 33 55 64 55 68 0 4
14 20 30 35 17 15 30 32 30 38 0 5 13 16 30 24 l29 14 -49 52 c-27 29 -54 52
-60 52 -6 0 -44 33 -84 73 -41 39 -100 95 -132 122 -31 28 -67 60 -80 73 -13
12 -29 22 -36 22 -8 0 -20 9 -28 20 -8 11 -22 20 -32 20 -10 0 -18 5 -18 10 0
6 -7 10 -15 10 -8 0 -15 5 -15 10 0 6 -7 10 -16 10 -8 0 -22 6 -29 13 -26 22
-41 32 -55 35 -8 2 -16 8 -18 13 -2 5 -11 9 -21 9 -9 0 -27 9 -39 20 -12 11
-28 20 -37 20 -8 0 -15 5 -15 10 0 6 -9 10 -20 10 -11 0 -20 5 -20 10 0 6 -5
10 -12 10 -7 0 -39 13 -73 29 -92 45 -134 61 -155 61 -11 0 -20 5 -20 10 0 6
-13 10 -30 10 -16 0 -30 5 -30 10 0 13 -82 12 -95 -1z"/>
<path d="M8865 9437 c-5 -18 8 -37 64 -95 39 -39 76 -72 83 -72 8 0 20 -9 28
-20 18 -24 55 -28 46 -4 -3 9 -6 18 -6 20 0 2 -7 4 -16 4 -8 0 -12 5 -9 10 3
6 1 10 -5 10 -6 0 -49 38 -96 85 -76 76 -84 82 -89 62z"/>
<path d="M9578 9393 c-11 -33 -12 -49 -5 -52 6 -2 13 1 15 8 2 6 8 9 13 5 13
-8 23 23 13 44 -4 9 -6 23 -5 30 1 6 -2 12 -7 12 -5 0 -16 -21 -24 -47z"/>
<path d="M9677 9330 c3 -11 7 -20 9 -20 2 0 4 9 4 20 0 11 -4 20 -9 20 -5 0
-7 -9 -4 -20z"/>
<path d="M13508 9291 c-10 -3 -14 -11 -10 -18 5 -7 13 -9 21 -4 19 12 10 30
-11 22z"/>
<path d="M14590 9280 c0 -5 9 -10 21 -10 11 0 17 5 14 10 -3 6 -13 10 -21 10
-8 0 -14 -4 -14 -10z"/>
<path d="M14647 9190 c-15 -16 -27 -33 -27 -38 0 -4 -9 -14 -20 -22 -11 -8
-20 -25 -20 -38 0 -13 -4 -20 -10 -17 -5 3 -10 -3 -10 -14 0 -12 -4 -21 -10
-21 -5 0 -10 -11 -10 -24 0 -19 5 -24 20 -23 11 1 20 6 20 12 0 6 9 21 20 33
11 12 20 24 20 27 0 3 16 21 35 41 19 19 35 43 35 54 0 10 4 21 10 25 12 8 1
35 -14 35 -7 0 -25 -13 -39 -30z"/>
<path d="M14318 9180 c-10 -9 -18 -22 -18 -28 0 -7 -4 -12 -10 -12 -5 0 -10
-9 -10 -20 0 -11 -4 -20 -10 -20 -5 0 -10 -7 -10 -16 0 -8 -4 -12 -10 -9 -6 4
-10 -12 -10 -39 0 -38 3 -46 18 -46 32 0 104 161 86 192 -8 13 -11 13 -26 -2z"/>
<path d="M14010 9150 c0 -5 -6 -10 -14 -10 -7 0 -19 -13 -26 -30 -7 -16 -16
-30 -21 -30 -5 0 -9 -13 -9 -30 0 -16 -4 -30 -10 -30 -5 0 -10 -11 -10 -25 0
-19 5 -25 21 -25 23 0 69 46 69 69 0 8 3 11 7 7 6 -6 32 72 33 102 0 6 -9 12
-20 12 -11 0 -20 -4 -20 -10z"/>
<path d="M14933 9125 c-18 -19 -33 -41 -33 -50 0 -8 -4 -15 -10 -15 -5 0 -10
-5 -10 -11 0 -5 -11 -27 -25 -47 -14 -20 -25 -45 -25 -54 0 -10 -4 -18 -10
-18 -16 0 -11 -30 6 -37 9 -3 22 3 32 17 9 12 32 37 50 56 17 18 32 38 32 44
0 5 5 10 10 10 6 0 10 7 10 15 0 8 4 15 9 15 11 0 31 55 31 86 0 34 -29 29
-67 -11z"/>
<path d="M13443 9125 c-7 -8 -13 -28 -13 -45 0 -18 -4 -29 -10 -25 -6 4 -10
-8 -10 -29 0 -20 3 -36 8 -36 17 1 30 17 36 46 4 17 15 40 25 51 15 16 16 22
6 36 -15 20 -26 21 -42 2z"/>
<path d="M13685 9130 c3 -5 -1 -10 -9 -10 -9 0 -16 -8 -16 -19 0 -11 -4 -23
-10 -26 -5 -3 -10 -17 -10 -31 0 -13 -4 -24 -10 -24 -14 0 -13 -57 2 -66 12
-8 58 42 58 64 0 7 5 10 10 7 6 -4 10 8 10 29 0 20 5 36 10 36 6 0 10 11 10
25 0 20 -5 25 -26 25 -14 0 -23 -4 -19 -10z"/>
<path d="M8840 9095 c0 -16 12 -33 36 -52 20 -15 56 -47 80 -70 24 -24 50 -43
59 -43 8 0 15 -4 15 -10 0 -5 9 -10 20 -10 26 0 25 11 -2 46 -27 35 -48 57
-48 51 0 -3 -21 17 -47 44 -27 27 -54 49 -60 49 -7 0 -13 5 -13 10 0 6 -9 10
-20 10 -15 0 -20 -7 -20 -25z"/>
<path d="M13840 9070 c-15 -5 -18 -8 -8 -9 9 -1 18 -6 20 -12 2 -7 13 -5 31 4
44 23 13 35 -43 17z"/>
<path d="M15130 8974 c0 -9 -13 -29 -30 -44 -16 -15 -30 -33 -30 -39 0 -6 -3
-11 -8 -11 -4 0 -18 -18 -32 -40 -14 -22 -31 -40 -39 -40 -8 0 -12 -3 -8 -6 3
-4 1 -12 -6 -20 -32 -36 -37 -45 -37 -74 0 -41 21 -39 59 8 17 20 45 51 61 69
17 18 30 42 30 54 0 12 3 19 6 16 4 -4 18 14 30 40 25 48 32 103 14 103 -5 0
-10 -7 -10 -16z"/>
<path d="M13820 8752 c0 -5 7 -13 16 -16 10 -4 14 -1 12 6 -5 15 -28 23 -28
10z"/>
<path d="M8880 8731 c0 -9 36 -56 67 -88 6 -7 18 -13 25 -13 8 0 20 -9 28 -20
8 -11 22 -20 32 -20 10 0 18 -4 18 -10 0 -5 11 -10 25 -10 14 0 25 3 25 6 0 7
-27 34 -35 34 -3 0 -21 15 -39 33 -18 17 -43 39 -56 47 -12 8 -33 23 -45 33
-25 19 -45 22 -45 8z"/>
<path d="M15181 8643 c0 -7 -8 -13 -16 -13 -8 0 -15 -4 -15 -10 0 -5 -13 -10
-30 -10 -16 0 -30 -4 -30 -10 0 -5 -9 -10 -20 -10 -11 0 -20 -4 -20 -10 0 -5
-7 -10 -15 -10 -8 0 -15 -4 -15 -10 0 -5 -6 -10 -12 -10 -17 0 -68 -44 -68
-59 0 -28 126 8 152 44 4 6 8 7 8 2 0 -4 21 13 46 38 28 29 44 52 41 63 -3 9
-5 11 -6 5z"/>
<path d="M9481 8514 c0 -11 3 -14 6 -6 3 7 2 16 -1 19 -3 4 -6 -2 -5 -13z"/>
<path d="M9920 8450 c0 -5 -13 -10 -29 -10 -17 0 -33 -4 -36 -10 -3 -5 -17
-10 -31 -10 -13 0 -24 -3 -24 -8 0 -4 -18 -15 -41 -25 -44 -19 -95 -64 -85
-75 4 -3 10 -2 14 4 11 15 99 64 116 64 9 0 16 5 16 10 0 6 14 10 30 10 17 0
30 5 30 10 0 6 11 10 25 10 14 0 25 5 25 10 0 6 27 10 60 10 33 0 60 -4 60
-10 0 -5 11 -10 24 -10 14 0 28 -4 31 -10 3 -5 14 -10 24 -10 9 0 27 -9 39
-20 12 -12 22 -18 22 -15 0 3 11 -4 24 -17 54 -51 87 -78 95 -78 5 0 12 -7 15
-16 3 -8 10 -12 16 -9 5 3 10 2 10 -4 0 -10 34 -51 88 -107 13 -13 20 -24 17
-24 -5 0 3 -12 33 -45 6 -7 12 -18 12 -24 0 -6 5 -11 10 -11 6 0 10 -9 10 -20
0 -11 5 -20 10 -20 6 0 10 -7 10 -16 0 -8 7 -22 15 -31 8 -8 13 -19 9 -24 -3
-5 0 -8 7 -7 7 2 17 -19 25 -52 8 -30 17 -64 20 -75 39 -144 31 -496 -16 -675
-7 -25 -14 -71 -17 -102 -3 -32 -9 -58 -14 -58 -5 0 -9 -13 -9 -30 0 -16 -4
-30 -10 -30 -5 0 -10 -13 -10 -30 0 -16 -4 -30 -10 -30 -5 0 -10 -7 -10 -15 0
-8 -4 -15 -10 -15 -5 0 -10 -7 -10 -16 0 -20 -140 -159 -169 -169 -11 -3 -21
-11 -21 -16 0 -5 -7 -9 -15 -9 -8 0 -15 -4 -15 -10 0 -5 -9 -10 -20 -10 -11 0
-20 -4 -20 -10 0 -5 -13 -10 -30 -10 -16 0 -30 -4 -30 -10 0 -6 -38 -10 -95
-10 -57 0 -95 4 -95 10 0 6 -13 10 -30 10 -16 0 -30 5 -30 10 0 6 -16 10 -35
10 -19 0 -35 5 -35 10 0 6 -9 10 -19 10 -11 0 -21 6 -24 13 -2 6 -8 9 -12 5
-9 -9 40 -58 58 -58 7 0 17 -3 20 -7 19 -18 148 -53 201 -53 55 0 187 35 194
52 2 5 12 8 23 8 10 0 19 5 19 10 0 6 5 10 11 10 7 0 19 8 28 18 9 9 32 29 51
44 53 39 110 98 110 114 0 8 5 14 10 14 6 0 10 9 10 20 0 11 5 20 10 20 6 0
10 9 10 20 0 11 4 20 8 20 20 0 81 253 82 335 0 17 5 36 10 41 7 7 9 88 6 235
-4 227 -12 326 -26 344 -4 6 -11 25 -15 43 -3 17 -11 32 -16 32 -5 0 -9 9 -9
19 0 11 -4 23 -10 26 -5 3 -10 17 -10 31 0 13 -4 24 -10 24 -5 0 -10 9 -10 20
0 11 -4 20 -10 20 -5 0 -10 7 -10 15 0 8 -4 15 -10 15 -5 0 -10 8 -10 18 0 10
-9 24 -20 32 -11 8 -20 20 -20 26 0 6 -25 38 -55 70 -30 33 -54 63 -55 67 0 9
-18 27 -42 42 -13 9 -78 60 -141 111 -9 8 -24 14 -32 14 -8 0 -15 5 -15 10 0
6 -13 10 -29 10 -17 0 -33 5 -36 10 -3 6 -40 10 -81 10 -43 0 -74 -4 -74 -10z"/>
<path d="M8970 8362 c0 -12 108 -112 120 -112 6 0 10 -4 10 -8 0 -13 68 -42
85 -36 8 4 15 8 15 10 0 8 -69 74 -77 74 -4 0 -19 9 -33 20 -14 11 -31 20 -38
20 -7 0 -20 7 -29 15 -8 8 -19 13 -24 10 -5 -4 -9 -1 -9 4 0 6 -4 11 -10 11
-5 0 -10 -4 -10 -8z"/>
<path d="M15138 8312 c-16 -2 -28 -8 -28 -13 0 -5 -9 -9 -20 -9 -11 0 -20 -4
-20 -10 0 -5 -9 -10 -20 -10 -11 0 -20 -4 -20 -10 0 -5 -9 -10 -20 -10 -11 0
-20 -4 -20 -10 0 -5 -7 -10 -15 -10 -19 0 -20 -39 0 -46 18 -7 122 40 145 66
10 11 21 20 26 20 12 0 36 38 26 42 -4 2 -19 2 -34 0z"/>
<path d="M9650 8300 c0 -5 5 -10 11 -10 5 0 7 5 4 10 -3 6 -8 10 -11 10 -2 0
-4 -4 -4 -10z"/>
<path d="M9771 8146 c-42 -14 -130 -98 -156 -151 -11 -22 -22 -42 -25 -45 -3
-3 -7 -16 -8 -30 -2 -14 -8 -29 -13 -34 -5 -6 -9 -29 -9 -52 0 -24 -4 -46 -10
-49 -5 -3 -10 -46 -10 -95 0 -49 -4 -92 -10 -95 -6 -4 -10 -57 -10 -126 0 -73
4 -119 10 -119 6 0 10 -18 10 -40 0 -22 5 -40 10 -40 6 0 10 -18 10 -40 0 -22
5 -40 10 -40 6 0 10 -7 10 -17 0 -22 32 -93 42 -93 4 0 8 -6 8 -13 0 -7 9 -23
20 -35 11 -12 20 -28 20 -37 0 -9 5 -13 10 -10 6 3 10 -1 10 -10 0 -17 63 -85
80 -85 5 0 10 -4 10 -8 0 -17 76 -44 169 -59 36 -6 106 12 132 34 8 7 19 13
23 13 11 0 116 108 116 120 0 5 4 10 8 10 5 0 17 18 28 40 10 22 22 40 27 40
4 0 7 9 7 19 0 11 5 23 10 26 6 3 10 19 10 35 0 16 5 32 10 35 6 3 10 22 10
41 0 19 5 34 10 34 6 0 10 47 10 121 0 77 4 118 10 114 6 -3 10 3 10 14 0 12
-4 21 -10 21 -6 0 -10 34 -10 81 0 51 -4 78 -10 74 -6 -4 -10 12 -10 39 0 25
-4 46 -10 46 -5 0 -10 13 -10 29 0 17 -4 33 -10 36 -5 3 -10 13 -10 21 0 9 -6
21 -12 28 -7 8 -20 24 -28 36 -31 46 -55 75 -73 88 -10 8 -29 25 -42 38 -13
13 -29 24 -35 24 -5 0 -10 5 -10 10 0 6 -9 10 -20 10 -11 0 -20 5 -20 10 0 6
-9 10 -20 10 -11 0 -20 3 -20 8 0 27 -170 41 -239 18z"/>
<path d="M9350 8025 c0 -35 -4 -54 -10 -50 -6 4 -10 -17 -10 -54 0 -34 -4 -61
-10 -61 -6 0 -10 -37 -10 -91 0 -57 4 -88 10 -84 6 3 10 35 10 71 0 36 4 64
10 64 6 0 10 30 10 70 0 40 4 70 10 70 6 0 10 24 10 54 0 30 -4 58 -10 61 -6
4 -10 -15 -10 -50z"/>
<path d="M14239 8069 c-10 -6 -7 -9 14 -9 29 0 35 5 14 13 -8 3 -20 1 -28 -4z"/>
<path d="M15090 8047 c-153 -61 -170 -72 -170 -101 0 -11 9 -16 30 -16 17 0
30 5 30 10 0 6 16 10 36 10 21 0 33 4 29 10 -3 6 0 10 7 10 16 0 78 54 78 68
0 17 -13 20 -40 9z"/>
<path d="M9128 7983 c6 -2 12 -9 12 -15 0 -13 26 -38 39 -38 6 0 11 -4 11 -10
0 -5 7 -10 15 -10 8 0 15 -4 15 -8 0 -12 78 -37 87 -28 8 8 -41 56 -57 56 -5
0 -10 5 -10 10 0 6 -9 10 -20 10 -11 0 -20 5 -20 10 0 6 -11 10 -24 10 -14 0
-28 5 -31 10 -3 6 -12 10 -18 9 -9 0 -9 -2 1 -6z"/>
<path d="M7305 7859 c-27 -16 -58 -32 -67 -35 -10 -4 -18 -10 -18 -15 0 -5 -9
-9 -20 -9 -11 0 -20 -4 -20 -10 0 -5 -9 -10 -20 -10 -11 0 -20 -4 -20 -10 0
-5 -7 -10 -15 -10 -8 0 -15 -4 -15 -9 0 -5 -8 -11 -17 -14 -19 -6 -74 -38 -83
-48 -11 -12 -103 -59 -116 -59 -8 0 -14 -4 -14 -10 0 -5 -9 -10 -20 -10 -11 0
-20 -4 -20 -10 0 -5 -9 -10 -20 -10 -11 0 -20 -4 -20 -10 0 -5 -9 -10 -20 -10
-11 0 -20 -4 -20 -10 0 -5 -7 -10 -15 -10 -9 0 -38 -16 -66 -35 -28 -19 -60
-35 -70 -35 -11 0 -19 -4 -19 -10 0 -5 -7 -10 -15 -10 -8 0 -15 -4 -15 -10 0
-5 -9 -10 -21 -10 -11 0 -17 -4 -14 -10 3 -5 -1 -10 -9 -10 -9 0 -16 -4 -16
-10 0 -5 -9 -10 -19 -10 -11 0 -21 -3 -23 -7 -3 -8 -29 -18 -158 -65 -30 -11
-59 -24 -65 -29 -5 -5 -24 -9 -41 -9 -18 0 -36 -4 -39 -10 -3 -5 -22 -10 -41
-10 -19 0 -34 -4 -34 -10 0 -5 -7 -10 -15 -10 -11 0 -13 -8 -8 -32 3 -18 10
-37 14 -42 5 -6 9 -31 9 -57 0 -26 5 -51 10 -54 6 -3 10 -42 10 -85 0 -43 5
-82 10 -85 13 -8 13 -238 1 -250 -5 -6 -12 -46 -14 -90 -6 -88 -20 -186 -38
-255 -6 -25 -12 -65 -13 -89 -1 -41 2 -46 34 -65 31 -19 55 -21 225 -25 240
-4 530 27 645 69 30 11 71 20 92 20 20 0 40 5 43 10 3 6 44 10 91 10 49 0 84
4 84 10 0 6 16 10 35 10 19 0 35 5 35 10 0 6 16 10 35 10 19 0 35 5 35 10 0 6
18 10 39 10 22 0 43 5 46 10 3 6 21 10 40 10 31 0 35 3 44 38 13 53 32 504 26
652 -5 134 -31 358 -46 397 -5 13 -9 37 -9 53 0 16 -4 32 -10 35 -5 3 -10 21
-10 40 0 19 -4 37 -10 40 -5 3 -10 19 -10 36 0 16 -4 29 -10 29 -5 0 -10 16
-10 35 0 19 -4 35 -10 35 -5 0 -10 9 -10 20 0 11 -4 20 -10 20 -5 0 -10 6 -10
14 0 29 -55 136 -70 135 -8 0 -37 -14 -65 -30z"/>
<path d="M14980 7750 c0 -5 -9 -10 -20 -10 -11 0 -20 -4 -20 -8 0 -5 -27 -21
-60 -37 -33 -16 -60 -32 -60 -37 0 -27 166 21 213 62 37 32 34 40 -13 40 -22
0 -40 -4 -40 -10z"/>
<path d="M14895 7488 c-63 -20 -92 -28 -108 -28 -9 0 -17 -4 -17 -10 0 -5 -9
-10 -20 -10 -11 0 -20 -4 -20 -9 0 -5 -9 -11 -20 -14 -11 -3 -20 -12 -20 -21
0 -12 10 -16 35 -16 19 0 35 5 35 10 0 6 14 10 30 10 17 0 30 5 30 10 0 6 12
10 26 10 14 0 23 4 19 10 -3 6 1 10 10 10 9 0 21 5 28 10 7 6 23 19 36 30 21
18 22 20 5 19 -10 -1 -32 -6 -49 -11z"/>
<path d="M14815 7260 c4 -6 -10 -10 -35 -10 -25 0 -39 -4 -35 -10 4 -6 -8 -10
-29 -10 -20 0 -36 -4 -36 -10 0 -5 -15 -10 -33 -10 -18 0 -37 -4 -42 -9 -6 -5
-21 -11 -35 -13 -17 -2 -26 -10 -28 -25 -3 -21 0 -23 47 -23 27 0 60 4 73 9
75 29 108 45 108 53 0 4 8 8 18 8 11 0 24 11 30 25 15 32 15 35 1 35 -5 0 -7
-4 -4 -10z"/>
<path d="M14241 7164 c0 -11 3 -14 6 -6 3 7 2 16 -1 19 -3 4 -6 -2 -5 -13z"/>
<path d="M14540 7004 c-14 -7 -33 -14 -42 -14 -9 0 -20 -4 -23 -10 -3 -5 -16
-10 -29 -10 -12 0 -26 -3 -30 -7 -3 -4 -16 -8 -27 -10 -20 -3 -49 -25 -49 -37
0 -3 21 -6 46 -6 27 0 43 4 39 10 -4 6 13 10 44 10 28 0 51 5 51 10 0 6 11 10
25 10 37 0 95 36 95 59 0 15 -70 12 -100 -5z"/>
<path d="M14270 6919 c0 -11 4 -18 10 -14 5 3 7 12 3 20 -7 21 -13 19 -13 -6z"/>
<path d="M14397 6813 c-4 -4 -31 -10 -60 -15 -117 -20 -120 -20 -106 -29 10
-6 4 -9 -17 -9 -30 0 -53 -24 -39 -38 9 -9 100 -2 103 9 2 5 22 9 43 9 24 0
38 4 34 10 -4 6 7 10 24 10 17 0 31 4 31 9 0 5 9 12 19 16 11 3 22 12 25 20 4
11 -2 15 -23 15 -15 0 -31 -3 -34 -7z"/>
<path d="M9650 6769 c0 -5 5 -7 10 -4 6 3 10 8 10 11 0 2 -4 4 -10 4 -5 0 -10
-5 -10 -11z"/>
<path d="M9670 6750 c0 -5 5 -10 10 -10 6 0 10 5 10 10 0 6 -4 10 -10 10 -5 0
-10 -4 -10 -10z"/>
<path d="M14198 6663 c6 -2 18 -2 25 0 6 3 1 5 -13 5 -14 0 -19 -2 -12 -5z"/>
<path d="M14125 6647 c-16 -5 -54 -10 -83 -12 -57 -2 -87 -21 -76 -48 7 -19
68 -24 79 -7 3 6 17 10 30 10 13 0 27 5 30 10 3 6 17 10 31 10 14 0 24 6 24
14 0 8 5 16 12 18 8 3 7 6 -3 10 -7 3 -27 1 -44 -5z"/>
<path d="M14200 6462 c0 -26 4 -41 10 -37 13 8 13 45 0 65 -7 11 -10 3 -10
-28z"/>
<path d="M7310 5580 c0 -6 -32 -10 -75 -10 -43 0 -75 -4 -75 -10 0 -5 -15 -10
-33 -10 -18 0 -37 -4 -42 -9 -6 -4 -100 -14 -210 -20 -110 -7 -256 -17 -324
-22 -123 -11 -268 -2 -345 22 -16 5 -62 9 -102 9 -43 0 -74 4 -74 10 0 6 -9
10 -20 10 -11 0 -20 5 -20 10 0 6 -13 10 -30 10 l-30 0 0 -240 c0 -153 4 -240
10 -240 6 0 10 -45 10 -115 0 -70 4 -115 10 -115 6 0 10 -19 10 -42 0 -23 4
-55 9 -72 31 -100 74 -255 78 -278 3 -16 9 -28 14 -28 5 0 9 -13 9 -30 0 -16
5 -30 10 -30 6 0 10 -13 10 -30 0 -16 5 -30 10 -30 6 0 10 -11 10 -25 0 -14 5
-25 10 -25 6 0 10 -13 10 -30 0 -16 5 -30 10 -30 6 0 10 -6 10 -13 0 -20 28
-73 46 -87 11 -10 50 -11 162 -6 81 4 226 9 322 11 164 5 298 22 342 46 10 5
27 9 37 9 11 0 23 5 26 10 3 6 15 10 26 10 10 0 19 5 19 10 0 6 14 10 30 10
17 0 30 5 30 10 0 6 11 10 25 10 14 0 25 5 25 10 0 6 7 10 15 10 20 0 122 52
154 77 22 18 23 21 8 49 -28 55 -77 211 -77 247 0 20 -4 39 -10 42 -5 3 -10
40 -10 81 0 41 -4 74 -10 74 -5 0 -9 44 -9 100 0 57 4 100 9 100 6 0 10 60 10
149 0 89 4 152 10 156 6 3 10 34 10 69 0 34 4 66 9 72 5 5 11 35 13 67 l5 57
-34 0 c-18 0 -33 -4 -33 -10z"/>
<path d="M8760 4236 c0 -9 5 -16 10 -16 6 0 10 4 10 9 0 6 -4 13 -10 16 -5 3
-10 -1 -10 -9z"/>
<path d="M8760 4105 c0 -8 2 -15 4 -15 2 0 6 7 10 15 3 8 1 15 -4 15 -6 0 -10
-7 -10 -15z"/>
<path d="M7623 4025 c-7 -8 -13 -19 -13 -25 0 -5 -4 -10 -8 -10 -4 0 -31 -22
-60 -50 -29 -27 -57 -50 -63 -50 -5 0 -20 -10 -33 -22 -37 -36 -63 -56 -94
-72 -16 -8 -43 -29 -58 -47 -34 -37 -137 -139 -191 -189 -34 -31 -59 -60 -115
-129 -10 -12 -18 -26 -18 -32 0 -5 -28 -38 -62 -72 -64 -63 -88 -96 -88 -120
0 -7 -9 -19 -20 -27 -34 -25 -26 -65 25 -115 24 -25 48 -45 53 -45 4 0 14 -9
22 -20 8 -11 19 -20 25 -20 9 0 21 -9 93 -71 12 -10 26 -19 30 -19 4 0 14 -9
22 -20 8 -11 21 -20 29 -20 7 0 21 -8 30 -18 9 -10 48 -40 86 -67 39 -27 72
-53 73 -57 2 -5 10 -8 18 -8 8 0 24 -9 36 -20 12 -11 28 -20 35 -20 7 0 13 -4
13 -8 0 -5 16 -14 35 -22 19 -8 35 -17 35 -21 0 -4 20 -15 45 -26 25 -10 45
-21 45 -25 0 -5 9 -8 20 -8 11 0 20 -4 20 -10 0 -5 9 -10 20 -10 11 0 20 -4
20 -10 0 -5 9 -10 20 -10 11 0 20 -3 20 -7 0 -5 29 -21 65 -38 36 -16 65 -34
65 -39 0 -5 3 -7 6 -3 4 3 24 -1 45 -9 21 -9 44 -14 51 -12 8 3 18 38 25 89
17 118 24 149 34 149 5 0 9 14 9 30 0 17 5 30 10 30 6 0 10 11 10 25 0 14 5
25 10 25 6 0 10 9 10 20 0 11 5 20 10 20 6 0 10 9 10 19 0 11 4 21 9 23 5 2
11 10 13 18 2 8 5 17 8 20 10 10 40 81 40 95 0 8 5 15 10 15 6 0 10 9 10 20 0
11 5 20 10 20 6 0 10 14 10 30 0 17 5 30 10 30 6 0 10 9 10 20 0 11 5 20 10
20 6 0 10 7 10 15 0 8 5 15 10 15 6 0 10 7 10 16 0 23 66 155 90 181 11 12 20
29 20 38 0 8 5 15 10 15 6 0 10 7 10 15 0 8 5 15 10 15 6 0 10 7 10 15 0 8 4
15 9 15 5 0 11 8 14 18 3 9 14 29 24 45 22 34 9 60 -33 65 -16 2 -31 7 -34 10
-5 7 -68 32 -137 56 -18 6 -33 14 -33 18 0 5 -9 8 -19 8 -11 0 -23 5 -26 10
-3 6 -15 10 -26 10 -10 0 -19 5 -19 10 0 6 -11 10 -24 10 -14 0 -28 5 -31 10
-3 6 -15 10 -26 10 -10 0 -19 3 -19 8 0 4 -14 13 -32 21 -31 14 -58 34 -102
76 -12 11 -33 26 -48 34 -16 8 -28 18 -28 23 0 4 -6 8 -13 8 -8 0 -20 12 -28
28 -8 15 -22 34 -31 43 -10 9 -18 20 -18 23 0 8 -26 36 -32 36 -2 -1 -9 -7
-15 -15z"/>
<path d="M13307 3650 c3 -25 12 -50 19 -57 20 -21 26 -15 10 9 -9 12 -16 32
-16 43 0 11 -5 27 -10 35 -7 10 -8 1 -3 -30z"/>
<path d="M13448 3543 c6 -2 18 -2 25 0 6 3 1 5 -13 5 -14 0 -19 -2 -12 -5z"/>
<path d="M13458 3523 c12 -2 22 -9 22 -14 0 -6 -5 -7 -10 -4 -16 10 -24 -23
-10 -40 7 -8 10 -24 7 -35 -7 -29 8 -34 43 -13 31 18 41 53 15 53 -8 0 -15 5
-15 11 0 5 5 7 10 4 6 -3 10 4 9 17 0 13 -3 17 -6 11 -2 -7 -11 -13 -19 -13
-9 0 -13 4 -10 9 7 10 -18 22 -42 20 -10 -1 -8 -4 6 -6z"/>
<path d="M13547 3523 c-10 -10 -8 -51 2 -58 5 -3 9 10 8 30 -1 19 -2 35 -3 35
0 0 -4 -3 -7 -7z"/>
<path d="M13410 3496 c0 -7 8 -20 17 -27 15 -12 16 -12 10 4 -4 10 -7 23 -7
28 0 5 -4 9 -10 9 -5 0 -10 -6 -10 -14z"/>
<path d="M13440 3425 c0 -8 2 -15 4 -15 2 0 6 7 10 15 3 8 1 15 -4 15 -6 0
-10 -7 -10 -15z"/>
<path d="M13443 3386 c0 -8 6 -12 14 -9 7 3 13 9 13 14 0 5 -6 9 -13 9 -8 0
-14 -6 -14 -14z"/>
<path d="M14260 3280 c0 -5 5 -10 10 -10 6 0 10 5 10 10 0 6 -4 10 -10 10 -5
0 -10 -4 -10 -10z"/>
<path d="M14350 3171 c0 -6 9 -21 20 -33 11 -12 20 -16 20 -9 0 6 -9 21 -20
33 -11 12 -20 16 -20 9z"/>
<path d="M14395 3111 c-3 -5 -2 -12 3 -15 5 -3 9 1 9 9 0 17 -3 19 -12 6z"/>
<path d="M14410 3070 c0 -5 5 -10 10 -10 6 0 10 5 10 10 0 6 -4 10 -10 10 -5
0 -10 -4 -10 -10z"/>
<path d="M12910 2820 c0 -5 5 -10 11 -10 5 0 7 5 4 10 -3 6 -8 10 -11 10 -2 0
-4 -4 -4 -10z"/>
<path d="M12793 2800 c-3 -11 -9 -20 -14 -20 -5 0 -9 -4 -9 -8 0 -17 26 -7 52
20 l27 28 -26 0 c-16 0 -27 -7 -30 -20z"/>
<path d="M12973 2803 c-19 -7 -16 -23 10 -44 29 -24 44 -24 52 2 5 15 10 18
15 9 5 -8 9 -6 12 7 4 13 0 19 -13 19 -11 0 -19 -6 -19 -13 0 -7 -4 -13 -10
-13 -5 0 -10 9 -10 20 0 19 -12 24 -37 13z"/>
<path d="M13701 2760 c0 -8 4 -22 9 -30 12 -18 12 -2 0 25 -6 13 -9 15 -9 5z"/>
<path d="M12770 2740 c-12 -8 -11 -10 8 -10 12 0 22 5 22 10 0 13 -11 13 -30
0z"/>
<path d="M12721 2711 c-7 -12 -8 -21 -4 -21 4 0 -2 -6 -13 -14 -19 -14 -18
-15 3 -13 25 1 50 44 34 60 -6 6 -13 1 -20 -12z"/>
<path d="M12966 2697 c3 -10 9 -15 12 -12 3 3 0 11 -7 18 -10 9 -11 8 -5 -6z"/>
<path d="M8971 1824 c0 -11 3 -14 6 -6 3 7 2 16 -1 19 -3 4 -6 -2 -5 -13z"/>
<path d="M8950 1780 c0 -5 5 -10 10 -10 6 0 10 5 10 10 0 6 -4 10 -10 10 -5 0
-10 -4 -10 -10z"/>
<path d="M14110 1619 c-47 -4 -134 -11 -193 -15 -79 -5 -110 -11 -114 -21 -3
-8 -4 -16 -2 -18 2 -2 99 0 214 4 210 8 265 18 265 48 0 14 -26 15 -170 2z"/>
<path d="M13030 753 c0 -17 6 -33 13 -36 9 -3 9 -7 1 -18 -15 -19 -19 -129 -5
-129 6 0 11 -20 11 -46 0 -59 41 -103 53 -56 3 12 5 10 6 -7 0 -13 9 -30 19
-37 15 -12 14 -13 -15 -14 -17 0 -38 -3 -47 -6 -26 -10 -18 -24 13 -24 17 0
33 -4 36 -10 3 -6 33 -10 66 -10 32 0 59 -4 59 -9 0 -4 38 -9 85 -10 54 -1 85
2 85 8 0 6 -22 11 -50 11 -27 0 -50 4 -50 9 0 4 -21 11 -46 14 -61 7 -65 10
-81 100 -3 15 -9 27 -14 27 -5 0 -8 3 -7 8 3 13 -14 62 -21 62 -5 0 -14 18
-21 40 -7 22 -17 40 -22 40 -5 0 -7 4 -4 9 3 4 -1 17 -9 27 -8 10 -15 25 -15
32 0 7 -9 22 -20 34 l-20 22 0 -31z"/>
<path d="M13703 512 c-84 -5 -61 -22 29 -22 48 0 78 4 73 9 -15 13 -45 17
-102 13z"/>
<path d="M12358 389 c-31 -17 -20 -29 27 -29 48 0 53 4 31 26 -17 16 -34 17
-58 3z"/>
<path d="M12500 350 c0 -5 6 -10 14 -10 8 0 18 5 21 10 3 6 -3 10 -14 10 -12
0 -21 -4 -21 -10z"/>
<path d="M12125 330 c-4 -6 23 -10 75 -10 52 0 79 4 75 10 -3 6 -37 10 -75 10
-38 0 -72 -4 -75 -10z"/>
<path d="M12550 330 c0 -5 14 -10 31 -10 17 0 28 4 24 10 -3 6 -17 10 -31 10
-13 0 -24 -4 -24 -10z"/>
<path d="M13410 330 c0 -5 21 -10 46 -10 27 0 43 4 39 10 -3 6 -24 10 -46 10
-21 0 -39 -4 -39 -10z"/>
<path d="M12640 310 c0 -5 11 -10 25 -10 14 0 25 5 25 10 0 6 -11 10 -25 10
-14 0 -25 -4 -25 -10z"/>
<path d="M12715 290 c-5 -9 23 -15 48 -11 4 0 7 -3 7 -8 0 -13 75 -20 138 -13
l57 7 -74 6 c-44 3 -76 10 -79 17 -5 15 -88 16 -97 2z"/>
</g>
</svg>
